AuroraMath.sfdir
StartChar: exclam
Encoding: 33 33 666
Width: 333
Flags: MW
LayerCount: 2
Fore
SplineSet
189 176 m 1
 176 176 l 1
 167 284 l 2
 165 309 159 362 150 422 c 0
 139 494 130 576 130 599 c 0
 130 646 150 676 183 676 c 0
 217 676 236 648 236 596 c 0
 236 582 235 571 234 559 c 2
 189 176 l 1
183 98 m 0
 213 98 237 73 237 43 c 0
 237 13 214 -9 182 -9 c 0
 152 -9 130 13 130 43 c 0
 130 74 153 98 183 98 c 0
EndSplineSet
EndChar
StartChar: quotedbl
Encoding: 34 34 646
Width: 408
Flags: MW
LayerCount: 2
Fore
SplineSet
299 431 m 1
 278 431 l 1
 261 521 246 619 246 635 c 0
 246 658 265 676 289 676 c 0
 312 676 331 658 331 636 c 0
 331 607 322 547 306 471 c 2
 299 431 l 1
130 431 m 1
 109 431 l 1
 92 521 77 619 77 635 c 0
 77 658 96 676 120 676 c 0
 143 676 162 658 162 636 c 0
 162 607 153 547 137 471 c 2
 130 431 l 1
EndSplineSet
EndChar
StartChar: numbersign
Encoding: 35 35 668
Width: 500
Flags: MW
LayerCount: 2
Fore
SplineSet
471 271 m 1
 471 216 l 1
 362 216 l 1
 331 0 l 1
 273 0 l 1
 304 216 l 1
 170 216 l 1
 137 0 l 1
 79 0 l 1
 112 216 l 1
 5 216 l 1
 5 271 l 1
 121 271 l 1
 142 405 l 1
 32 405 l 1
 32 460 l 1
 150 460 l 1
 181 662 l 1
 239 662 l 1
 208 460 l 1
 341 460 l 1
 371 662 l 1
 429 662 l 1
 399 460 l 1
 496 460 l 1
 496 405 l 1
 391 405 l 1
 371 271 l 1
 471 271 l 1
333 405 m 1
 200 405 l 1
 179 271 l 1
 313 271 l 1
 333 405 l 1
EndSplineSet
EndChar
StartChar: dollar
Encoding: 36 36 648
Width: 500
Flags: MW
LayerCount: 2
Fore
SplineSet
425 500 m 1
 410 500 l 1
 393 585 348 627 264 637 c 1
 264 391 l 1
 385 321 412 301 437 260 c 0
 449 240 457 204 457 170 c 0
 457 122 438 81 405 53 c 0
 369 24 338 12 264 0 c 1
 264 -87 l 1
 230 -87 l 1
 230 0 l 1
 146 3 104 14 44 51 c 1
 44 181 l 1
 59 181 l 1
 83 76 136 29 230 28 c 1
 230 310 l 1
 159 350 137 365 108 393 c 0
 68 430 52 465 52 512 c 0
 52 555 72 595 106 622 c 0
 139 648 167 657 230 664 c 1
 230 727 l 1
 264 727 l 1
 264 664 l 1
 348 654 391 639 425 611 c 1
 425 500 l 1
229 407 m 1
 229 637 l 1
 160 623 126 589 126 534 c 0
 126 488 146 463 229 407 c 1
264 293 m 1
 264 28 l 1
 342 43 378 80 378 146 c 0
 378 208 357 235 264 293 c 1
EndSplineSet
EndChar
StartChar: percent
Encoding: 37 37 685
Width: 833
Flags: W
HStem: -13 20 0 30<568 591.5> 289 34<178.5 200.5> 339 32<660.5 695> 583 25<427.5 464> 632 30<266.5 284.5> 656 20<595 634 634 634>
VStem: 61 76<381 405 366 479.5> 359 25<512.5 556 512.5 558> 449 76<90 120.5 75 191.5> 746 26<230.5 281>
LayerCount: 2
Fore
SplineSet
669 371 m 0x5be0
 734 371 772 332 772 264 c 0
 772 186 739 105 686 51 c 0
 651 16 614 0 569 0 c 0
 497 0 449 51 449 129 c 0
 449 254 556 371 669 371 c 0x5be0
676 339 m 0
 645 339 617 321 590 281 c 0
 553 229 525 147 525 94 c 0
 525 56 550 30 586 30 c 0
 622 30 651 47 683 87 c 0
 721 134 746 202 746 259 c 0
 746 303 714 339 676 339 c 0
634 676 m 1
 249 -13 l 1
 201 -13 l 1
 552 613 l 1
 512 590 486 583 442 583 c 0
 413 583 395 586 377 593 c 1
 382 575 384 563 384 549 c 0
 384 476 352 397 300 344 c 0
 267 309 222 289 179 289 c 0
 114 289 61 346 61 416 c 0
 61 543 168 662 282 662 c 0xade0
 313 662 326 657 352 635 c 0
 376 615 399 608 439 608 c 0
 501 608 541 625 595 676 c 1
 634 676 l 1
350 600 m 1x23e0
 321 608 309 613 295 626 c 0
 289 631 287 632 282 632 c 0x05e0
 251 632 213 598 184 544 c 0
 157 494 137 426 137 384 c 0
 137 348 161 323 196 323 c 0
 277 323 359 438 359 551 c 0
 359 565 356 580 350 600 c 1x23e0
EndSplineSet
EndChar
StartChar: ampersand
Encoding: 38 38 321
Width: 778
Flags: MW
ItalicCorrection: 20
TopAccentHorizontal: 344
HStem: -13 52<228 253.5> -13 71<617 631> 644 32<335 381>
VStem: 42 92<141.5 181> 202 79<539.5 565> 438 53<538.5 583.5> 495 216<405 426 405 426>
LayerCount: 2
Fore
SplineSet
711 426 m 1xbe
 711 405 l 1
 661 399 641 387 617 346 c 2
 591 300 l 2
 560 246 535 209 491 150 c 1
 537 89 589 58 645 58 c 0
 681 58 703 71 735 111 c 1
 750 100 l 1
 720 29 663 -13 599 -13 c 0x7e
 541 -13 492 13 429 78 c 1
 354 12 294 -13 213 -13 c 0
 107 -13 42 44 42 139 c 0
 42 223 93 294 199 355 c 2
 237 377 l 1
 210 452 202 484 202 522 c 0
 202 608 270 676 356 676 c 0
 435 676 491 626 491 555 c 0
 491 522 478 487 457 464 c 0
 429 433 404 416 336 384 c 1
 380 298 412 247 468 178 c 1
 532 263 559 317 559 360 c 0
 559 390 545 400 495 405 c 1
 495 426 l 1
 711 426 l 1xbe
321 416 m 1
 403 460 438 503 438 559 c 0
 438 608 404 644 358 644 c 0
 312 644 281 610 281 562 c 0
 281 517 291 479 321 416 c 1
252 343 m 1x9e
 165 287 134 244 134 180 c 0
 134 103 193 39 263 39 c 0
 305 39 345 57 404 104 c 1
 347 174 312 229 252 343 c 1x9e
EndSplineSet
EndChar
StartChar: quotesingle
Encoding: 39 39 686
Width: 180
Flags: W
HStem: 431 245<80 101 80 80>
LayerCount: 2
Fore
SplineSet
101 431 m 1
 80 431 l 1
 63 521 48 619 48 635 c 0
 48 658 67 676 91 676 c 0
 114 676 133 658 133 636 c 0
 133 607 124 547 108 471 c 2
 101 431 l 1
EndSplineSet
EndChar
StartChar: parenleft
Encoding: 40 40 687
Width: 333
Flags: W
HStem: 656 20<295 295>
VStem: 48 86<205 307.5 205 310.5>
LayerCount: 2
Fore
SplineSet
295 676 m 1
 304 660 l 1
 232 602 202 566 174 504 c 0
 147 442 134 360 134 255 c 0
 134 155 145 79 169 12 c 0
 196 -63 224 -98 304 -161 c 1
 292 -177 l 1
 240 -145 214 -123 173 -75 c 0
 85 27 48 125 48 252 c 0
 48 369 83 469 154 556 c 0
 191 602 221 628 295 676 c 1
EndSplineSet
EndChar
StartChar: parenright
Encoding: 41 41 688
Width: 333
Flags: W
HStem: 656 20<41 41>
VStem: 199 86<192 294>
LayerCount: 2
Fore
SplineSet
38 -177 m 1
 29 -161 l 1
 101 -103 131 -67 159 -4 c 0
 186 57 199 140 199 244 c 0
 199 344 188 420 164 487 c 0
 136 562 109 597 29 660 c 1
 41 676 l 1
 93 644 119 622 160 574 c 0
 248 472 285 375 285 247 c 4
 285 130 250 30 179 -57 c 0
 142 -103 112 -129 38 -177 c 1
EndSplineSet
EndChar
StartChar: asterisk
Encoding: 42 42 689
Width: 500
Flags: W
HStem: 656 20<241 261>
VStem: 241 19<449 456 429.5 456 486 499 499 510>
LayerCount: 2
Fore
SplineSet
241 449 m 1
 241 456 l 1
 206 434 199 429 189 420 c 0
 181 413 176 408 147 375 c 0
 130 356 121 351 105 351 c 0
 83 351 69 364 69 386 c 0
 69 411 86 423 131 431 c 0
 177 440 193 446 234 471 c 1
 223 478 l 2
 204 491 174 501 137 508 c 0
 89 517 69 531 69 555 c 0
 69 575 84 591 103 591 c 0
 119 591 131 583 151 559 c 0
 184 523 203 507 241 486 c 1
 241 499 l 2
 241 526 236 557 226 590 c 0
 220 611 216 629 216 641 c 0
 216 661 231 676 251 676 c 0
 271 676 287 660 287 639 c 0
 287 628 283 612 277 593 c 0
 266 562 260 534 260 510 c 2
 260 484 l 1
 267 488 l 2
 289 500 314 522 339 552 c 0
 363 580 380 593 395 593 c 0
 416 593 431 577 431 554 c 0
 431 529 418 518 380 512 c 0
 336 505 317 498 268 470 c 1
 276 465 l 2
 302 449 334 437 373 431 c 0
 417 424 432 413 432 387 c 0
 432 365 418 350 397 350 c 0
 379 350 362 362 337 393 c 0
 310 426 289 444 267 453 c 2
 260 456 l 1
 260 449 l 2
 260 410 267 372 280 337 c 0
 285 324 288 311 288 305 c 0
 288 284 270 265 249 265 c 0
 230 265 214 282 214 302 c 0
 214 313 218 330 225 348 c 0
 238 382 244 411 242 432 c 2
 241 449 l 1
EndSplineSet
EndChar
StartChar: plus
Encoding: 43 43 322
Width: 636
Flags: MW
ItalicCorrection: 159
TopAccentHorizontal: 283
HStem: 0 20 229 56G<62 290 62 290 346 574>
VStem: 290 56<0 229 0 229 285 511>
LayerCount: 2
Fore
SplineSet
574 229 m 1
 346 229 l 1
 346 0 l 1
 290 0 l 1
 290 229 l 1
 62 229 l 1
 62 285 l 1
 290 285 l 1
 290 511 l 1
 346 511 l 1
 346 285 l 1
 574 285 l 1
 574 229 l 1
EndSplineSet
EndChar
StartChar: comma
Encoding: 44 44 690
Width: 250
Flags: W
HStem: -6 20 -2 104<97.5 146>
VStem: 156 39<-17 -12>
LayerCount: 2
Fore
SplineSet
83 -141 m 1x60
 74 -122 l 1
 128 -85 156 -48 156 -16 c 0
 156 -8 150 -2 142 -2 c 0x60
 141 -2 141 -2 134 -4 c 0
 128 -5 121 -6 115 -6 c 0xa0
 79 -6 56 13 56 45 c 0
 56 79 80 102 115 102 c 0
 160 102 195 63 195 13 c 0
 195 -47 150 -108 83 -141 c 1x60
EndSplineSet
EndChar
StartChar: hyphen
Encoding: 45 45 691
Width: 333
Flags: W
HStem: 194 63<39 285 39 285>
VStem: 39 246<194 257 194 257>
LayerCount: 2
Fore
SplineSet
39 257 m 1
 285 257 l 1
 285 194 l 1
 39 194 l 1
 39 257 l 1
EndSplineSet
EndChar
StartChar: period
Encoding: 46 46 692
Width: 250
Flags: W
HStem: -11 20
LayerCount: 2
Fore
SplineSet
125 100 m 0
 155 100 181 74 181 43 c 0
 181 14 155 -11 124 -11 c 0
 95 -11 70 14 70 43 c 0
 70 74 95 100 125 100 c 0
EndSplineSet
EndChar
StartChar: slash
Encoding: 47 47 303
Width: 457
Flags: HMW
LayerCount: 2
Fore
SplineSet
427 678 m 1
 82 -161 l 1
 30 -161 l 1
 375 678 l 1
 427 678 l 1
EndSplineSet
EndChar
StartChar: zero
Encoding: 48 48 693
Width: 500
Flags: W
HStem: -14 26<221 275.5> 650 26<226.5 293>
VStem: 24 96<281.5 394.5> 380 96<269.5 432.5 269.5 432.5>
LayerCount: 2
Fore
SplineSet
254 676 m 0
 385 676 476 535 476 330 c 0
 476 209 438 93 380 38 c 0
 344 3 301 -14 250 -14 c 0
 192 -14 141 10 104 54 c 0
 57 110 24 227 24 336 c 0
 24 453 62 568 120 624 c 0
 157 659 199 676 254 676 c 0
251 650 m 0
 165 650 120 539 120 327 c 0
 120 119 164 12 250 12 c 0
 336 12 380 119 380 328 c 0
 380 537 335 650 251 650 c 0
EndSplineSet
EndChar
StartChar: one
Encoding: 49 49 658
Width: 500
Flags: HMW
TopAccentHorizontal: 219
LayerCount: 2
Fore
SplineSet
205 528 m 25
 303 528 l 1053
291 676 m 1
 299 674 l 1
 299 74 l 2
 299 26 315 16 394 15 c 1
 394 0 l 1
 118 0 l 1
 118 15 l 1
 160 16 174 19 189 28 c 0
 205 37 213 60 213 93 c 2
 213 546 l 2
 213 578 204 593 183 593 c 0
 173 593 156 589 138 582 c 0
 134 580 123 576 111 571 c 1
 111 585 l 1
 291 676 l 1
EndSplineSet
EndChar
StartChar: two
Encoding: 50 50 659
Width: 498
Flags: HMW
ItalicCorrection: 1
TopAccentHorizontal: 238
LayerCount: 2
Fore
SplineSet
227 694 m 25
 245 662 l 1053
475 137 m 1
 420 0 l 1
 30 0 l 1
 30 12 l 1
 208 201 l 2
 292 290 338 383 338 461 c 0
 338 545 281 602 197 602 c 0
 128 602 92 570 52 472 c 1
 31 477 l 1
 48 548 63 580 95 614 c 0
 132 654 184 676 239 676 c 0
 343 676 424 599 424 499 c 0
 424 421 385 345 296 252 c 2
 128 76 l 1
 367 76 l 2
 412 76 425 85 462 142 c 1
 475 137 l 1
EndSplineSet
EndChar
StartChar: three
Encoding: 51 51 681
Width: 500
Flags: MW
LayerCount: 2
Fore
SplineSet
153 330 m 1
 153 343 l 1
 221 367 249 382 279 412 c 0
 304 437 319 473 319 509 c 0
 319 572 274 616 209 616 c 0
 146 616 101 583 60 510 c 1
 45 514 l 1
 67 574 82 600 112 627 c 0
 148 659 192 676 242 676 c 0
 334 676 398 620 398 539 c 0
 398 485 373 448 304 401 c 1
 348 382 367 370 387 348 c 0
 416 317 432 270 432 219 c 0
 432 152 406 94 359 53 c 0
 312 12 233 -14 156 -14 c 0
 86 -14 43 8 43 43 c 0
 43 64 58 78 81 78 c 0
 98 78 115 71 145 53 c 0
 182 29 202 22 229 22 c 0
 303 22 360 87 360 171 c 0
 360 240 321 297 259 319 c 0
 235 328 212 330 153 330 c 1
EndSplineSet
EndChar
StartChar: four
Encoding: 52 52 682
Width: 500
Flags: MW
LayerCount: 2
Fore
SplineSet
472 231 m 1
 472 167 l 1
 370 167 l 1
 370 0 l 1
 293 0 l 1
 293 167 l 1
 12 167 l 1
 12 231 l 1
 326 676 l 1
 370 676 l 1
 370 231 l 1
 472 231 l 1
292 231 m 1
 292 574 l 1
 52 231 l 1
 292 231 l 1
EndSplineSet
EndChar
StartChar: five
Encoding: 53 53 683
Width: 470
Flags: MW
ItalicCorrection: 29
TopAccentHorizontal: 286
LayerCount: 2
Fore
SplineSet
181 583 m 1
 139 498 l 1
 257 477 314 454 358 410 c 0
 408 360 427 314 427 242 c 0
 427 166 406 109 360 64 c 0
 310 13 238 -14 154 -14 c 0
 79 -14 32 10 32 48 c 0
 32 73 46 85 75 85 c 0
 96 85 119 75 151 52 c 0
 181 30 198 23 218 23 c 0
 296 23 357 98 357 194 c 0
 357 293 304 355 189 392 c 0
 148 405 108 412 76 412 c 0
 68 412 64 415 64 420 c 0
 64 422 64 423 65 425 c 2
 174 662 l 1
 383 662 l 2
 404 662 414 667 429 688 c 1
 438 681 l 1
 400 592 l 2
 397 585 393 583 377 583 c 2
 181 583 l 1
EndSplineSet
EndChar
StartChar: six
Encoding: 54 54 684
Width: 486
Flags: MW
ItalicCorrection: 13
TopAccentHorizontal: 285
LayerCount: 2
Fore
SplineSet
446 684 m 1
 448 668 l 1
 291 642 179 534 152 383 c 1
 215 421 236 428 280 428 c 0
 395 428 468 347 468 219 c 0
 468 81 382 -14 258 -14 c 0
 196 -14 142 10 104 54 c 0
 61 104 34 192 34 279 c 0
 34 413 93 527 201 604 c 0
 274 655 332 674 446 684 c 1
242 382 m 0
 207 382 176 373 155 357 c 0
 135 342 127 314 127 263 c 0
 127 108 181 14 269 14 c 0
 339 14 378 75 378 185 c 0
 378 310 328 382 242 382 c 0
EndSplineSet
EndChar
StartChar: seven
Encoding: 55 55 700
Width: 500
Flags: W
HStem: -8 20 588 74<125.5 153 153 370>
LayerCount: 2
Fore
SplineSet
449 662 m 1
 449 646 l 1
 237 -8 l 1
 172 -8 l 1
 370 588 l 1
 153 588 l 2
 98 588 80 575 37 507 c 1
 20 515 l 1
 79 662 l 1
 449 662 l 1
EndSplineSet
EndChar
StartChar: eight
Encoding: 56 56 686
Width: 499
Flags: MW
TopAccentHorizontal: 246
LayerCount: 2
Fore
SplineSet
290 371 m 1
 411 281 445 232 445 155 c 0
 445 52 368 -14 248 -14 c 0
 135 -14 56 54 56 151 c 0
 56 219 78 250 186 332 c 1
 81 424 62 453 62 518 c 0
 62 609 143 676 252 676 c 0
 352 676 424 616 424 534 c 0
 424 466 389 424 290 371 c 1
272 268 m 2
 212 312 l 1
 154 265 132 223 132 159 c 0
 132 72 183 14 259 14 c 0
 324 14 369 59 369 124 c 0
 369 180 345 216 272 268 c 2
261 389 m 1
 265 392 265 392 270 395 c 0
 327 433 355 478 355 535 c 0
 355 604 312 648 244 648 c 0
 181 648 136 607 136 549 c 0
 136 493 172 447 261 389 c 1
EndSplineSet
EndChar
StartChar: nine
Encoding: 57 57 687
Width: 500
Flags: MW
LayerCount: 2
Fore
SplineSet
59 -22 m 1
 56 -2 l 1
 208 24 319 131 360 294 c 1
 307 253 265 237 210 237 c 0
 102 237 30 318 30 440 c 0
 30 575 119 676 238 676 c 0
 367 676 459 559 459 394 c 0
 459 259 398 135 294 59 c 0
 226 10 171 -9 59 -22 c 1
362 355 m 2
 362 394 l 2
 362 562 317 648 230 648 c 0
 201 648 176 637 159 617 c 0
 138 591 122 531 122 474 c 0
 122 355 170 280 246 280 c 0
 282 280 319 293 347 317 c 0
 358 326 362 335 362 355 c 2
EndSplineSet
EndChar
StartChar: colon
Encoding: 58 58 688
Width: 278
Flags: MW
LayerCount: 2
Fore
SplineSet
136 459 m 0
 166 459 192 433 192 402 c 0
 192 373 166 348 135 348 c 0
 106 348 81 373 81 402 c 0
 81 433 106 459 136 459 c 0
136 100 m 0
 166 100 192 74 192 43 c 0
 192 14 166 -11 135 -11 c 0
 106 -11 81 14 81 43 c 0
 81 74 106 100 136 100 c 0
EndSplineSet
EndChar
StartChar: semicolon
Encoding: 59 59 704
Width: 278
Flags: W
HStem: -6 20 -2 104<121.5 170> 348 111<121 150.5>
VStem: 81 111<387.5 417.5> 180 39<-17 -12>
LayerCount: 2
Fore
SplineSet
107 -141 m 1x48
 98 -122 l 1
 152 -85 180 -48 180 -16 c 0
 180 -8 174 -2 166 -2 c 0x68
 165 -2 165 -2 158 -4 c 0
 152 -5 145 -6 139 -6 c 0x88
 102 -6 80 13 80 46 c 0
 80 80 104 102 139 102 c 0
 184 102 219 63 219 13 c 0
 219 -47 176 -107 107 -141 c 1x48
136 459 m 0
 166 459 192 433 192 402 c 0
 192 373 166 348 135 348 c 0
 106 348 81 373 81 402 c 0x70
 81 433 106 459 136 459 c 0
EndSplineSet
EndChar
StartChar: less
Encoding: 60 60 304
Width: 636
Flags: HMW
TopAccentHorizontal: 477
LayerCount: 2
Fore
SplineSet
574 6 m 1
 62 247 l 1
 62 267 l 1
 574 508 l 1
 574 452 l 1
 158 257 l 1
 574 62 l 1
 574 6 l 1
EndSplineSet
EndChar
StartChar: equal
Encoding: 61 61 325
Width: 636
Flags: MW
TopAccentHorizontal: 279
LayerCount: 2
Fore
SplineSet
574 330 m 1
 62 330 l 1
 62 386 l 1
 574 386 l 1
 574 330 l 1
574 127 m 1
 62 127 l 1
 62 183 l 1
 574 183 l 1
 574 127 l 1
EndSplineSet
EndChar
StartChar: greater
Encoding: 62 62 306
Width: 636
Flags: HMW
TopAccentHorizontal: 90
LayerCount: 2
Fore
SplineSet
574 247 m 1
 62 6 l 1
 62 62 l 1
 478 257 l 1
 62 452 l 1
 62 508 l 1
 574 267 l 1
 574 247 l 1
EndSplineSet
EndChar
StartChar: question
Encoding: 63 63 705
Width: 444
Flags: W
HStem: -8 107<222 251.5 222 252> 449 20<100.5 128> 646 30<189.5 244>
VStem: 68 51<511 600> 184 107<29 59 29 59> 322 92<503 540 500.5 559.5>
LayerCount: 2
Fore
SplineSet
244 164 m 1
 227 164 l 1
 228 208 238 257 257 306 c 2
 285 370 l 2
 309 425 322 480 322 526 c 0
 322 593 274 646 214 646 c 0
 165 646 119 616 119 584 c 0
 119 576 124 567 136 553 c 0
 151 536 157 524 157 510 c 0
 157 486 140 469 116 469 c 0
 85 469 68 491 68 531 c 0
 68 614 138 676 230 676 c 0
 284 676 343 653 378 618 c 0
 401 595 414 559 414 521 c 0
 414 480 401 444 369 395 c 0
 355 374 355 374 309 318 c 0
 272 271 255 231 244 164 c 1
237 99 m 0
 266 99 291 74 291 44 c 0
 291 14 268 -8 236 -8 c 0
 206 -8 184 14 184 43 c 0
 184 75 207 99 237 99 c 0
EndSplineSet
EndChar
StartChar: at
Encoding: 64 64 670
Width: 921
Flags: MW
LayerCount: 2
Fore
SplineSet
688 73 m 1
 700 43 l 1
 603 -1 553 -14 483 -14 c 0
 276 -14 116 134 116 326 c 0
 116 521 278 676 481 676 c 0
 666 676 809 548 809 383 c 0
 809 254 724 143 625 143 c 0
 577 143 540 172 534 216 c 1
 500 171 453 144 409 144 c 0
 360 144 321 193 321 256 c 0
 321 329 352 405 405 458 c 0
 439 492 474 508 517 508 c 0
 552 508 567 497 589 456 c 1
 599 494 l 1
 668 494 l 1
 603 240 l 2
 602 234 601 229 601 222 c 0
 601 191 614 176 640 176 c 0
 706 176 769 273 769 373 c 0
 769 522 639 645 482 645 c 0
 409 645 342 618 293 569 c 0
 236 510 200 416 200 323 c 0
 200 149 322 25 492 25 c 0
 559 25 610 38 688 73 c 1
531 464 m 0
 507 466 472 446 444 414 c 0
 410 376 392 326 392 272 c 0
 392 220 415 187 452 187 c 0
 479 187 508 209 527 245 c 0
 553 292 570 351 572 399 c 0
 574 438 559 462 531 464 c 0
EndSplineSet
EndChar
StartChar: A
Encoding: 65 65 339
Width: 722
Flags: MW
TopAccentHorizontal: 347
LayerCount: 2
Fore
SplineSet
706 19 m 1
 706 0 l 1
 451 0 l 1
 451 19 l 1
 504 20 521 28 521 53 c 0
 521 67 514 93 502 120 c 2
 461 216 l 1
 199 216 l 1
 153 99 l 2
 148 86 145 72 145 60 c 0
 145 32 165 19 213 19 c 1
 213 0 l 1
 15 0 l 1
 15 19 l 1
 63 21 75 37 139 183 c 2
 347 674 l 1
 367 674 l 1
 616 106 l 2
 651 32 661 22 706 19 c 1
216 257 m 1
 447 257 l 1
 331 532 l 1
 216 257 l 1
EndSplineSet
EndChar
StartChar: B
Encoding: 66 66 342
Width: 667
Flags: MW
ItalicCorrection: 46
TopAccentHorizontal: 306
HStem: 0 19<17 351 17 17> 0 37<253.5 311 253.5 351> 625 37<229.5 237 237 281> 643 19<17 297>
VStem: 113 102<109 326 366 553 553 590> 457 102<471.5 532.5> 478 115<156 202 156 210.5>
LayerCount: 2
Fore
SplineSet
17 662 m 1x2a
 297 662 l 2
 470 662 559 604 559 492 c 0x6c
 559 451 544 414 519 392 c 0
 495 371 474 361 422 348 c 1
 487 332 514 320 544 293 c 0
 575 264 593 224 593 180 c 0
 593 132 573 87 537 55 c 0
 500 21 429 0 351 0 c 2
 17 0 l 1x6a
 17 19 l 1
 100 22 113 35 113 109 c 2
 113 553 l 2
 113 627 101 638 17 643 c 1x9a
 17 662 l 1x2a
215 326 m 1
 215 78 l 2
 215 46 229 37 278 37 c 0
 344 37 385 45 417 63 c 0
 457 86 478 125 478 179 c 0x6a
 478 242 451 282 394 306 c 0
 358 321 312 326 215 326 c 1
215 366 m 1
 310 366 l 2
 404 366 457 410 457 488 c 0x6c
 457 577 396 625 281 625 c 2
 237 625 l 2
 222 625 215 616 215 595 c 2
 215 366 l 1
EndSplineSet
EndChar
StartChar: D
Encoding: 68 68 322
Width: 663
Flags: HMW
ItalicCorrection: 58
TopAccentHorizontal: 298
LayerCount: 2
Fore
SplineSet
259 637 m 29
 283 645 l 1053
104 109 m 2
 104 553 l 2
 104 627 95 636 16 643 c 1
 16 662 l 1
 286 662 l 2
 423 662 532 626 600 557 c 0
 655 502 685 424 685 334 c 0
 685 237 648 148 583 89 c 0
 521 33 416 0 300 0 c 2
 16 0 l 1
 16 19 l 1
 92 24 104 37 104 109 c 2
206 586 m 2
 206 78 l 2
 206 46 218 37 258 37 c 0
 345 37 403 49 454 78 c 0
 535 125 576 209 576 327 c 0
 576 435 535 521 457 575 c 0
 409 609 344 625 258 625 c 0
 217 625 206 617 206 586 c 2
EndSplineSet
EndChar
StartChar: E
Encoding: 69 69 323
AltUni2: 000395.ffffffff.0
Width: 601
Flags: HMW
ItalicCorrection: 9
TopAccentHorizontal: 300
LayerCount: 2
Fore
SplineSet
18 697 m 25
 556 696 l 1053
-189 1416 m 1049
597 169 m 1
 552 0 l 1
 12 0 l 1
 12 19 l 1
 85 24 99 39 99 109 c 2
 99 553 l 2
 99 623 86 637 12 643 c 1
 12 662 l 1
 543 662 l 1
 546 519 l 1
 521 519 l 1
 504 609 482 624 369 624 c 2
 234 624 l 2
 207 624 201 618 201 590 c 2
 201 368 l 1
 355 368 l 2
 402 368 430 376 443 393 c 0
 454 407 458 422 465 463 c 1
 488 463 l 1
 488 231 l 1
 465 231 l 1
 452 314 437 327 355 327 c 2
 201 327 l 1
 201 80 l 2
 201 63 203 52 208 49 c 0
 215 42 257 37 306 37 c 2
 333 37 l 2
 476 37 519 61 569 169 c 1
 597 169 l 1
EndSplineSet
EndChar
StartChar: F
Encoding: 70 70 324
Width: 385
Flags: MW
ItalicCorrection: 170
TopAccentHorizontal: 290
LayerCount: 2
Fore
SplineSet
479 231 m 1
 456 231 l 1
 444 312 427 327 346 327 c 2
 201 327 l 1
 201 109 l 2
 201 37 215 23 292 19 c 1
 292 0 l 1
 12 0 l 1
 12 19 l 1
 88 24 99 37 99 120 c 2
 99 553 l 2
 99 623 86 637 12 643 c 1
 12 662 l 1
 543 662 l 1
 546 519 l 1
 521 519 l 1
 504 609 482 624 369 624 c 2
 233 624 l 2
 206 624 201 618 201 590 c 2
 201 368 l 1
 346 368 l 2
 426 368 444 383 456 463 c 1
 479 463 l 1
 479 231 l 1
EndSplineSet
EndChar
StartChar: H
Encoding: 72 72 326
AltUni2: 000397.ffffffff.0
Width: 722
Flags: MW
TopAccentHorizontal: 360
LayerCount: 2
Fore
SplineSet
209 359 m 1
 512 359 l 1
 512 553 l 2
 512 625 501 636 424 643 c 1
 424 662 l 1
 702 662 l 1
 702 643 l 1
 625 636 614 625 614 553 c 2
 614 109 l 2
 614 38 627 25 702 19 c 1
 702 0 l 1
 424 0 l 1
 424 19 l 1
 502 24 512 36 512 120 c 2
 512 315 l 1
 209 315 l 1
 209 109 l 2
 209 38 222 25 297 19 c 1
 297 0 l 1
 19 0 l 1
 19 19 l 1
 97 24 107 36 107 120 c 2
 107 553 l 2
 107 625 96 636 19 643 c 1
 19 662 l 1
 297 662 l 1
 297 643 l 1
 220 636 209 625 209 553 c 2
 209 359 l 1
EndSplineSet
EndChar
StartChar: I
Encoding: 73 73 349
Width: 333
Flags: MW
TopAccentHorizontal: 173
HStem: 0 19<18 315 18 18> 643 19<18 315 18 315>
VStem: 115 102<109 553>
LayerCount: 2
Fore
SplineSet
115 109 m 2
 115 553 l 2
 115 627 103 638 18 643 c 1
 18 662 l 1
 315 662 l 1
 315 643 l 1
 231 639 217 626 217 553 c 2
 217 109 l 2
 217 36 233 22 315 19 c 1
 315 0 l 1
 18 0 l 1
 18 19 l 1
 102 22 115 34 115 109 c 2
EndSplineSet
EndChar
StartChar: J
Encoding: 74 74 348
Width: 306
Flags: MW
ItalicCorrection: 82
TopAccentHorizontal: 226
LayerCount: 2
Fore
SplineSet
278 553 m 2
 278 183 l 2
 278 58 217 -14 109 -14 c 0
 51 -14 10 16 10 58 c 0
 10 85 32 108 59 108 c 0
 85 108 101 92 111 57 c 0
 118 32 124 24 138 24 c 0
 164 24 176 45 176 90 c 2
 176 553 l 2
 176 626 165 637 83 643 c 1
 83 662 l 1
 370 662 l 1
 370 643 l 1
 289 637 278 626 278 553 c 2
EndSplineSet
EndChar
StartChar: K
Encoding: 75 75 329
AltUni2: 00039a.ffffffff.0
Width: 722
Flags: HMW
TopAccentHorizontal: 351
LayerCount: 2
Fore
SplineSet
32 680 m 25
 680 689 l 1053
413 643 m 1
 413 662 l 1
 675 662 l 1
 675 643 l 1
 607 638 591 630 523 565 c 2
 333 377 l 1
 566 127 l 2
 657 30 671 20 723 19 c 1
 723 0 l 1
 418 0 l 1
 418 19 l 1
 430 20 441 20 446 20 c 0
 474 21 488 28 488 42 c 0
 488 66 434 137 358 212 c 2
 252 317 l 1
 226 296 l 1
 226 109 l 2
 226 36 238 24 316 19 c 1
 316 0 l 1
 34 0 l 1
 34 19 l 1
 113 24 124 37 124 120 c 2
 124 553 l 2
 124 624 112 637 34 643 c 1
 34 662 l 1
 318 662 l 1
 318 643 l 1
 237 637 226 626 226 553 c 2
 226 348 l 1
 403 509 l 2
 458 560 481 590 481 612 c 0
 481 632 469 640 439 642 c 0
 435 642 425 642 413 643 c 1
EndSplineSet
EndChar
StartChar: L
Encoding: 76 76 350
Width: 611
Flags: MW
TopAccentHorizontal: 169
LayerCount: 2
Fore
SplineSet
573 174 m 1
 598 174 l 1
 550 0 l 1
 12 0 l 1
 12 19 l 1
 85 24 99 39 99 109 c 2
 99 553 l 2
 99 623 86 637 12 643 c 1
 12 662 l 1
 294 662 l 1
 294 643 l 1
 215 638 201 624 201 553 c 2
 201 80 l 2
 201 45 214 39 287 39 c 2
 354 39 l 2
 437 39 492 57 527 96 c 0
 542 113 556 136 573 174 c 1
EndSplineSet
EndChar
StartChar: M
Encoding: 77 77 351
Width: 889
Flags: MW
TopAccentHorizontal: 454
LayerCount: 2
Fore
SplineSet
674 573 m 1
 418 0 l 1
 404 0 l 1
 153 550 l 1
 153 147 l 2
 153 46 170 23 247 19 c 1
 247 0 l 1
 12 0 l 1
 12 19 l 1
 95 25 109 44 109 147 c 2
 109 553 l 2
 109 626 96 638 14 643 c 1
 14 662 l 1
 212 662 l 1
 443 157 l 1
 664 662 l 1
 863 662 l 1
 863 643 l 1
 789 637 776 624 776 553 c 2
 776 109 l 2
 776 38 790 24 863 19 c 1
 863 0 l 1
 583 0 l 1
 583 19 l 1
 662 24 674 37 674 120 c 2
 674 573 l 1
EndSplineSet
EndChar
StartChar: O
Encoding: 79 79 333
AltUni2: 00039f.ffffffff.0
Width: 673
Flags: HMW
ItalicCorrection: 48
TopAccentHorizontal: 360
LayerCount: 2
Fore
SplineSet
346 694 m 25
 354 658 l 1053
361 676 m 0
 457 676 541 640 604 571 c 0
 659 511 688 426 688 327 c 0
 688 126 552 -14 355 -14 c 0
 267 -14 178 25 120 88 c 0
 66 146 34 237 34 331 c 0
 34 532 170 676 361 676 c 0
361 640 m 0
 306 640 257 618 218 575 c 0
 176 528 148 431 148 329 c 0
 148 218 181 117 233 71 c 0
 268 40 313 22 359 22 c 0
 412 22 457 40 492 75 c 0
 515 98 532 123 541 148 c 0
 561 200 574 269 574 328 c 0
 574 447 543 541 489 590 c 0
 453 622 407 640 361 640 c 0
EndSplineSet
EndChar
StartChar: P
Encoding: 80 80 334
AltUni2: 0003a1.ffffffff.0
Width: 388
Flags: HMW
ItalicCorrection: 167
TopAccentHorizontal: 264
LayerCount: 2
Fore
SplineSet
232 639 m 25
 272 651 l 1053
202 291 m 1
 202 109 l 2
 202 36 217 22 296 19 c 1
 296 0 l 1
 16 0 l 1
 16 19 l 1
 92 26 100 36 100 120 c 2
 100 553 l 2
 100 625 90 635 16 643 c 1
 16 662 l 1
 280 662 l 2
 374 662 461 634 501 590 c 0
 528 561 542 523 542 481 c 0
 542 415 506 354 446 322 c 0
 403 298 349 288 271 288 c 0
 245 288 228 289 202 291 c 1
202 591 m 2
 202 331 l 1
 225 329 239 328 259 328 c 0
 374 328 433 378 433 475 c 0
 433 578 371 625 236 625 c 0
 209 625 202 618 202 591 c 2
EndSplineSet
EndChar
StartChar: Q
Encoding: 81 81 355
Width: 722
Flags: MW
TopAccentHorizontal: 361
LayerCount: 2
Fore
SplineSet
701 -159 m 1
 701 -177 l 1
 695 -177 l 2
 684 -178 675 -178 660 -178 c 0
 501 -178 380 -135 312 -56 c 2
 265 -1 l 1
 194 23 162 43 123 85 c 0
 64 149 34 231 34 329 c 0
 34 532 170 676 361 676 c 0
 552 676 688 532 688 331 c 0
 688 220 650 129 576 63 c 0
 530 23 494 6 426 -7 c 1
 507 -112 587 -156 701 -159 c 1
364 640 m 0
 306 640 259 619 218 575 c 0
 177 529 148 431 148 335 c 0
 148 218 180 118 233 71 c 0
 269 39 313 22 361 22 c 0
 416 22 468 45 505 86 c 0
 545 132 574 234 574 333 c 0
 574 446 542 542 488 590 c 0
 453 621 407 640 364 640 c 0
EndSplineSet
EndChar
StartChar: R
Encoding: 82 82 356
Width: 667
Flags: MW
TopAccentHorizontal: 287
LayerCount: 2
Fore
SplineSet
659 19 m 1
 659 0 l 1
 498 0 l 1
 260 308 l 1
 204 306 l 1
 204 109 l 2
 204 37 217 24 294 19 c 1
 294 0 l 1
 17 0 l 1
 17 19 l 1
 92 25 102 37 102 120 c 2
 102 553 l 2
 102 624 92 635 17 643 c 1
 17 662 l 1
 293 662 l 2
 387 662 470 636 508 595 c 0
 534 566 547 529 547 486 c 0
 547 439 528 397 496 371 c 0
 463 344 433 332 366 319 c 1
 572 66 l 2
 601 32 621 22 659 19 c 1
204 589 m 2
 204 343 l 1
 300 345 335 351 381 377 c 0
 417 396 438 438 438 488 c 0
 438 582 380 625 255 625 c 0
 215 625 204 617 204 589 c 2
EndSplineSet
EndChar
StartChar: S
Encoding: 83 83 337
Width: 551
Flags: HMW
ItalicCorrection: 4
TopAccentHorizontal: 284
LayerCount: 2
Fore
SplineSet
238 693 m 25
 242 663 l 1053
447 676 m 1
 469 463 l 1
 444 463 l 1
 428 522 414 548 383 580 c 0
 348 616 306 635 261 635 c 0
 199 635 157 597 157 542 c 0
 157 488 199 444 304 386 c 0
 436 315 491 250 491 168 c 0
 491 65 402 -14 287 -14 c 0
 247 -14 207 -6 169 9 c 0
 150 16 133 20 122 20 c 0
 107 20 95 6 94 -13 c 1
 72 -13 l 1
 42 199 l 1
 65 199 l 1
 115 77 178 22 267 22 c 0
 340 22 390 68 390 135 c 0
 390 159 385 180 376 193 c 0
 351 231 299 272 227 310 c 0
 115 369 71 425 71 505 c 0
 71 557 89 599 124 630 c 0
 157 659 201 676 244 676 c 0
 276 676 313 668 350 654 c 0
 367 646 384 642 394 642 c 0
 411 642 422 653 426 676 c 1
 447 676 l 1
EndSplineSet
EndChar
StartChar: T
Encoding: 84 84 338
AltUni2: 0003a4.ffffffff.0
Width: 499
Flags: HMW
ItalicCorrection: 111
TopAccentHorizontal: 305
LayerCount: 2
Fore
SplineSet
26 681 m 25
 582 677 l 1053
254 620 m 1
 200 620 l 2
 88 620 65 601 41 492 c 1
 17 492 l 1
 23 662 l 1
 587 662 l 1
 593 492 l 1
 569 492 l 1
 546 602 524 620 410 620 c 2
 356 620 l 1
 356 109 l 2
 356 36 370 23 452 19 c 1
 452 0 l 1
 160 0 l 1
 160 19 l 1
 243 24 254 35 254 120 c 2
 254 620 l 1
EndSplineSet
EndChar
StartChar: U
Encoding: 85 85 339
Width: 631
Flags: HMW
ItalicCorrection: 90
TopAccentHorizontal: 364
LayerCount: 2
Fore
SplineSet
14 681 m 25
 699 676 l 1053
611 515 m 2
 611 254 l 2
 611 177 602 131 578 89 c 0
 539 21 464 -14 355 -14 c 0
 185 -14 104 68 104 241 c 2
 104 553 l 2
 104 626 93 637 14 643 c 1
 14 662 l 1
 297 662 l 1
 297 643 l 1
 217 636 206 625 206 553 c 2
 206 233 l 2
 206 170 213 133 231 101 c 0
 258 54 307 30 378 30 c 0
 453 30 517 61 544 109 c 0
 560 139 567 177 567 245 c 2
 567 515 l 2
 567 615 551 637 473 643 c 1
 473 662 l 1
 705 662 l 1
 705 643 l 1
 623 633 611 617 611 515 c 2
EndSplineSet
EndChar
StartChar: V
Encoding: 86 86 360
Width: 722
Flags: MW
TopAccentHorizontal: 346
LayerCount: 2
Fore
SplineSet
697 662 m 1
 697 643 l 1
 649 640 638 629 605 550 c 2
 383 -11 l 1
 368 -11 l 1
 122 538 l 2
 79 627 65 641 16 643 c 1
 16 662 l 1
 282 662 l 1
 282 643 l 1
 268 642 257 641 253 641 c 0
 221 639 207 629 207 610 c 0
 207 595 215 572 248 499 c 2
 399 161 l 1
 546 528 l 2
 558 558 565 585 565 601 c 0
 565 629 547 640 492 643 c 1
 492 662 l 1
 697 662 l 1
EndSplineSet
EndChar
StartChar: W
Encoding: 87 87 341
Width: 778
Flags: HMW
ItalicCorrection: 165
TopAccentHorizontal: 468
LayerCount: 2
Fore
SplineSet
303 676 m 25
 574 682 l 1053
932 662 m 1
 932 643 l 1
 879 633 868 624 849 572 c 0
 740 278 730 250 645 -11 c 1
 630 -11 l 1
 470 412 l 1
 316 -11 l 1
 301 -11 l 1
 108 526 l 2
 71 620 56 638 5 643 c 1
 5 662 l 1
 250 662 l 1
 250 643 l 1
 199 640 185 633 185 611 c 0
 185 600 189 583 196 565 c 2
 340 189 l 1
 447 471 l 1
 414 553 l 2
 380 633 370 642 313 643 c 1
 313 662 l 1
 580 662 l 1
 580 643 l 1
 526 642 503 632 503 608 c 0
 503 597 509 578 518 557 c 0
 519 554 528 532 530 527 c 2
 662 186 l 1
 787 525 l 2
 797 553 803 579 803 600 c 0
 803 627 785 638 734 643 c 1
 734 662 l 1
 932 662 l 1
EndSplineSet
EndChar
StartChar: X
Encoding: 88 88 362
Width: 722
Flags: MW
TopAccentHorizontal: 357
LayerCount: 2
Fore
SplineSet
696 662 m 1
 696 643 l 1
 632 639 612 627 547 549 c 2
 401 367 l 1
 593 93 l 2
 636 35 651 25 704 19 c 1
 704 0 l 1
 407 0 l 1
 407 19 l 1
 419 20 430 21 434 21 c 0
 468 22 484 32 484 50 c 0
 484 65 466 99 433 148 c 2
 338 288 l 1
 219 140 l 2
 182 94 167 69 167 54 c 0
 167 31 185 23 243 19 c 1
 243 0 l 1
 10 0 l 1
 10 19 l 1
 61 23 66 27 155 133 c 2
 312 326 l 1
 203 486 l 2
 105 625 87 640 22 643 c 1
 22 662 l 1
 324 662 l 1
 324 643 l 1
 296 642 l 2
 263 641 248 633 248 613 c 0
 248 591 272 548 333 463 c 2
 375 404 l 1
 488 542 l 2
 517 578 528 596 528 611 c 0
 528 634 512 641 458 643 c 1
 458 662 l 1
 696 662 l 1
EndSplineSet
EndChar
StartChar: Y
Encoding: 89 89 363
Width: 585
Flags: MW
ItalicCorrection: 136
TopAccentHorizontal: 363
LayerCount: 2
Fore
SplineSet
703 662 m 1
 703 643 l 1
 652 639 626 617 565 529 c 2
 417 303 l 1
 417 109 l 2
 417 33 431 21 520 19 c 1
 520 0 l 1
 214 0 l 1
 214 19 l 1
 305 23 315 33 315 120 c 2
 315 294 l 1
 184 486 l 2
 84 627 70 641 22 643 c 1
 22 662 l 1
 302 662 l 1
 302 643 l 1
 291 642 281 642 277 642 c 0
 245 640 231 631 231 613 c 0
 231 602 237 585 248 569 c 2
 396 347 l 1
 539 573 l 2
 548 588 553 600 553 610 c 0
 553 634 536 642 484 643 c 1
 484 662 l 1
 703 662 l 1
EndSplineSet
EndChar
StartChar: Z
Encoding: 90 90 364
Width: 611
Flags: MW
TopAccentHorizontal: 313
LayerCount: 2
Fore
SplineSet
574 176 m 1
 597 176 l 1
 573 0 l 1
 9 0 l 1
 9 15 l 1
 446 624 l 1
 225 624 l 2
 159 624 114 610 91 581 c 0
 74 560 66 540 57 491 c 1
 31 491 l 1
 51 662 l 1
 577 662 l 1
 577 647 l 1
 145 38 l 1
 402 38 l 2
 459 38 503 52 527 77 c 0
 547 99 557 120 574 176 c 1
EndSplineSet
EndChar
StartChar: bracketleft
Encoding: 91 91 707
Width: 333
Flags: W
HStem: -156 25<213 299 213 299> 637 25<193 209 209 299>
VStem: 88 76<-96.5 -79 -79 593>
LayerCount: 2
Fore
SplineSet
299 -131 m 1
 299 -156 l 1
 88 -156 l 1
 88 662 l 1
 299 662 l 1
 299 637 l 1
 209 637 l 2
 177 637 164 624 164 593 c 2
 164 -79 l 2
 164 -114 180 -131 213 -131 c 2
 299 -131 l 1
EndSplineSet
EndChar
StartChar: backslash
Encoding: 92 92 307
Width: 417
Flags: HMW
GlyphVariantsVertical: backslash backslash.v1 backslash.v2 backslash.v3 backslash.v4
LayerCount: 2
Fore
SplineSet
387 -161 m 1
 335 -161 l 1
 30 678 l 1
 82 678 l 1
 387 -161 l 1
EndSplineSet
EndChar
StartChar: bracketright
Encoding: 93 93 708
Width: 333
Flags: W
HStem: -156 25<34 124 124 139.5 34 245 34 124> 637 25<34 120 34 245>
VStem: 169 76<-87 585 585 602.5>
LayerCount: 2
Fore
SplineSet
34 -131 m 1
 124 -131 l 2
 155 -131 169 -118 169 -87 c 2
 169 585 l 2
 169 620 153 637 120 637 c 2
 34 637 l 1
 34 662 l 1
 245 662 l 1
 245 -156 l 1
 34 -156 l 1
 34 -131 l 1
EndSplineSet
EndChar
StartChar: asciicircum
Encoding: 94 94 709
Width: 469
Flags: W
HStem: 642 20<205 265 265 265>
LayerCount: 2
Fore
SplineSet
92 297 m 1
 24 297 l 1
 205 662 l 1
 265 662 l 1
 446 297 l 1
 378 297 l 1
 235 586 l 1
 92 297 l 1
EndSplineSet
EndChar
StartChar: underscore
Encoding: 95 95 710
Width: 500
Flags: W
HStem: -125 50<0 500 0 500>
LayerCount: 2
Fore
SplineSet
500 -125 m 1
 0 -125 l 1
 0 -75 l 1
 500 -75 l 1
 500 -125 l 1
EndSplineSet
EndChar
StartChar: grave
Encoding: 96 96 711
Width: 333
Flags: W
HStem: 658 20<42.5 60.5>
LayerCount: 2
Fore
SplineSet
242 507 m 1
 202 507 l 1
 48 604 l 2
 30 616 19 631 19 647 c 0
 19 666 32 678 53 678 c 0
 68 678 77 673 95 655 c 2
 242 507 l 1
EndSplineSet
EndChar
StartChar: b
Encoding: 98 98 366
Width: 500
Flags: MW
TopAccentHorizontal: 101
LayerCount: 2
Fore
SplineSet
153 681 m 1
 153 375 l 1
 173 424 231 460 292 460 c 0
 392 460 468 366 468 243 c 0
 468 100 366 -10 234 -10 c 0
 154 -10 69 23 69 54 c 2
 69 573 l 2
 69 615 60 624 20 624 c 0
 13 624 9 624 3 623 c 1
 3 639 l 1
 32 647 l 2
 79 660 106 668 148 683 c 1
 153 681 l 1
153 322 m 2
 153 70 l 2
 153 45 198 22 250 22 c 0
 332 22 380 86 380 197 c 0
 380 319 330 397 252 397 c 0
 200 397 153 361 153 322 c 2
EndSplineSet
EndChar
StartChar: c
Encoding: 99 99 347
Width: 436
Flags: HMW
ItalicCorrection: 7
TopAccentHorizontal: 243
LayerCount: 2
Fore
SplineSet
229 481 m 25
 240 452 l 1053
398 156 m 1
 412 147 l 1
 382 88 363 61 336 37 c 0
 300 6 260 -10 215 -10 c 0
 104 -10 25 83 25 213 c 0
 25 292 53 360 103 404 c 0
 144 440 195 460 244 460 c 0
 328 460 398 413 398 357 c 0
 398 334 376 315 350 315 c 0
 329 315 311 333 303 361 c 2
 297 383 l 2
 287 420 274 431 238 431 c 0
 157 431 102 360 102 257 c 0
 102 142 166 62 257 62 c 0
 314 62 350 86 398 156 c 1
EndSplineSet
EndChar
StartChar: d
Encoding: 100 100 348
Width: 500
Flags: HMW
TopAccentHorizontal: 371
LayerCount: 2
Fore
SplineSet
318 510 m 25
 432 495 l 1053
344 -10 m 1
 340 -7 l 1
 340 57 l 1
 306 10 268 -10 212 -10 c 0
 102 -10 27 77 27 205 c 0
 27 347 120 460 235 460 c 0
 275 460 302 449 340 417 c 1
 340 573 l 2
 340 614 331 624 294 624 c 0
 286 624 280 624 272 623 c 1
 272 639 l 1
 336 656 371 666 419 683 c 1
 424 681 l 1
 424 114 l 2
 424 68 432 57 468 57 c 0
 471 57 473 57 491 58 c 1
 491 42 l 1
 344 -10 l 1
340 102 m 2
 340 332 l 2
 340 385 291 432 238 432 c 0
 162 432 113 358 113 245 c 0
 113 122 168 42 251 42 c 0
 280 42 305 52 323 72 c 0
 333 83 340 95 340 102 c 2
EndSplineSet
EndChar
StartChar: f
Encoding: 102 102 372
Width: 333
Flags: MW
ItalicCorrection: 87
TopAccentHorizontal: 269
HStem: 0 15<20 280 20 20> 418 32<21 103 21 103 187 309 187 187> 655 28<248 253.5>
VStem: 103 84<104 418>
LayerCount: 2
Fore
SplineSet
309 450 m 1
 309 418 l 1
 187 418 l 1
 187 104 l 2
 187 29 198 18 280 15 c 1
 280 0 l 1
 20 0 l 1
 20 15 l 1
 92 19 103 31 103 104 c 2
 103 418 l 1
 21 418 l 1
 21 450 l 1
 103 450 l 1
 104 530 112 566 138 610 c 0
 164 656 217 683 279 683 c 0
 339 683 383 657 383 621 c 0
 383 598 364 580 341 580 c 0
 324 580 312 590 296 616 c 0
 278 645 264 655 243 655 c 0
 205 655 186 624 186 566 c 2
 186 450 l 1
 309 450 l 1
EndSplineSet
EndChar
StartChar: h
Encoding: 104 104 372
Width: 500
Flags: MW
TopAccentHorizontal: 112
LayerCount: 2
Fore
SplineSet
157 343 m 1
 157 102 l 2
 157 33 167 21 225 15 c 1
 225 0 l 1
 9 0 l 1
 9 15 l 1
 67 23 73 32 73 102 c 2
 73 573 l 2
 73 616 65 624 22 624 c 0
 17 624 14 624 10 623 c 1
 10 639 l 1
 37 647 l 2
 93 663 118 671 152 683 c 1
 157 680 l 1
 157 376 l 1
 203 436 245 460 304 460 c 0
 385 460 427 406 427 301 c 2
 427 102 l 2
 427 33 433 25 487 15 c 1
 487 0 l 1
 275 0 l 1
 275 15 l 1
 333 21 343 34 343 102 c 2
 343 300 l 2
 343 370 318 406 268 406 c 0
 229 406 199 389 157 343 c 1
EndSplineSet
EndChar
StartChar: i
Encoding: 105 105 353
Width: 278
Flags: HMW
TopAccentHorizontal: 128
LayerCount: 2
Fore
SplineSet
125 703 m 25
 128 666 l 1053
175 460 m 1
 179 457 l 1
 179 102 l 2
 179 30 187 20 253 15 c 1
 253 0 l 1
 16 0 l 1
 16 15 l 1
 85 19 95 30 95 102 c 2
 95 334 l 2
 95 378 86 394 62 394 c 0
 53 394 40 393 28 391 c 2
 20 390 l 1
 20 405 l 1
 175 460 l 1
128 683 m 0
 157 683 180 660 180 632 c 0
 180 603 157 581 128 581 c 0
 100 581 78 604 78 632 c 0
 78 660 101 683 128 683 c 0
EndSplineSet
EndChar
StartChar: j
Encoding: 106 106 374
Width: 276
Flags: MW
ItalicCorrection: 1
TopAccentHorizontal: 142
LayerCount: 2
Fore
SplineSet
193 457 m 1
 193 0 l 2
 193 -142 134 -218 24 -218 c 0
 -30 -218 -70 -195 -70 -163 c 0
 -70 -141 -52 -124 -29 -124 c 0
 -13 -124 1 -133 19 -156 c 0
 36 -177 46 -184 61 -184 c 0
 75 -184 89 -176 95 -166 c 0
 106 -146 109 -121 109 -45 c 2
 109 334 l 2
 109 377 100 394 77 394 c 0
 67 394 52 393 37 391 c 2
 32 390 l 1
 32 406 l 1
 91 424 129 437 188 460 c 1
 193 457 l 1
142 683 m 0
 171 683 194 660 194 632 c 0
 194 603 171 581 142 581 c 0
 114 581 92 604 92 632 c 0
 92 660 115 683 142 683 c 0
EndSplineSet
EndChar
StartChar: k
Encoding: 107 107 355
Width: 500
Flags: MW
TopAccentHorizontal: 110
LayerCount: 2
Fore
SplineSet
7 623 m 1
 7 639 l 1
 37 647 l 2
 95 663 124 671 162 683 c 1
 166 681 l 1
 166 261 l 1
 303 383 l 2
 317 395 326 409 326 417 c 0
 326 431 315 435 276 436 c 1
 276 450 l 1
 480 450 l 1
 480 435 l 1
 472 435 l 2
 455 435 441 433 426 429 c 0
 397 421 335 375 264 309 c 2
 235 282 l 1
 388 88 l 2
 430 37 461 18 505 15 c 1
 505 0 l 1
 287 0 l 1
 287 15 l 1
 306 15 l 2
 318 15 327 21 327 30 c 0
 327 35 324 41 316 51 c 0
 313 54 311 57 309 60 c 2
 306 64 l 1
 166 251 l 1
 166 67 l 2
 166 32 181 18 221 16 c 2
 241 15 l 1
 241 0 l 1
 7 0 l 1
 7 15 l 1
 79 27 82 30 82 82 c 2
 82 564 l 2
 82 612 72 625 39 625 c 0
 29 625 20 624 7 623 c 1
EndSplineSet
EndChar
StartChar: l
Encoding: 108 108 376
Width: 278
Flags: MW
TopAccentHorizontal: 105
LayerCount: 2
Fore
SplineSet
19 623 m 1
 19 639 l 1
 88 656 126 666 178 683 c 1
 182 681 l 1
 182 84 l 2
 182 29 194 19 257 15 c 1
 257 0 l 1
 21 0 l 1
 21 15 l 1
 84 20 98 33 98 87 c 2
 98 564 l 2
 98 611 88 625 56 625 c 0
 48 625 36 624 25 623 c 2
 19 623 l 1
EndSplineSet
EndChar
StartChar: m
Encoding: 109 109 379
Width: 778
Flags: MW
TopAccentHorizontal: 360
HStem: 0 15<16 238 16 16> 408 52<299 310 561 575.5>
VStem: 86 84<85 338 338 349> 354 84<86 95 95 303 303 338> 622 84<87 282>
LayerCount: 2
Fore
SplineSet
19 398 m 1
 19 415 l 1
 74 430 108 441 159 460 c 1
 166 458 l 1
 166 383 l 1
 249 446 277 460 321 460 c 0
 375 460 409 433 427 376 c 1
 481 434 532 460 590 460 c 0
 667 460 706 400 706 282 c 2
 706 76 l 2
 706 37 719 19 749 17 c 2
 775 15 l 1
 775 0 l 1
 556 0 l 1
 556 15 l 1
 614 22 622 30 622 87 c 2
 622 298 l 2
 622 381 604 408 547 408 c 0
 501 408 468 390 438 347 c 1
 438 95 l 2
 438 33 453 16 510 15 c 1
 510 0 l 1
 286 0 l 1
 286 15 l 1
 343 19 354 30 354 86 c 2
 354 303 l 2
 354 373 332 408 288 408 c 0
 253 408 210 391 185 368 c 0
 178 361 170 351 170 349 c 2
 170 67 l 2
 170 28 185 17 238 15 c 1
 238 0 l 1
 16 0 l 1
 16 15 l 1
 72 16 86 31 86 85 c 2
 86 338 l 2
 86 386 77 402 51 402 c 0
 40 402 32 401 19 398 c 1
EndSplineSet
EndChar
StartChar: o
Encoding: 111 111 381
Width: 500
Flags: MW
ItalicCorrection: 57
TopAccentHorizontal: 255
HStem: -10 28<240.5 297.5 240.5 311> 432 28<201.5 279>
VStem: 29 90<239.5 295> 380 90<165 267.5>
LayerCount: 2
Fore
SplineSet
250 460 m 0
 378 460 470 365 470 234 c 0
 470 96 374 -10 248 -10 c 0
 122 -10 29 91 29 226 c 0
 29 364 120 460 250 460 c 0
237 432 m 0
 166 432 119 370 119 275 c 0
 119 204 135 134 163 82 c 0
 184 42 221 18 260 18 c 0
 335 18 380 86 380 199 c 0
 380 336 321 432 237 432 c 0
EndSplineSet
EndChar
StartChar: p
Encoding: 112 112 382
Width: 500
Flags: MW
ItalicCorrection: 57
TopAccentHorizontal: 234
HStem: -217 17<5 247 5 5> -217 18<5 247> -217 217 -10 32<239.5 299 239.5 319> 400 60<275 298>
VStem: 75 84<-131 -124 -124 33 73 88 88 334> 384 86<174.5 266>
LayerCount: 2
Fore
SplineSet
9 393 m 1x86
 9 409 l 1
 64 426 99 439 153 460 c 1
 159 458 l 1
 159 381 l 1
 203 435 247 460 303 460 c 0
 400 460 470 371 470 247 c 0
 470 102 378 -10 260 -10 c 0
 218 -10 194 0 159 33 c 1
 159 -124 l 2
 159 -187 172 -198 247 -199 c 1x5e
 247 -217 l 1
 5 -217 l 1x26
 5 -200 l 1
 64 -194 75 -183 75 -131 c 2
 75 337 l 2
 75 384 68 394 34 394 c 0
 25 394 18 394 9 393 c 1x86
159 334 m 2
 159 88 l 2
 159 58 216 22 263 22 c 0
 335 22 384 97 384 208 c 0
 384 324 335 400 261 400 c 0
 215 400 159 364 159 334 c 2
EndSplineSet
EndChar
StartChar: q
Encoding: 113 113 383
Width: 500
Flags: MW
TopAccentHorizontal: 278
HStem: -217 14<252 488> -217 17<252 488 252 252> -10 61<137 256.5> 433 28<205.5 264.5 182.5 279>
VStem: 24 86<208 277> 341 84<-124 64 64 64 127 333 333 366.5>
LayerCount: 2
Fore
SplineSet
360 425 m 1x7c
 414 457 l 1
 425 457 l 1
 425 -141 l 2
 425 -183 433 -191 488 -203 c 1
 488 -217 l 1
 252 -217 l 1xbc
 252 -200 l 1
 323 -195 341 -180 341 -124 c 2
 341 64 l 1
 297 16 242 -10 184 -10 c 0
 90 -10 24 79 24 205 c 0
 24 349 120 461 245 461 c 0
 284 461 314 452 360 425 c 1x7c
341 127 m 2
 341 333 l 2
 341 400 310 433 248 433 c 0
 163 433 110 359 110 241 c 0
 110 175 131 110 163 81 c 0
 183 61 210 51 241 51 c 0
 272 51 305 63 327 82 c 0
 337 90 341 103 341 127 c 2
EndSplineSet
EndChar
StartChar: s
Encoding: 115 115 363
Width: 389
Flags: MW
TopAccentHorizontal: 196
LayerCount: 2
Fore
SplineSet
315 314 m 1
 300 314 l 1
 277 403 247 437 190 437 c 0
 144 437 113 409 113 369 c 0
 113 342 128 317 156 301 c 2
 264 237 l 2
 324 201 348 168 348 118 c 0
 348 48 284 -10 207 -10 c 0
 189 -10 162 -6 134 0 c 0
 111 6 97 8 88 8 c 0
 76 8 72 6 65 -4 c 1
 52 -4 l 1
 52 152 l 1
 68 152 l 1
 81 95 90 72 111 47 c 0
 130 25 161 12 195 12 c 0
 246 12 278 40 278 84 c 0
 278 115 261 139 226 159 c 2
 168 192 l 2
 83 240 51 280 51 336 c 0
 51 408 108 459 187 459 c 0
 213 459 235 455 257 447 c 0
 268 442 278 440 284 440 c 0
 288 440 289 441 298 448 c 2
 300 450 l 1
 311 450 l 1
 315 314 l 1
EndSplineSet
EndChar
StartChar: t
Encoding: 116 116 384
Width: 278
Flags: MW
TopAccentHorizontal: 123
LayerCount: 2
Fore
SplineSet
255 450 m 1
 255 418 l 1
 154 418 l 1
 154 132 l 2
 154 69 169 42 206 42 c 0
 228 42 245 52 266 77 c 1
 279 66 l 1
 246 14 208 -10 159 -10 c 0
 100 -10 70 33 70 117 c 2
 70 418 l 1
 17 418 l 2
 14 420 13 422 13 425 c 0
 13 430 19 437 30 444 c 1
 46 448 89 496 127 551 c 0
 134 561 140 570 147 579 c 1
 153 579 154 576 154 566 c 2
 154 450 l 1
 255 450 l 1
EndSplineSet
EndChar
StartChar: u
Encoding: 117 117 387
Width: 500
Flags: MW
TopAccentHorizontal: 245
HStem: -10 58<206.5 210.5> -9 20 433 17<259 259> 436 14<9 155>
VStem: 71 84<120 124 124 372 372 395> 333 84<135 370 370 395>
LayerCount: 2
Fore
SplineSet
479 50 m 1x1c
 479 36 l 1
 428 22 392 11 342 -9 c 1x4c
 338 -7 l 1
 338 76 l 1
 295 33 l 2
 268 6 229 -10 192 -10 c 0
 119 -10 71 41 71 120 c 2
 71 372 l 2
 71 418 57 433 9 436 c 1
 9 450 l 1
 155 450 l 1x9c
 155 124 l 2
 155 82 187 48 226 48 c 0
 256 48 287 60 314 82 c 0
 328 93 333 107 333 135 c 2
 333 370 l 2
 333 420 321 430 259 433 c 1xac
 259 450 l 1
 417 450 l 1
 417 107 l 2
 417 61 428 50 474 50 c 2
 479 50 l 1x1c
EndSplineSet
EndChar
StartChar: v
Encoding: 118 118 366
Width: 378
Flags: HMW
ItalicCorrection: 121
TopAccentHorizontal: 249
LayerCount: 2
Fore
SplineSet
18 459 m 25
 475 458 l 1053
477 450 m 1
 477 435 l 1
 447 432 441 425 412 357 c 2
 284 36 l 2
 269 -1 262 -14 256 -14 c 0
 250 -14 244 -6 238 12 c 0
 235 20 232 27 230 33 c 2
 110 320 l 2
 64 423 57 433 19 435 c 1
 19 450 l 1
 215 450 l 1
 215 435 l 1
 180 432 169 425 169 407 c 0
 169 398 172 384 178 370 c 2
 280 114 l 1
 379 373 l 2
 383 383 385 393 385 403 c 0
 385 422 370 432 338 435 c 1
 338 450 l 1
 477 450 l 1
EndSplineSet
EndChar
StartChar: w
Encoding: 119 119 387
Width: 722
Flags: MW
TopAccentHorizontal: 346
LayerCount: 2
Fore
SplineSet
571 450 m 1
 694 450 l 1
 694 435 l 1
 674 428 671 423 653 381 c 2
 515 35 l 2
 499 -5 494 -14 487 -14 c 0
 481 -14 477 -8 463 29 c 2
 372 265 l 1
 260 25 l 2
 248 -1 240 -14 235 -14 c 0
 229 -14 221 0 209 30 c 2
 74 372 l 2
 52 423 44 433 21 435 c 1
 21 450 l 1
 201 450 l 1
 201 435 l 1
 167 431 155 423 155 402 c 0
 155 392 157 382 161 372 c 2
 260 111 l 1
 351 310 l 1
 345 328 338 347 331 366 c 0
 311 420 299 431 262 435 c 1
 262 450 l 1
 465 450 l 1
 465 435 l 1
 418 428 407 421 407 399 c 0
 407 386 407 386 424 340 c 2
 508 116 l 1
 598 338 l 2
 609 365 615 389 615 404 c 0
 615 421 605 428 571 435 c 1
 571 450 l 1
EndSplineSet
EndChar
StartChar: x
Encoding: 120 120 368
Width: 500
Flags: HMW
TopAccentHorizontal: 231
LayerCount: 2
Fore
SplineSet
23 458 m 25
 432 462 l 1053
278 0 m 1
 278 15 l 1
 311 17 318 21 318 39 c 0
 318 45 316 51 312 57 c 2
 221 197 l 1
 142 74 l 2
 129 54 122 39 122 33 c 0
 122 20 134 15 162 15 c 1
 162 0 l 1
 17 0 l 1
 17 15 l 1
 50 18 60 25 90 66 c 2
 204 231 l 1
 110 375 l 2
 79 422 63 435 33 435 c 2
 24 435 l 1
 24 450 l 1
 231 450 l 1
 231 435 l 1
 201 434 188 427 188 413 c 0
 188 400 206 366 234 324 c 2
 248 304 l 1
 261 324 273 342 278 348 c 0
 303 379 315 401 315 413 c 0
 315 427 305 433 275 435 c 1
 275 450 l 1
 433 450 l 1
 433 435 l 1
 401 434 371 418 352 391 c 2
 269 271 l 1
 397 75 l 2
 428 31 448 15 479 15 c 1
 479 0 l 1
 278 0 l 1
EndSplineSet
EndChar
StartChar: y
Encoding: 121 121 369
Width: 384
Flags: HMW
ItalicCorrection: 115
TopAccentHorizontal: 247
LayerCount: 2
Fore
SplineSet
15 456 m 25
 469 456 l 1053
475 450 m 1
 475 435 l 1
 451 432 440 422 427 390 c 2
 273 -18 l 2
 219 -162 171 -218 104 -218 c 0
 62 -218 30 -193 30 -160 c 0
 30 -136 50 -116 73 -116 c 0
 90 -116 107 -120 126 -127 c 0
 136 -132 145 -134 151 -134 c 0
 165 -134 187 -115 201 -89 c 0
 218 -59 241 4 241 19 c 0
 241 34 225 70 197 120 c 2
 182 150 l 1
 179 158 l 1
 65 404 l 2
 57 421 40 432 14 436 c 1
 14 450 l 1
 220 450 l 1
 220 435 l 1
 177 433 162 426 162 408 c 0
 162 397 166 384 172 370 c 2
 287 117 l 1
 384 393 l 2
 387 400 388 406 388 410 c 0
 388 426 372 435 340 435 c 1
 340 450 l 1
 475 450 l 1
EndSplineSet
EndChar
StartChar: braceleft
Encoding: 123 123 328
Width: 480
Flags: MW
HStem: 660 20<350 350>
VStem: 185 74<-41 121 363 378 378 541 541 546>
LayerCount: 2
Fore
SplineSet
350 -170 m 1
 350 -181 l 1
 284 -180 257 -174 229 -156 c 0
 201 -138 185 -97 185 -41 c 2
 185 136 l 2
 185 205 167 229 100 250 c 1
 167 270 185 293 185 363 c 2
 185 541 l 2
 185 598 200 637 229 655 c 0
 258 673 284 679 350 680 c 1
 350 669 l 1
 281 651 259 621 259 546 c 2
 259 378 l 2
 259 295 240 269 165 249 c 1
 240 230 259 204 259 121 c 2
 259 -47 l 2
 259 -122 281 -152 350 -170 c 1
EndSplineSet
EndChar
StartChar: bar
Encoding: 124 124 329
Width: 200
Flags: MW
VStem: 72 56<-163 677>
LayerCount: 2
Fore
SplineSet
128 -163 m 1
 72 -163 l 1
 72 677 l 1
 128 677 l 1
 128 -163 l 1
EndSplineSet
EndChar
StartChar: braceright
Encoding: 125 125 330
Width: 480
Flags: MW
HStem: 660 20<130 130>
VStem: 221 74<-47 -42 -42 121 121 136 378 540>
LayerCount: 2
Fore
SplineSet
130 669 m 1
 130 680 l 1
 197 679 223 673 251 655 c 0
 279 637 295 596 295 540 c 2
 295 363 l 2
 295 293 313 270 380 250 c 5
 313 229 295 206 295 136 c 2
 295 -42 l 2
 295 -99 280 -138 251 -156 c 0
 222 -174 196 -180 130 -181 c 1
 130 -170 l 1
 199 -152 221 -122 221 -47 c 2
 221 121 l 2
 221 204 240 230 315 250 c 1
 240 269 221 294 221 378 c 2
 221 546 l 2
 221 621 199 651 130 669 c 1
EndSplineSet
EndChar
StartChar: asciitilde
Encoding: 126 126 676
Width: 541
Flags: MW
LayerCount: 2
Fore
SplineSet
448 303 m 1
 502 271 l 1
 456 207 425 186 379 186 c 0
 334 186 316 193 227 240 c 0
 210 249 189 254 168 254 c 0
 137 254 120 242 94 203 c 1
 40 235 l 1
 86 299 117 320 163 320 c 0
 208 320 226 313 315 266 c 0
 332 257 353 252 374 252 c 0
 405 252 422 264 448 303 c 1
EndSplineSet
EndChar
StartChar: exclamdown
Encoding: 161 161 713
Width: 333
Flags: W
HStem: -218 20 362 107<135 165>
LayerCount: 2
Fore
SplineSet
144 282 m 1
 157 282 l 1
 166 174 l 2
 170 127 176 81 183 36 c 0
 195 -35 203 -106 203 -140 c 0
 203 -188 183 -218 150 -218 c 0
 116 -218 97 -190 97 -138 c 0
 97 -126 98 -113 99 -101 c 2
 144 282 l 1
151 469 m 0
 180 469 204 446 204 417 c 0
 204 387 180 362 150 362 c 0
 120 362 97 386 97 418 c 0
 97 448 119 469 151 469 c 0
EndSplineSet
EndChar
StartChar: cent
Encoding: 162 162 699
Width: 500
Flags: MW
LayerCount: 2
Fore
SplineSet
403 579 m 1
 356 444 l 1
 404 425 431 395 431 360 c 0
 431 334 413 315 388 315 c 0
 363 315 348 328 330 367 c 1
 229 76 l 1
 253 67 268 64 288 64 c 0
 347 64 383 89 435 164 c 1
 448 156 l 1
 414 86 395 59 360 29 c 0
 332 5 295 -9 257 -9 c 0
 240 -9 225 -7 201 0 c 1
 152 -138 l 1
 118 -138 l 1
 169 12 l 1
 132 33 117 46 99 71 c 0
 70 111 53 165 53 219 c 0
 53 354 149 460 273 460 c 0
 287 460 300 459 324 455 c 1
 368 579 l 1
 403 579 l 1
198 98 m 1
 313 421 l 1
 295 428 283 430 266 430 c 0
 184 430 130 362 130 260 c 0
 130 188 149 143 198 98 c 1
EndSplineSet
EndChar
StartChar: sterling
Encoding: 163 163 679
Width: 500
Flags: MW
LayerCount: 2
Fore
SplineSet
344 373 m 1
 344 328 l 1
 223 328 l 1
 223 301 l 1
 224 273 l 2
 224 238 223 233 199 111 c 1
 264 84 299 76 348 76 c 0
 394 76 429 91 461 125 c 0
 471 136 479 141 484 141 c 0
 488 141 490 139 490 136 c 0
 490 119 468 75 447 51 c 0
 415 14 370 -7 322 -7 c 0
 279 -7 246 7 178 54 c 1
 138 7 115 -8 80 -8 c 0
 39 -8 12 16 12 54 c 0
 12 100 49 130 103 130 c 0
 118 130 130 129 149 125 c 1
 152 133 153 139 153 146 c 0
 153 164 151 181 131 328 c 1
 23 328 l 1
 23 373 l 1
 130 373 l 1
 125 399 123 418 123 442 c 0
 123 585 199 676 318 676 c 0
 392 676 448 636 448 583 c 0
 448 552 427 530 398 530 c 0
 368 530 360 544 359 597 c 0
 358 632 340 649 303 649 c 0
 243 649 208 598 208 510 c 0
 208 474 211 441 219 373 c 1
 344 373 l 1
89 94 m 0
 56 94 38 81 38 57 c 0
 38 35 55 20 79 20 c 0
 99 20 111 26 125 43 c 0
 136 56 142 68 142 76 c 0
 142 84 113 94 89 94 c 0
EndSplineSet
EndChar
StartChar: yen
Encoding: 165 165 702
Width: 500
Flags: MW
LayerCount: 2
Fore
SplineSet
190 182 m 1
 16 182 l 1
 16 222 l 1
 190 222 l 1
 190 298 l 1
 183 312 l 1
 16 312 l 1
 16 352 l 1
 160 352 l 1
 65 525 l 2
 10 624 -7 640 -53 643 c 1
 -53 662 l 1
 190 662 l 1
 190 643 l 1
 143 642 125 634 125 614 c 0
 125 601 130 585 138 569 c 2
 256 348 l 1
 368 568 l 2
 377 585 382 602 382 612 c 0
 382 631 361 643 331 643 c 2
 317 643 l 1
 317 662 l 1
 512 662 l 1
 512 643 l 1
 461 632 431 605 394 536 c 2
 302 352 l 1
 448 352 l 1
 448 312 l 1
 282 312 l 1
 275 298 l 1
 275 222 l 1
 448 222 l 1
 448 182 l 1
 275 182 l 1
 275 109 l 2
 275 39 291 21 355 19 c 1
 355 0 l 1
 111 0 l 1
 111 19 l 1
 178 22 190 37 190 120 c 2
 190 182 l 1
EndSplineSet
EndChar
StartChar: brokenbar
Encoding: 166 166 682
Width: 200
Flags: MW
LayerCount: 2
Fore
SplineSet
128 327 m 1
 72 327 l 1
 72 677 l 1
 128 677 l 1
 128 327 l 1
128 -163 m 1
 72 -163 l 1
 72 187 l 1
 128 187 l 1
 128 -163 l 1
EndSplineSet
EndChar
StartChar: section
Encoding: 167 167 331
Width: 500
Flags: MW
LayerCount: 2
Fore
SplineSet
310 125 m 2
 292 125 l 1
 367 60 386 30 386 -21 c 0
 386 -97 329 -148 242 -148 c 0
 164 -148 104 -104 104 -48 c 0
 104 -17 127 6 158 6 c 0
 185 6 206 -12 206 -36 c 0
 206 -50 199 -63 183 -77 c 0
 176 -83 172 -88 172 -92 c 0
 172 -110 206 -127 243 -127 c 0
 296 -127 330 -97 330 -50 c 0
 330 -11 305 21 241 65 c 0
 119 149 70 213 70 286 c 0
 70 354 119 405 185 405 c 0
 191 405 200 405 210 404 c 1
 130 470 110 500 110 554 c 0
 110 626 166 676 249 676 c 0
 322 676 377 634 377 578 c 0
 377 545 358 525 326 525 c 0
 299 525 279 543 279 568 c 0
 279 584 289 600 305 612 c 0
 310 617 313 620 313 623 c 0
 313 641 285 655 251 655 c 0
 200 655 166 626 166 584 c 0
 166 559 180 530 200 513 c 2
 337 400 l 2
 395 352 426 298 426 245 c 0
 426 175 378 125 310 125 c 2
191 383 m 0
 152 383 123 355 123 316 c 0
 123 286 135 263 169 229 c 0
 229 169 267 146 305 146 c 0
 342 146 374 177 374 212 c 0
 374 238 355 271 321 305 c 0
 275 351 222 383 191 383 c 0
EndSplineSet
EndChar
StartChar: dieresis
Encoding: 168 168 683
Width: 333
Flags: MW
LayerCount: 2
Fore
SplineSet
66 622 m 0
 94 622 117 599 117 572 c 0
 117 545 94 523 66 523 c 0
 39 523 18 545 18 573 c 0
 18 599 41 622 66 622 c 0
265 622 m 0
 293 622 316 599 316 572 c 0
 316 545 293 523 265 523 c 0
 238 523 217 545 217 573 c 0
 217 599 240 622 265 622 c 0
EndSplineSet
EndChar
StartChar: copyright
Encoding: 169 169 705
Width: 760
Flags: MW
LayerCount: 2
Fore
SplineSet
531 247 m 1
 547 247 l 1
 530 171 l 2
 527 158 449 141 392 141 c 0
 271 141 190 217 190 331 c 0
 190 451 279 532 411 532 c 0
 444 532 483 524 517 510 c 0
 526 507 531 500 531 493 c 2
 531 423 l 1
 514 423 l 1
 505 482 469 512 406 512 c 0
 317 512 267 449 267 337 c 0
 267 226 319 161 407 161 c 0
 467 161 501 185 531 247 c 1
386 676 m 0
 571 676 722 521 722 330 c 0
 722 138 572 -14 381 -14 c 0
 190 -14 38 138 38 330 c 0
 38 525 190 676 386 676 c 0
385 634 m 0
 224 634 93 498 93 330 c 0
 93 166 224 28 381 28 c 0
 537 28 667 166 667 331 c 0
 667 494 537 634 385 634 c 0
EndSplineSet
EndChar
StartChar: ordfeminine
Encoding: 170 170 685
Width: 276
Flags: MW
LayerCount: 2
Fore
SplineSet
270 442 m 1
 270 424 l 1
 247 401 233 394 211 394 c 0
 184 394 172 406 166 438 c 1
 133 408 105 394 75 394 c 0
 34 394 4 422 4 462 c 0
 4 482 13 502 26 513 c 0
 53 536 66 543 157 576 c 1
 157 606 l 2
 157 633 144 648 121 648 c 0
 99 648 76 636 76 625 c 0
 76 621 77 616 78 611 c 0
 79 608 79 605 79 603 c 0
 79 590 64 578 48 578 c 0
 30 578 16 592 16 609 c 0
 16 648 62 676 124 676 c 0
 194 676 229 644 229 580 c 2
 229 465 l 2
 229 436 231 430 242 430 c 0
 252 430 260 434 270 442 c 1
158 474 m 2
 158 551 l 1
 88 526 67 511 67 485 c 0
 67 461 84 441 105 441 c 0
 118 441 130 444 147 452 c 0
 155 459 158 466 158 474 c 2
EndSplineSet
EndChar
StartChar: guillemotleft
Encoding: 171 171 707
Width: 500
Flags: HMW
LayerCount: 2
Fore
SplineSet
42 222 m 1
 107 281 l 2
 113 285 118 290 123 295 c 2
 126 297 l 2
 134 304 141 311 150 318 c 0
 179 344 206 371 210 377 c 0
 227 398 248 416 254 416 c 0
 259 416 264 411 264 406 c 0
 264 393 239 353 210 317 c 0
 173 273 158 255 135 224 c 1
 141 215 142 215 145 211 c 0
 222 114 263 55 263 42 c 0
 263 37 259 33 254 33 c 0
 249 33 247 34 243 39 c 0
 186 95 145 133 73 195 c 2
 42 222 l 1
234 222 m 1
 299 281 l 2
 305 285 310 290 315 295 c 2
 318 297 l 2
 326 304 333 311 342 318 c 0
 371 344 398 371 402 377 c 0
 419 398 440 416 446 416 c 0
 451 416 456 411 456 406 c 0
 456 393 431 353 402 317 c 0
 365 273 350 255 327 224 c 1
 333 215 334 215 337 211 c 0
 414 114 455 55 455 42 c 0
 455 37 451 33 446 33 c 0
 441 33 439 34 435 39 c 0
 378 95 337 133 265 195 c 2
 234 222 l 1
EndSplineSet
EndChar
StartChar: logicalnot
Encoding: 172 172 312
Width: 640
Flags: MW
LayerCount: 2
Fore
SplineSet
578 84 m 1
 523 84 l 1
 523 284 l 1
 62 284 l 1
 62 342 l 1
 578 342 l 1
 578 84 l 1
EndSplineSet
EndChar
StartChar: registered
Encoding: 174 174 708
Width: 760
Flags: MW
LayerCount: 2
Fore
SplineSet
219 505 m 1
 219 520 l 1
 396 520 l 2
 466 520 511 484 511 428 c 0
 511 380 484 345 432 324 c 1
 489 245 l 2
 517 206 541 180 565 160 c 1
 565 152 l 1
 501 152 l 2
 484 152 460 180 432 231 c 0
 421 251 417 258 380 314 c 1
 332 314 l 1
 332 215 l 2
 332 172 332 172 381 167 c 1
 381 152 l 1
 219 152 l 1
 219 167 l 1
 268 172 268 172 268 215 c 2
 268 456 l 2
 268 500 268 500 219 505 c 1
332 501 m 1
 332 333 l 1
 375 333 l 2
 419 333 444 365 444 422 c 0
 444 474 420 501 373 501 c 2
 332 501 l 1
381 676 m 0
 573 676 722 523 722 325 c 0
 722 138 569 -14 381 -14 c 0
 190 -14 38 138 38 330 c 0
 38 523 190 676 381 676 c 0
381 634 m 0
 224 634 93 496 93 330 c 0
 93 166 224 28 381 28 c 0
 535 28 667 166 667 326 c 0
 667 497 539 634 381 634 c 0
EndSplineSet
EndChar
StartChar: macron
Encoding: 175 175 688
Width: 333
Flags: MW
LayerCount: 2
Fore
SplineSet
11 601 m 1
 322 601 l 1
 322 547 l 1
 11 547 l 1
 11 601 l 1
EndSplineSet
EndChar
StartChar: degree
Encoding: 176 176 725
Width: 400
Flags: W
HStem: 390 34<171 228 171 238.5> 642 34<171.5 228>
VStem: 57 39<503.5 562.5 503.5 573> 304 39<503 562.5>
LayerCount: 2
Fore
SplineSet
200 676 m 0
 280 676 343 613 343 532 c 0
 343 452 279 390 198 390 c 0
 120 390 57 454 57 533 c 0
 57 613 120 676 200 676 c 0
200 642 m 0
 143 642 96 592 96 533 c 0
 96 474 143 424 199 424 c 0
 257 424 304 473 304 533 c 0
 304 592 256 642 200 642 c 0
EndSplineSet
EndChar
StartChar: plusminus
Encoding: 177 177 333
Width: 636
Flags: MW
HStem: 0 52<62 574 62 574> 265 56G<62 290 62 290 346 574>
VStem: 290 56<83 265 83 265 321 514>
LayerCount: 2
Fore
SplineSet
574 265 m 1
 346 265 l 1
 346 83 l 1
 290 83 l 1
 290 265 l 1
 62 265 l 1
 62 321 l 1
 290 321 l 1
 290 514 l 1
 346 514 l 1
 346 321 l 1
 574 321 l 1
 574 265 l 1
574 0 m 1
 62 0 l 1
 62 52 l 1
 574 52 l 1
 574 0 l 1
EndSplineSet
EndChar
StartChar: uni00B2
Encoding: 178 178 711
Width: 300
Flags: MW
LayerCount: 2
Fore
SplineSet
296 355 m 1
 259 270 l 1
 6 270 l 1
 6 293 l 1
 104 400 l 2
 154 454 185 507 185 537 c 0
 185 579 152 613 112 613 c 0
 75 613 48 591 26 543 c 1
 1 557 l 1
 17 603 27 622 48 641 c 0
 71 664 106 676 146 676 c 0
 224 676 277 633 277 570 c 0
 277 521 254 480 193 420 c 2
 107 335 l 1
 228 335 l 2
 255 335 264 340 279 362 c 1
 296 355 l 1
EndSplineSet
EndChar
StartChar: uni00B3
Encoding: 179 179 691
Width: 300
Flags: MW
LayerCount: 2
Fore
SplineSet
93 460 m 1
 93 489 l 1
 162 513 188 535 188 571 c 0
 188 602 166 620 130 620 c 0
 96 620 76 606 46 563 c 1
 21 581 l 1
 56 649 95 676 156 676 c 0
 216 676 264 639 264 593 c 0
 264 565 247 542 204 511 c 1
 262 488 291 450 291 398 c 0
 291 320 208 262 97 262 c 0
 45 262 14 280 14 312 c 0
 14 333 29 349 49 349 c 0
 60 349 71 344 90 330 c 0
 112 314 123 310 142 310 c 0
 183 310 210 337 210 378 c 0
 210 409 196 434 169 449 c 0
 153 458 128 465 116 463 c 2
 93 460 l 1
EndSplineSet
EndChar
StartChar: acute
Encoding: 180 180 692
Width: 333
Flags: MW
LayerCount: 2
Fore
SplineSet
133 507 m 1
 93 507 l 1
 240 655 l 2
 258 673 267 678 282 678 c 0
 304 678 317 666 317 646 c 0
 317 630 308 617 287 604 c 2
 133 507 l 1
EndSplineSet
EndChar
StartChar: mu
Encoding: 181 181 714
Width: 500
Flags: MW
LayerCount: 2
Fore
SplineSet
430 450 m 1
 430 92 l 2
 430 46 440 27 462 27 c 0
 477 27 489 34 512 55 c 1
 512 47 l 1
 479 4 456 -10 418 -10 c 0
 370 -10 347 18 345 80 c 1
 305 18 263 -10 208 -10 c 0
 157 -10 121 13 91 64 c 1
 95 27 97 17 110 -33 c 0
 123 -85 128 -113 128 -141 c 0
 128 -192 113 -218 82 -218 c 0
 53 -218 36 -192 36 -148 c 0
 36 -127 41 -83 48 -43 c 0
 58 13 60 32 60 54 c 2
 60 450 l 1
 148 450 l 1
 148 144 l 2
 148 87 180 52 232 52 c 0
 278 52 318 75 342 115 c 1
 342 450 l 1
 430 450 l 1
EndSplineSet
EndChar
StartChar: paragraph
Encoding: 182 182 334
Width: 453
Flags: MW
HStem: 640 22<172 450 238 238 238 296> 643 19<187 450>
VStem: -22 76<436.5 516.5 418 542> 172 66<-31 273 273 273 295 640 -154 640> 296 66<-77.5 -42 -42 553>
LayerCount: 2
Fore
SplineSet
238 640 m 1xb8
 238 -154 l 1
 84 -154 l 1
 84 -132 l 1
 162 -127 172 -115 172 -31 c 2
 172 273 l 1
 109 275 81 283 48 307 c 0
 1 339 -22 396 -22 477 c 0
 -22 607 40 662 187 662 c 2
 450 662 l 1xb8
 450 643 l 1x78
 373 636 362 625 362 553 c 2
 362 -42 l 2
 362 -113 374 -126 450 -132 c 1
 450 -154 l 1
 296 -154 l 1
 296 640 l 1
 238 640 l 1xb8
172 295 m 1
 172 640 l 1
 132 637 115 631 97 618 c 0
 68 597 54 552 54 481 c 0
 54 355 86 304 172 295 c 1
EndSplineSet
EndChar
StartChar: periodcentered
Encoding: 183 183 730
Width: 250
Flags: HW
LayerCount: 2
Fore
SplineSet
125 310 m 0
 155 310 181 284 181 253 c 0
 181 224 155 199 124 199 c 0
 95 199 70 224 70 253 c 0
 70 284 95 310 125 310 c 0
EndSplineSet
EndChar
StartChar: cedilla
Encoding: 184 184 716
Width: 333
Flags: MW
LayerCount: 2
Fore
SplineSet
98 -99 m 1
 139 0 l 1
 174 0 l 1
 149 -65 l 1
 159 -63 165 -62 175 -62 c 0
 229 -62 261 -88 261 -131 c 0
 261 -183 213 -215 136 -215 c 0
 104 -215 81 -211 52 -199 c 1
 66 -168 l 1
 94 -177 110 -180 131 -180 c 0
 165 -180 186 -163 186 -136 c 0
 186 -110 171 -100 133 -100 c 0
 122 -100 113 -101 105 -104 c 1
 98 -99 l 1
EndSplineSet
EndChar
StartChar: uni00B9
Encoding: 185 185 732
Width: 300
Flags: W
HStem: 656 20<177 177>
VStem: 110 81<326 330 330 583 583 594>
LayerCount: 2
Fore
SplineSet
248 294 m 1
 248 270 l 1
 57 270 l 1
 57 294 l 1
 100 297 110 303 110 326 c 2
 110 583 l 2
 110 605 108 611 102 611 c 0
 96 611 96 611 59 598 c 1
 59 621 l 1
 177 676 l 1
 191 673 l 1
 191 330 l 2
 191 304 202 297 248 294 c 1
EndSplineSet
EndChar
StartChar: ordmasculine
Encoding: 186 186 733
Width: 310
Flags: W
HStem: 394 33<147.5 183 147.5 194.5> 643 33<128.5 174>
VStem: 6 73<549.5 575.5> 231 73<500 551.5>
LayerCount: 2
Fore
SplineSet
159 676 m 0
 244 676 304 621 304 542 c 0
 304 458 238 394 151 394 c 0
 67 394 6 453 6 533 c 0
 6 618 68 676 159 676 c 0
150 643 m 0
 107 643 79 614 79 569 c 0
 79 530 88 490 104 461 c 0
 116 439 135 427 160 427 c 0
 206 427 231 458 231 514 c 0
 231 589 198 643 150 643 c 0
EndSplineSet
EndChar
StartChar: guillemotright
Encoding: 187 187 698
Width: 500
Flags: HMW
LayerCount: 2
Fore
SplineSet
458 222 m 1
 427 195 l 2
 354 132 314 95 257 39 c 0
 253 34 251 33 247 33 c 0
 241 33 237 37 237 42 c 0
 237 54 280 116 355 211 c 1
 361 218 l 1
 365 224 l 1
 343 252 334 264 290 317 c 0
 261 352 236 393 236 406 c 0
 236 411 241 416 246 416 c 0
 252 416 273 398 290 377 c 0
 292 372 321 344 351 318 c 0
 360 309 368 302 374 297 c 2
 377 295 l 2
 382 290 387 285 393 281 c 2
 458 222 l 1
266 222 m 1
 235 195 l 2
 162 132 122 95 65 39 c 0
 61 34 59 33 55 33 c 0
 49 33 45 37 45 42 c 0
 45 54 88 116 163 211 c 1
 169 218 l 1
 173 224 l 1
 151 252 142 264 98 317 c 0
 69 352 44 393 44 406 c 0
 44 411 49 416 54 416 c 0
 60 416 81 398 98 377 c 0
 100 372 129 344 159 318 c 0
 168 309 176 302 182 297 c 2
 185 295 l 2
 190 290 195 285 201 281 c 2
 266 222 l 1
EndSplineSet
EndChar
StartChar: onequarter
Encoding: 188 188 735
Width: 750
Flags: W
HStem: -14 20 90 57<458 593 458 593 413 593 663 718> 656 20<157 157 591 637 637 637>
VStem: 90 81<326 330 330 583 583 594> 593 70<0 90 0 90 147 326 326 326>
LayerCount: 2
Fore
SplineSet
718 147 m 1
 718 90 l 1
 663 90 l 1
 663 0 l 1
 593 0 l 1
 593 90 l 1
 413 90 l 1
 413 139 l 1
 616 405 l 1
 663 405 l 1
 663 147 l 1
 718 147 l 1
593 147 m 1
 593 326 l 1
 458 147 l 1
 593 147 l 1
637 676 m 1
 187 -14 l 1
 138 -14 l 1
 591 676 l 1
 637 676 l 1
228 294 m 1
 228 270 l 1
 37 270 l 1
 37 294 l 1
 80 297 90 303 90 326 c 2
 90 583 l 2
 90 605 88 611 82 611 c 0
 76 611 76 611 39 598 c 1
 39 621 l 1
 157 676 l 1
 171 673 l 1
 171 330 l 2
 171 304 182 297 228 294 c 1
EndSplineSet
EndChar
StartChar: onehalf
Encoding: 189 189 700
Width: 750
Flags: MW
LayerCount: 2
Fore
SplineSet
600 676 m 1
 150 -14 l 1
 101 -14 l 1
 554 676 l 1
 600 676 l 1
222 294 m 1
 222 270 l 1
 31 270 l 1
 31 294 l 1
 74 297 84 303 84 326 c 2
 84 583 l 2
 84 605 82 611 76 611 c 0
 70 611 70 611 33 598 c 1
 33 621 l 1
 151 676 l 1
 165 673 l 1
 165 330 l 2
 165 304 176 297 222 294 c 1
746 85 m 1
 709 0 l 1
 456 0 l 1
 456 23 l 1
 554 130 l 2
 604 184 635 237 635 267 c 0
 635 309 602 343 562 343 c 0
 525 343 498 321 476 273 c 1
 451 287 l 1
 467 333 477 352 498 371 c 0
 521 394 556 406 596 406 c 0
 674 406 727 363 727 300 c 0
 727 251 704 210 643 150 c 2
 557 65 l 1
 678 65 l 2
 705 65 714 70 729 92 c 1
 746 85 l 1
EndSplineSet
EndChar
StartChar: threequarters
Encoding: 190 190 701
Width: 750
Flags: MW
LayerCount: 2
Fore
SplineSet
718 147 m 1
 718 90 l 1
 663 90 l 1
 663 0 l 1
 593 0 l 1
 593 90 l 1
 413 90 l 1
 413 139 l 1
 616 405 l 1
 663 405 l 1
 663 147 l 1
 718 147 l 1
593 147 m 1
 593 326 l 1
 458 147 l 1
 593 147 l 1
637 676 m 1
 187 -14 l 1
 138 -14 l 1
 591 676 l 1
 637 676 l 1
94 460 m 1
 94 489 l 1
 164 513 190 535 190 571 c 0
 190 601 168 620 134 620 c 0
 97 620 78 607 46 563 c 1
 21 581 l 1
 57 649 96 676 158 676 c 0
 218 676 266 639 266 593 c 0
 266 565 249 542 205 511 c 1
 263 488 292 450 292 398 c 0
 292 320 209 262 98 262 c 0
 46 262 15 280 15 312 c 0
 15 333 30 349 50 349 c 0
 61 349 73 344 91 330 c 0
 113 314 124 310 143 310 c 0
 184 310 211 337 211 378 c 0
 211 409 197 434 170 449 c 0
 154 458 129 465 117 463 c 2
 94 460 l 1
EndSplineSet
EndChar
StartChar: questiondown
Encoding: 191 191 723
Width: 444
Flags: MW
LayerCount: 2
Fore
SplineSet
200 294 m 1
 217 294 l 1
 216 250 206 200 187 152 c 2
 159 88 l 2
 135 33 122 -22 122 -68 c 0
 122 -135 170 -188 230 -188 c 0
 278 -188 325 -158 325 -126 c 0
 325 -118 320 -109 308 -95 c 0
 293 -78 287 -66 287 -52 c 0
 287 -28 303 -11 328 -11 c 0
 359 -11 376 -33 376 -73 c 0
 376 -156 306 -218 214 -218 c 0
 160 -218 101 -195 66 -160 c 0
 43 -137 30 -101 30 -63 c 0
 30 -12 54 42 105 104 c 0
 168 178 186 213 200 294 c 1
208 468 m 0
 237 468 261 445 261 416 c 0
 261 386 236 361 207 361 c 0
 177 361 154 385 154 417 c 0
 154 447 176 468 208 468 c 0
EndSplineSet
EndChar
StartChar: Aacute
Encoding: 193 193 740
Width: 722
Flags: W
HStem: 0 20 216 41<216 447 216 461 199 447> 654 20<347 367 367 367>
LayerCount: 2
Fore
SplineSet
706 19 m 1
 706 0 l 1
 451 0 l 1
 451 19 l 1
 504 20 521 28 521 53 c 0
 521 67 514 93 502 120 c 2
 461 216 l 1
 199 216 l 1
 153 99 l 2
 148 86 145 72 145 60 c 0
 145 32 165 19 213 19 c 1
 213 0 l 1
 15 0 l 1
 15 19 l 1
 63 21 75 37 139 183 c 2
 347 674 l 1
 367 674 l 1
 616 106 l 2
 651 32 661 22 706 19 c 1
216 257 m 1
 447 257 l 1
 331 532 l 1
 216 257 l 1
323 719 m 1
 283 719 l 1
 430 867 l 2
 448 885 457 890 472 890 c 0
 494 890 507 878 507 858 c 0
 507 842 498 829 477 816 c 2
 323 719 l 1
EndSplineSet
EndChar
StartChar: Atilde
Encoding: 195 195 706
Width: 722
Flags: MW
TopAccentHorizontal: 351
LayerCount: 2
Fore
SplineSet
706 19 m 1
 706 0 l 1
 451 0 l 1
 451 19 l 1
 504 20 521 28 521 53 c 0
 521 67 514 93 502 120 c 2
 461 216 l 1
 199 216 l 1
 153 99 l 2
 148 86 145 72 145 60 c 0
 145 32 165 19 213 19 c 1
 213 0 l 1
 15 0 l 1
 15 19 l 1
 63 21 75 37 139 183 c 2
 347 674 l 1
 367 674 l 1
 616 106 l 2
 651 32 661 22 706 19 c 1
216 257 m 1
 447 257 l 1
 331 532 l 1
 216 257 l 1
497 850 m 1
 526 850 l 1
 505 774 476 744 421 744 c 0
 396 744 381 748 340 768 c 2
 317 779 l 2
 302 786 288 790 276 790 c 0
 253 790 236 775 225 744 c 1
 196 744 l 1
 211 809 247 845 297 845 c 0
 319 845 344 839 367 827 c 2
 391 815 l 2
 410 806 429 800 444 800 c 0
 467 800 480 812 497 850 c 1
EndSplineSet
EndChar
StartChar: Adieresis
Encoding: 196 196 743
Width: 722
Flags: W
HStem: 0 20 216 41<216 447 216 461 199 447> 654 20<347 367 367 367>
VStem: 15 99 214 99
LayerCount: 2
Fore
SplineSet
706 19 m 1
 706 0 l 1
 451 0 l 1
 451 19 l 1
 504 20 521 28 521 53 c 0
 521 67 514 93 502 120 c 2
 461 216 l 1
 199 216 l 1
 153 99 l 2
 148 86 145 72 145 60 c 0
 145 32 165 19 213 19 c 1
 213 0 l 1
 15 0 l 1
 15 19 l 1
 63 21 75 37 139 183 c 2
 347 674 l 1
 367 674 l 1
 616 106 l 2
 651 32 661 22 706 19 c 1
216 257 m 1
 447 257 l 1
 331 532 l 1
 216 257 l 1
254 834 m 0x18
 282 834 305 811 305 784 c 0
 305 757 282 735 254 735 c 0
 227 735 206 757 206 785 c 0
 206 811 229 834 254 834 c 0x18
453 834 m 0
 481 834 504 811 504 784 c 0
 504 757 481 735 453 735 c 0
 426 735 405 757 405 785 c 0
 405 811 428 834 453 834 c 0
EndSplineSet
EndChar
StartChar: Aring
Encoding: 197 197 708
Width: 722
Flags: MW
TopAccentHorizontal: 351
LayerCount: 2
Fore
SplineSet
706 19 m 1
 706 0 l 1
 451 0 l 1
 451 19 l 1
 504 20 521 28 521 53 c 0
 521 67 514 93 502 120 c 2
 461 216 l 1
 199 216 l 1
 153 99 l 2
 148 86 145 72 145 60 c 0
 145 32 165 19 213 19 c 1
 213 0 l 1
 15 0 l 1
 15 19 l 1
 63 21 75 37 139 183 c 2
 347 674 l 1
 367 674 l 1
 616 106 l 2
 651 32 661 22 706 19 c 1
216 257 m 1
 447 257 l 1
 331 532 l 1
 216 257 l 1
351 915 m 0
 406 915 451 870 451 815 c 0
 451 760 406 716 351 716 c 0
 295 716 252 760 252 816 c 0
 252 870 297 915 351 915 c 0
352 881 m 0
 316 881 286 852 286 816 c 0
 286 780 315 750 350 750 c 0
 387 750 417 779 417 815 c 0
 417 851 387 881 352 881 c 0
EndSplineSet
EndChar
StartChar: AE
Encoding: 198 198 745
Width: 889
Flags: W
HStem: 0 19<198 199 0 0> 0 38<566 642 642 696> 260 39<239 398 239 398 222 398> 329 37<497 608 608 639.5 497 642 497 608> 626 36<514.5 524 524 611>
VStem: 398 99<108 260 260 260 299 329 366 596>
LayerCount: 2
Fore
SplineSet
816 521 m 1x8c
 793 521 l 1
 780 612 757 626 611 626 c 2
 524 626 l 2
 505 626 497 618 497 596 c 2
 497 366 l 1
 608 366 l 2
 671 366 706 375 722 396 c 0
 732 411 736 426 740 463 c 1
 761 463 l 1
 761 229 l 1
 740 229 l 1
 735 270 731 285 720 301 c 0
 707 319 680 329 642 329 c 2
 497 329 l 1
 497 91 l 2
 497 41 501 38 566 38 c 2
 642 38 l 2
 750 38 781 58 839 168 c 1
 863 168 l 1
 819 0 l 1
 309 0 l 1x7c
 309 19 l 1
 326 21 l 2
 386 28 398 42 398 108 c 2
 398 260 l 1
 222 260 l 1
 194 207 l 2
 154 129 130 71 130 49 c 0
 130 34 155 23 198 19 c 1
 199 19 l 1xa4
 199 0 l 1
 0 0 l 1x44
 0 19 l 1
 43 25 55 36 88 97 c 2
 333 581 l 2
 339 592 342 603 342 609 c 0
 342 631 317 640 252 642 c 1
 252 662 l 1
 816 662 l 1
 816 521 l 1x8c
239 299 m 1
 398 299 l 1
 398 618 l 1
 239 299 l 1
EndSplineSet
EndChar
StartChar: Ccedilla
Encoding: 199 199 746
Width: 667
Flags: W
HStem: -215 35<287.5 315 287.5 341.5> -100 38<294.5 369> -14 44<360.5 416.5> -13 20 636 40<322 386.5 322 410.5>
VStem: 28 116<282.5 380> 353 75<-149.5 -123>
LayerCount: 2
Fore
SplineSet
336 -13 m 1x16
 316 -65 l 1
 326 -63 332 -62 342 -62 c 0
 396 -62 428 -88 428 -131 c 0
 428 -183 380 -215 303 -215 c 0
 271 -215 248 -211 219 -199 c 1
 233 -168 l 1
 261 -177 277 -180 298 -180 c 0
 332 -180 353 -163 353 -136 c 0
 353 -110 338 -100 300 -100 c 0
 289 -100 280 -101 272 -104 c 1
 265 -99 l 1
 302 -10 l 1
 135 14 28 144 28 325 c 0
 28 435 66 528 136 590 c 0
 198 645 281 676 363 676 c 0
 410 676 460 668 509 652 c 0
 524 646 539 643 548 643 c 0
 568 643 584 655 590 676 c 1
 611 676 l 1
 620 450 l 1
 597 450 l 1
 578 515 563 543 531 575 c 0
 491 615 439 636 382 636 c 0
 237 636 144 519 144 338 c 0
 144 227 175 137 230 88 c 0
 273 50 329 30 392 30 c 0
 475 30 541 60 615 131 c 1
 633 113 l 1
 573 32 473 -14 360 -14 c 0xee
 352 -14 345 -14 336 -13 c 1x16
EndSplineSet
EndChar
StartChar: Igrave
Encoding: 204 204 751
Width: 333
Flags: W
HStem: 0 19<18 315 18 18> 643 19<18 315 18 315>
VStem: 115 102<109 553>
LayerCount: 2
Fore
SplineSet
115 109 m 2
 115 553 l 2
 115 627 103 638 18 643 c 1
 18 662 l 1
 315 662 l 1
 315 643 l 1
 231 639 217 626 217 553 c 2
 217 109 l 2
 217 36 233 22 315 19 c 1
 315 0 l 1
 18 0 l 1
 18 19 l 1
 102 22 115 34 115 109 c 2
242 719 m 1
 202 719 l 1
 48 816 l 2
 30 828 19 843 19 859 c 0
 19 878 32 890 53 890 c 0
 68 890 77 885 95 867 c 2
 242 719 l 1
EndSplineSet
EndChar
StartChar: Iacute
Encoding: 205 205 737
Width: 331
Flags: MW
ItalicCorrection: 1
TopAccentHorizontal: 248
LayerCount: 2
Fore
SplineSet
115 109 m 2
 115 553 l 2
 115 627 103 638 18 643 c 1
 18 662 l 1
 315 662 l 1
 315 643 l 1
 231 639 217 626 217 553 c 2
 217 109 l 2
 217 36 233 22 315 19 c 1
 315 0 l 1
 18 0 l 1
 18 19 l 1
 102 22 115 34 115 109 c 2
133 719 m 1
 93 719 l 1
 240 867 l 2
 258 885 267 890 282 890 c 0
 304 890 317 878 317 858 c 0
 317 842 308 829 287 816 c 2
 133 719 l 1
EndSplineSet
EndChar
StartChar: Icircumflex
Encoding: 206 206 753
Width: 333
Flags: W
HStem: 0 19<18 315 18 18> 643 19<18 315 18 315>
VStem: 115 102<109 553>
LayerCount: 2
Fore
SplineSet
115 109 m 2
 115 553 l 2
 115 627 103 638 18 643 c 1
 18 662 l 1
 315 662 l 1
 315 643 l 1
 231 639 217 626 217 553 c 2
 217 109 l 2
 217 36 233 22 315 19 c 1
 315 0 l 1
 18 0 l 1
 18 19 l 1
 102 22 115 34 115 109 c 2
322 719 m 1
 288 719 l 1
 166 822 l 1
 45 719 l 1
 11 719 l 1
 135 886 l 1
 197 886 l 1
 322 719 l 1
EndSplineSet
EndChar
StartChar: Idieresis
Encoding: 207 207 739
Width: 333
Flags: MW
LayerCount: 2
Fore
SplineSet
115 109 m 2
 115 553 l 2
 115 627 103 638 18 643 c 1
 18 662 l 1
 315 662 l 1
 315 643 l 1
 231 639 217 626 217 553 c 2
 217 109 l 2
 217 36 233 22 315 19 c 1
 315 0 l 1
 18 0 l 1
 18 19 l 1
 102 22 115 34 115 109 c 2
66 834 m 0
 94 834 117 811 117 784 c 0
 117 757 94 735 66 735 c 0
 39 735 18 757 18 785 c 0
 18 811 41 834 66 834 c 0
265 834 m 0
 293 834 316 811 316 784 c 0
 316 757 293 735 265 735 c 0
 238 735 217 757 217 785 c 0
 217 811 240 834 265 834 c 0
EndSplineSet
EndChar
StartChar: Eth
Encoding: 208 208 755
Width: 722
Flags: W
HStem: 0 19<16 300 16 16> 0 37<238 300> 315 44<21 104 21 104 206 352> 625 37<236 286 286 300.5> 643 19<16 286>
VStem: 104 102<109 315 359 553 553 586> 576 109<285.5 379 285.5 381>
LayerCount: 2
Fore
SplineSet
104 315 m 1xa6
 21 315 l 1
 21 359 l 1
 104 359 l 1
 104 553 l 2
 104 627 95 636 16 643 c 1x2e
 16 662 l 1
 286 662 l 2
 423 662 532 626 600 557 c 0
 655 502 685 424 685 334 c 0
 685 237 648 148 583 89 c 0
 521 33 416 0 300 0 c 2
 16 0 l 1x56
 16 19 l 1
 92 24 104 37 104 109 c 2
 104 315 l 1xa6
352 359 m 1
 352 315 l 1
 206 315 l 1
 206 78 l 2
 206 46 218 37 258 37 c 0
 345 37 403 49 454 78 c 0
 535 125 576 209 576 327 c 0
 576 435 535 521 457 575 c 0
 409 609 345 625 256 625 c 0x76
 216 625 206 617 206 586 c 2
 206 359 l 1
 352 359 l 1
EndSplineSet
EndChar
StartChar: Ocircumflex
Encoding: 212 212 759
Width: 722
Flags: W
HStem: -14 36<336 385.5 336 453.5> 640 36<333.5 384>
VStem: 34 114<284 380 273.5 431.5> 574 114<298.5 376.5 226.5 387.5>
LayerCount: 2
Fore
SplineSet
361 676 m 0
 457 676 541 640 604 571 c 0
 659 511 688 426 688 327 c 0
 688 126 552 -14 355 -14 c 0
 267 -14 178 25 120 88 c 0
 66 146 34 237 34 331 c 0
 34 532 170 676 361 676 c 0
361 640 m 0
 306 640 257 618 218 575 c 0
 176 528 148 431 148 329 c 0
 148 218 181 117 233 71 c 0
 268 40 313 22 359 22 c 0
 412 22 457 40 492 75 c 0
 515 98 532 123 541 148 c 0
 561 200 574 269 574 328 c 0
 574 447 543 541 489 590 c 0
 453 622 407 640 361 640 c 0
517 719 m 1
 483 719 l 1
 361 822 l 1
 240 719 l 1
 206 719 l 1
 330 886 l 1
 392 886 l 1
 517 719 l 1
EndSplineSet
EndChar
StartChar: Otilde
Encoding: 213 213 760
Width: 722
Flags: W
HStem: -14 36<336 385.5 336 453.5> 640 36<333.5 384> 744 56<436.5 448.5> 790 55<272 282>
VStem: 34 114<284 380 273.5 431.5> 574 114<298.5 376.5 226.5 387.5>
LayerCount: 2
Fore
SplineSet
361 676 m 0xcc
 457 676 541 640 604 571 c 0
 659 511 688 426 688 327 c 0
 688 126 552 -14 355 -14 c 0
 267 -14 178 25 120 88 c 0
 66 146 34 237 34 331 c 0
 34 532 170 676 361 676 c 0xcc
361 640 m 0
 306 640 257 618 218 575 c 0
 176 528 148 431 148 329 c 0
 148 218 181 117 233 71 c 0
 268 40 313 22 359 22 c 0
 412 22 457 40 492 75 c 0
 515 98 532 123 541 148 c 0
 561 200 574 269 574 328 c 0
 574 447 543 541 489 590 c 0
 453 622 407 640 361 640 c 0
497 850 m 1x20
 526 850 l 1
 505 774 476 744 421 744 c 0x20
 396 744 381 748 340 768 c 2
 317 779 l 2
 302 786 288 790 276 790 c 0
 253 790 236 775 225 744 c 1
 196 744 l 1
 211 809 247 845 297 845 c 0x10
 319 845 344 839 367 827 c 2
 391 815 l 2
 410 806 429 800 444 800 c 0
 467 800 480 812 497 850 c 1x20
EndSplineSet
EndChar
StartChar: Odieresis
Encoding: 214 214 725
Width: 673
Flags: MW
ItalicCorrection: 48
TopAccentHorizontal: 361
LayerCount: 2
Fore
SplineSet
361 676 m 0
 457 676 541 640 604 571 c 0
 659 511 688 426 688 327 c 0
 688 126 552 -14 355 -14 c 0
 267 -14 178 25 120 88 c 0
 66 146 34 237 34 331 c 0
 34 532 170 676 361 676 c 0
361 640 m 0
 306 640 257 618 218 575 c 0
 176 528 148 431 148 329 c 0
 148 218 181 117 233 71 c 0
 268 40 313 22 359 22 c 0
 412 22 457 40 492 75 c 0
 515 98 532 123 541 148 c 0
 561 200 574 269 574 328 c 0
 574 447 543 541 489 590 c 0
 453 622 407 640 361 640 c 0
261 834 m 0
 289 834 312 811 312 784 c 0
 312 757 289 735 261 735 c 0
 234 735 213 757 213 785 c 0
 213 811 236 834 261 834 c 0
460 834 m 0
 488 834 511 811 511 784 c 0
 511 757 488 735 460 735 c 0
 433 735 412 757 412 785 c 0
 412 811 435 834 460 834 c 0
EndSplineSet
EndChar
StartChar: multiply
Encoding: 215 215 335
Width: 636
Flags: MW
TopAccentHorizontal: 317
LayerCount: 2
Fore
SplineSet
580 35 m 1
 540 -5 l 1
 318 218 l 1
 96 -5 l 1
 56 35 l 1
 278 257 l 1
 56 480 l 1
 96 520 l 1
 318 297 l 1
 540 520 l 1
 580 480 l 1
 357 257 l 1
 580 35 l 1
EndSplineSet
EndChar
StartChar: Oslash
Encoding: 216 216 747
Width: 671
Flags: MW
ItalicCorrection: 50
TopAccentHorizontal: 374
LayerCount: 2
Fore
SplineSet
658 734 m 1
 570 604 l 1
 611 566 628 546 646 511 c 0
 673 461 688 396 688 331 c 0
 688 128 553 -14 359 -14 c 0
 292 -14 246 -1 184 36 c 1
 105 -80 l 1
 56 -80 l 1
 151 59 l 1
 109 97 93 117 75 152 c 0
 49 202 34 267 34 330 c 0
 34 533 170 676 362 676 c 0
 428 676 473 663 537 627 c 1
 609 734 l 1
 658 734 l 1
527 540 m 1
 219 88 l 1
 262 41 303 22 361 22 c 0
 493 22 574 139 574 330 c 0
 574 419 561 475 527 540 c 1
194 123 m 1
 502 575 l 1
 458 621 416 640 361 640 c 0
 230 640 148 521 148 330 c 0
 148 242 160 187 194 123 c 1
EndSplineSet
EndChar
StartChar: Uacute
Encoding: 218 218 749
Width: 631
Flags: MW
ItalicCorrection: 90
TopAccentHorizontal: 359
LayerCount: 2
Fore
SplineSet
611 515 m 2
 611 254 l 2
 611 177 602 131 578 89 c 0
 539 21 464 -14 355 -14 c 0
 185 -14 104 68 104 241 c 2
 104 553 l 2
 104 626 93 637 14 643 c 1
 14 662 l 1
 297 662 l 1
 297 643 l 1
 217 636 206 625 206 553 c 2
 206 233 l 2
 206 170 213 133 231 101 c 0
 258 54 307 30 378 30 c 0
 453 30 517 61 544 109 c 0
 560 139 567 177 567 245 c 2
 567 515 l 2
 567 615 551 637 473 643 c 1
 473 662 l 1
 705 662 l 1
 705 643 l 1
 623 633 611 617 611 515 c 2
353 719 m 1
 313 719 l 1
 460 867 l 2
 478 885 487 890 502 890 c 0
 524 890 537 878 537 858 c 0
 537 842 528 829 507 816 c 2
 353 719 l 1
EndSplineSet
EndChar
StartChar: Ucircumflex
Encoding: 219 219 750
Width: 722
Flags: MW
LayerCount: 2
Fore
SplineSet
611 515 m 2
 611 254 l 2
 611 177 602 131 578 89 c 0
 539 21 464 -14 355 -14 c 0
 185 -14 104 68 104 241 c 2
 104 553 l 2
 104 626 93 637 14 643 c 1
 14 662 l 1
 297 662 l 1
 297 643 l 1
 217 636 206 625 206 553 c 2
 206 233 l 2
 206 170 213 133 231 101 c 0
 258 54 307 30 378 30 c 0
 453 30 517 61 544 109 c 0
 560 139 567 177 567 245 c 2
 567 515 l 2
 567 615 551 637 473 643 c 1
 473 662 l 1
 705 662 l 1
 705 643 l 1
 623 633 611 617 611 515 c 2
536 719 m 1
 502 719 l 1
 380 822 l 1
 259 719 l 1
 225 719 l 1
 349 886 l 1
 411 886 l 1
 536 719 l 1
EndSplineSet
EndChar
StartChar: Udieresis
Encoding: 220 220 766
Width: 722
Flags: W
HStem: -14 44<342.5 409.5> 643 19<14 297 14 297>
VStem: 14 99 104 102<241 553> 213 99 567 44<245 254 254 515>
LayerCount: 2
Fore
SplineSet
611 515 m 2xd4
 611 254 l 2
 611 177 602 131 578 89 c 0
 539 21 464 -14 355 -14 c 0
 185 -14 104 68 104 241 c 2
 104 553 l 2
 104 626 93 637 14 643 c 1
 14 662 l 1
 297 662 l 1
 297 643 l 1
 217 636 206 625 206 553 c 2
 206 233 l 2
 206 170 213 133 231 101 c 0
 258 54 307 30 378 30 c 0
 453 30 517 61 544 109 c 0
 560 139 567 177 567 245 c 2
 567 515 l 2
 567 615 551 637 473 643 c 1
 473 662 l 1
 705 662 l 1
 705 643 l 1
 623 633 611 617 611 515 c 2xd4
278 834 m 0x28
 306 834 329 811 329 784 c 0
 329 757 306 735 278 735 c 0
 251 735 230 757 230 785 c 0
 230 811 253 834 278 834 c 0x28
477 834 m 0
 505 834 528 811 528 784 c 0
 528 757 505 735 477 735 c 0
 450 735 429 757 429 785 c 0
 429 811 452 834 477 834 c 0
EndSplineSet
EndChar
StartChar: Yacute
Encoding: 221 221 731
Width: 585
Flags: MW
ItalicCorrection: 136
TopAccentHorizontal: 455
LayerCount: 2
Fore
SplineSet
703 662 m 1
 703 643 l 1
 652 639 626 617 565 529 c 2
 417 303 l 1
 417 109 l 2
 417 33 431 21 520 19 c 1
 520 0 l 1
 214 0 l 1
 214 19 l 1
 305 23 315 33 315 120 c 2
 315 294 l 1
 184 486 l 2
 84 627 70 641 22 643 c 1
 22 662 l 1
 302 662 l 1
 302 643 l 1
 291 642 281 642 277 642 c 0
 245 640 231 631 231 613 c 0
 231 602 237 585 248 569 c 2
 396 347 l 1
 539 573 l 2
 548 588 553 600 553 610 c 0
 553 634 536 642 484 643 c 1
 484 662 l 1
 703 662 l 1
360 719 m 1
 320 719 l 1
 467 867 l 2
 485 885 494 890 509 890 c 0
 531 890 544 878 544 858 c 0
 544 842 535 829 514 816 c 2
 360 719 l 1
EndSplineSet
EndChar
StartChar: Thorn
Encoding: 222 222 753
Width: 556
Flags: MW
LayerCount: 2
Fore
SplineSet
293 662 m 1
 293 643 l 1
 211 636 201 623 202 532 c 1
 282 532 l 2
 442 532 542 462 542 351 c 0
 542 285 505 224 446 192 c 0
 403 168 349 158 271 158 c 0
 247 158 229 159 202 161 c 1
 202 109 l 2
 202 36 217 22 296 19 c 1
 296 0 l 1
 16 0 l 1
 16 19 l 1
 92 26 100 36 100 120 c 2
 100 553 l 2
 100 625 90 635 16 643 c 1
 16 662 l 1
 293 662 l 1
202 461 m 2
 202 201 l 1
 225 199 239 198 259 198 c 0
 374 198 433 248 433 345 c 0
 433 448 372 494 234 494 c 0
 209 494 202 487 202 461 c 2
EndSplineSet
EndChar
StartChar: germandbls
Encoding: 223 223 733
Width: 493
Flags: MW
ItalicCorrection: 6
TopAccentHorizontal: 252
LayerCount: 2
Fore
SplineSet
73 84 m 2
 73 454 l 2
 73 524 82 569 103 606 c 0
 132 657 183 683 251 683 c 0
 355 683 421 623 421 531 c 0
 421 459 391 426 284 377 c 1
 345 365 374 354 406 326 c 0
 446 292 468 242 468 186 c 0
 468 77 389 -9 289 -9 c 0
 232 -9 192 21 192 64 c 0
 192 91 211 112 237 112 c 0
 259 112 277 95 279 72 c 2
 281 50 l 2
 283 28 291 20 310 20 c 0
 352 20 374 65 374 150 c 0
 374 285 330 354 242 357 c 0
 219 358 210 363 210 374 c 0
 210 383 218 387 239 389 c 0
 304 396 334 437 334 517 c 0
 334 604 300 656 243 656 c 0
 191 656 157 614 157 549 c 2
 157 0 l 1
 12 0 l 1
 12 15 l 1
 62 19 73 31 73 84 c 2
EndSplineSet
EndChar
StartChar: aacute
Encoding: 225 225 756
Width: 444
Flags: MW
TopAccentHorizontal: 304
LayerCount: 2
Fore
SplineSet
442 66 m 1
 442 40 l 1
 407 2 386 -10 352 -10 c 0
 311 -10 293 11 288 63 c 1
 227 11 186 -10 142 -10 c 0
 81 -10 37 34 37 97 c 0
 37 130 51 164 73 184 c 0
 116 222 133 230 287 292 c 1
 287 353 l 2
 287 407 260 436 211 436 c 0
 171 436 139 414 139 387 c 0
 139 380 140 372 142 363 c 0
 143 356 144 351 144 347 c 0
 144 325 123 305 99 305 c 0
 76 305 56 325 56 348 c 0
 56 411 130 460 224 460 c 0
 283 460 326 441 348 405 c 0
 363 381 368 352 368 300 c 2
 368 105 l 2
 368 61 375 47 398 47 c 0
 413 47 425 52 442 66 c 1
287 123 m 2
 287 268 l 1
 166 224 125 188 125 129 c 2
 125 125 l 2
 125 82 153 48 188 48 c 0
 209 48 237 57 261 71 c 0
 282 83 287 92 287 123 c 2
189 507 m 1
 149 507 l 1
 296 655 l 2
 314 673 323 678 338 678 c 0
 360 678 373 666 373 646 c 0
 373 630 364 617 343 604 c 2
 189 507 l 1
EndSplineSet
EndChar
StartChar: acircumflex
Encoding: 226 226 772
Width: 444
Flags: W
HStem: -10 57<331.5 405.5> -10 58<111.5 198.5> 436 24<191 235.5> 654 20<191 253 253 253>
VStem: 56 83<336.5 400.5> 287 81<123 268 268 268 292 300>
LayerCount: 2
Fore
SplineSet
442 66 m 1xac
 442 40 l 1
 407 2 386 -10 352 -10 c 0x8c
 311 -10 293 11 288 63 c 1
 227 11 186 -10 142 -10 c 0x4c
 81 -10 37 34 37 97 c 0
 37 130 51 164 73 184 c 0
 116 222 133 230 287 292 c 1
 287 353 l 2
 287 407 260 436 211 436 c 0
 171 436 139 414 139 387 c 0
 139 380 140 372 142 363 c 0
 143 356 144 351 144 347 c 0
 144 325 123 305 99 305 c 0
 76 305 56 325 56 348 c 0
 56 411 130 460 224 460 c 0
 283 460 326 441 348 405 c 0
 363 381 368 352 368 300 c 2
 368 105 l 2
 368 61 375 47 398 47 c 0
 413 47 425 52 442 66 c 1xac
287 123 m 2x4c
 287 268 l 1
 166 224 125 188 125 129 c 2
 125 125 l 2
 125 82 153 48 188 48 c 0
 209 48 237 57 261 71 c 0
 282 83 287 92 287 123 c 2x4c
378 507 m 1x10
 344 507 l 1
 222 610 l 1
 101 507 l 1
 67 507 l 1
 191 674 l 1
 253 674 l 1
 378 507 l 1x10
EndSplineSet
EndChar
StartChar: atilde
Encoding: 227 227 773
Width: 444
Flags: W
HStem: -10 57<331.5 405.5> -10 58<111.5 198.5> 436 24<191 235.5> 532 56<297.5 309.5> 578 55<133 143>
VStem: 56 83<336.5 400.5> 287 81<123 268 268 268 292 300>
LayerCount: 2
Fore
SplineSet
442 66 m 1xa6
 442 40 l 1
 407 2 386 -10 352 -10 c 0x86
 311 -10 293 11 288 63 c 1
 227 11 186 -10 142 -10 c 0x46
 81 -10 37 34 37 97 c 0
 37 130 51 164 73 184 c 0
 116 222 133 230 287 292 c 1
 287 353 l 2
 287 407 260 436 211 436 c 0
 171 436 139 414 139 387 c 0
 139 380 140 372 142 363 c 0
 143 356 144 351 144 347 c 0
 144 325 123 305 99 305 c 0
 76 305 56 325 56 348 c 0
 56 411 130 460 224 460 c 0
 283 460 326 441 348 405 c 0
 363 381 368 352 368 300 c 2
 368 105 l 2
 368 61 375 47 398 47 c 0
 413 47 425 52 442 66 c 1xa6
287 123 m 2x46
 287 268 l 1
 166 224 125 188 125 129 c 2
 125 125 l 2
 125 82 153 48 188 48 c 0
 209 48 237 57 261 71 c 0
 282 83 287 92 287 123 c 2x46
358 638 m 1x10
 387 638 l 1
 366 562 337 532 282 532 c 0x10
 257 532 242 536 201 556 c 2
 178 567 l 2
 163 574 149 578 137 578 c 0
 114 578 97 563 86 532 c 1
 57 532 l 1
 72 597 108 633 158 633 c 0x08
 180 633 205 627 228 615 c 2
 252 603 l 2
 271 594 290 588 305 588 c 0
 328 588 341 600 358 638 c 1x10
EndSplineSet
EndChar
StartChar: aring
Encoding: 229 229 775
Width: 444
Flags: W
HStem: -10 57<331.5 405.5> -10 58<111.5 198.5> 436 24<191 235.5> 512 34 677 34
VStem: 37 34 56 83<336.5 400.5> 202 34 287 81<123 268 268 268 292 300>
LayerCount: 2
Fore
SplineSet
442 66 m 1xa280
 442 40 l 1
 407 2 386 -10 352 -10 c 0x8280
 311 -10 293 11 288 63 c 1
 227 11 186 -10 142 -10 c 0x4280
 81 -10 37 34 37 97 c 0
 37 130 51 164 73 184 c 0
 116 222 133 230 287 292 c 1
 287 353 l 2
 287 407 260 436 211 436 c 0
 171 436 139 414 139 387 c 0
 139 380 140 372 142 363 c 0
 143 356 144 351 144 347 c 0
 144 325 123 305 99 305 c 0
 76 305 56 325 56 348 c 0
 56 411 130 460 224 460 c 0
 283 460 326 441 348 405 c 0
 363 381 368 352 368 300 c 2
 368 105 l 2
 368 61 375 47 398 47 c 0
 413 47 425 52 442 66 c 1xa280
287 123 m 2x4280
 287 268 l 1
 166 224 125 188 125 129 c 2
 125 125 l 2
 125 82 153 48 188 48 c 0
 209 48 237 57 261 71 c 0
 282 83 287 92 287 123 c 2x4280
221 721 m 0x1d
 276 721 321 676 321 621 c 0
 321 566 276 522 221 522 c 0
 165 522 122 566 122 622 c 0
 122 676 167 721 221 721 c 0x1d
222 687 m 0
 186 687 156 658 156 622 c 0
 156 586 185 556 220 556 c 0
 257 556 287 585 287 621 c 0
 287 657 257 687 222 687 c 0
EndSplineSet
EndChar
StartChar: ae
Encoding: 230 230 761
Width: 667
Flags: MW
LayerCount: 2
Fore
SplineSet
620 154 m 1
 632 149 l 1
 605 90 586 62 559 38 c 0
 523 6 482 -10 435 -10 c 0
 378 -10 340 11 306 63 c 1
 238 7 204 -10 154 -10 c 0
 86 -10 38 35 38 100 c 0
 38 160 80 201 187 245 c 2
 273 281 l 1
 275 344 l 2
 276 367 271 398 263 413 c 0
 256 427 237 436 213 436 c 0
 171 436 140 413 145 386 c 0
 146 383 146 380 146 380 c 1
 146 369 l 1
 147 352 l 2
 148 323 132 304 104 304 c 0
 77 304 60 323 60 352 c 0
 60 414 129 460 220 460 c 0
 269 460 299 448 337 415 c 1
 382 449 410 460 456 460 c 0
 557 460 605 406 616 277 c 1
 354 277 l 1
 355 178 360 146 381 107 c 0
 398 77 435 57 476 57 c 0
 533 57 572 84 620 154 c 1
274 201 m 2
 274 253 l 1
 153 209 125 185 125 125 c 0
 125 77 155 38 192 38 c 0
 229 38 294 70 294 88 c 0
 294 89 294 90 293 91 c 0
 280 128 274 165 274 201 c 2
355 307 m 1
 521 307 l 1
 519 394 496 431 442 431 c 0
 385 431 360 395 355 307 c 1
EndSplineSet
EndChar
StartChar: ccedilla
Encoding: 231 231 741
Width: 436
Flags: MW
ItalicCorrection: 7
TopAccentHorizontal: 242
LayerCount: 2
Fore
SplineSet
226 -10 m 1
 205 -65 l 1
 215 -63 221 -62 231 -62 c 0
 285 -62 317 -88 317 -131 c 0
 317 -183 269 -215 192 -215 c 0
 160 -215 137 -211 108 -199 c 1
 122 -168 l 1
 149 -177 166 -180 187 -180 c 0
 221 -180 242 -163 242 -136 c 0
 242 -110 227 -100 189 -100 c 0
 178 -100 169 -101 161 -104 c 1
 154 -99 l 1
 192 -8 l 1
 91 5 25 93 25 212 c 0
 25 292 53 360 103 404 c 0
 144 440 195 460 244 460 c 0
 328 460 398 413 398 357 c 0
 398 334 376 315 351 315 c 0
 329 315 311 332 303 361 c 2
 297 383 l 2
 287 420 274 431 238 431 c 0
 157 431 102 360 102 257 c 0
 102 142 166 62 257 62 c 0
 314 62 350 86 398 156 c 1
 412 147 l 1
 360 42 307 -3 226 -10 c 1
EndSplineSet
EndChar
StartChar: egrave
Encoding: 232 232 763
Width: 433
Flags: MW
ItalicCorrection: 10
TopAccentHorizontal: 138
LayerCount: 2
Fore
SplineSet
408 164 m 1
 424 157 l 1
 382 49 307 -10 212 -10 c 0
 97 -10 25 76 25 214 c 0
 25 296 52 367 99 408 c 0
 137 442 184 460 234 460 c 0
 286 460 332 439 362 403 c 0
 387 371 397 342 405 277 c 1
 97 277 l 1
 99 216 106 183 124 145 c 0
 153 88 196 59 253 59 c 0
 317 59 360 88 408 164 c 1
99 309 m 1
 303 309 l 1
 290 396 266 424 205 424 c 0
 144 424 110 387 99 309 c 1
297 507 m 1
 257 507 l 1
 103 604 l 2
 85 616 74 631 74 647 c 0
 74 666 87 678 108 678 c 0
 123 678 132 673 150 655 c 2
 297 507 l 1
EndSplineSet
EndChar
StartChar: eacute
Encoding: 233 233 764
Width: 444
Flags: MW
LayerCount: 2
Fore
SplineSet
408 164 m 1
 424 157 l 1
 382 49 307 -10 212 -10 c 0
 97 -10 25 76 25 214 c 0
 25 296 52 367 99 408 c 0
 137 442 184 460 234 460 c 0
 286 460 332 439 362 403 c 0
 387 371 397 342 405 277 c 1
 97 277 l 1
 99 216 106 183 124 145 c 0
 153 88 196 59 253 59 c 0
 317 59 360 88 408 164 c 1
99 309 m 1
 303 309 l 1
 290 396 266 424 205 424 c 0
 144 424 110 387 99 309 c 1
189 507 m 1
 149 507 l 1
 296 655 l 2
 314 673 323 678 338 678 c 0
 360 678 373 666 373 646 c 0
 373 630 364 617 343 604 c 2
 189 507 l 1
EndSplineSet
EndChar
StartChar: ecircumflex
Encoding: 234 234 765
Width: 444
Flags: MW
LayerCount: 2
Fore
SplineSet
408 164 m 1
 424 157 l 1
 382 49 307 -10 212 -10 c 0
 97 -10 25 76 25 214 c 0
 25 296 52 367 99 408 c 0
 137 442 184 460 234 460 c 0
 286 460 332 439 362 403 c 0
 387 371 397 342 405 277 c 1
 97 277 l 1
 99 216 106 183 124 145 c 0
 153 88 196 59 253 59 c 0
 317 59 360 88 408 164 c 1
99 309 m 1
 303 309 l 1
 290 396 266 424 205 424 c 0
 144 424 110 387 99 309 c 1
378 507 m 1
 344 507 l 1
 222 610 l 1
 101 507 l 1
 67 507 l 1
 191 674 l 1
 253 674 l 1
 378 507 l 1
EndSplineSet
EndChar
StartChar: edieresis
Encoding: 235 235 766
Width: 444
Flags: MW
LayerCount: 2
Fore
SplineSet
408 164 m 1
 424 157 l 1
 382 49 307 -10 212 -10 c 0
 97 -10 25 76 25 214 c 0
 25 296 52 367 99 408 c 0
 137 442 184 460 234 460 c 0
 286 460 332 439 362 403 c 0
 387 371 397 342 405 277 c 1
 97 277 l 1
 99 216 106 183 124 145 c 0
 153 88 196 59 253 59 c 0
 317 59 360 88 408 164 c 1
99 309 m 1
 303 309 l 1
 290 396 266 424 205 424 c 0
 144 424 110 387 99 309 c 1
121 622 m 0
 149 622 172 599 172 572 c 0
 172 545 149 523 121 523 c 0
 94 523 73 545 73 573 c 0
 73 599 96 622 121 622 c 0
320 622 m 0
 348 622 371 599 371 572 c 0
 371 545 348 523 320 523 c 0
 293 523 272 545 272 573 c 0
 272 599 295 622 320 622 c 0
EndSplineSet
EndChar
StartChar: igrave
Encoding: 236 236 767
Width: 278
Flags: MW
LayerCount: 2
Fore
SplineSet
175 460 m 1
 179 457 l 1
 179 102 l 2
 179 30 187 20 253 15 c 1
 253 0 l 1
 16 0 l 1
 16 15 l 1
 85 19 95 30 95 102 c 2
 95 334 l 2
 95 378 86 394 62 394 c 0
 53 394 40 393 28 391 c 2
 20 390 l 1
 20 405 l 1
 175 460 l 1
215 507 m 1
 175 507 l 1
 21 604 l 2
 3 616 -8 631 -8 647 c 0
 -8 666 5 678 26 678 c 0
 41 678 50 673 68 655 c 2
 215 507 l 1
EndSplineSet
EndChar
StartChar: iacute
Encoding: 237 237 768
Width: 278
Flags: MW
LayerCount: 2
Fore
SplineSet
175 460 m 1
 179 457 l 1
 179 102 l 2
 179 30 187 20 253 15 c 1
 253 0 l 1
 16 0 l 1
 16 15 l 1
 85 19 95 30 95 102 c 2
 95 334 l 2
 95 378 86 394 62 394 c 0
 53 394 40 393 28 391 c 2
 20 390 l 1
 20 405 l 1
 175 460 l 1
106 507 m 1
 66 507 l 1
 213 655 l 2
 231 673 240 678 255 678 c 0
 277 678 290 666 290 646 c 0
 290 630 281 617 260 604 c 2
 106 507 l 1
EndSplineSet
EndChar
StartChar: icircumflex
Encoding: 238 238 748
Width: 238
Flags: MW
ItalicCorrection: 39
TopAccentHorizontal: 139
LayerCount: 2
Fore
SplineSet
175 460 m 1
 179 457 l 1
 179 102 l 2
 179 30 187 20 253 15 c 1
 253 0 l 1
 16 0 l 1
 16 15 l 1
 85 19 95 30 95 102 c 2
 95 334 l 2
 95 378 86 394 62 394 c 0
 53 394 40 393 28 391 c 2
 20 390 l 1
 20 405 l 1
 175 460 l 1
295 507 m 1
 261 507 l 1
 139 610 l 1
 18 507 l 1
 -16 507 l 1
 108 674 l 1
 170 674 l 1
 295 507 l 1
EndSplineSet
EndChar
StartChar: idieresis
Encoding: 239 239 785
Width: 278
Flags: W
HStem: 0 15<16 253 16 16> 390 15<20 20> 440 20<175 175> 523 99<46.5 73 46.5 73 205.5 232>
VStem: 11 99<559 585.5 558.5 586> 95 84<102 334 334 356> 170 99<559 585.5 558.5 586>
LayerCount: 2
Fore
SplineSet
59 622 m 0xfa
 87 622 110 599 110 572 c 0
 110 545 87 523 59 523 c 0
 32 523 11 545 11 573 c 0
 11 599 34 622 59 622 c 0xfa
218 622 m 0
 246 622 269 599 269 572 c 0
 269 545 246 523 218 523 c 0
 191 523 170 545 170 573 c 0
 170 599 193 622 218 622 c 0
175 460 m 1xf4
 179 457 l 1
 179 102 l 2
 179 30 187 20 253 15 c 1
 253 0 l 1
 16 0 l 1
 16 15 l 1
 85 19 95 30 95 102 c 2
 95 334 l 2
 95 378 86 394 62 394 c 0
 53 394 40 393 28 391 c 2
 20 390 l 1
 20 405 l 1
 175 460 l 1xf4
EndSplineSet
EndChar
StartChar: eth
Encoding: 240 240 336
Width: 470
Flags: MW
ItalicCorrection: 29
TopAccentHorizontal: 268
LayerCount: 2
Fore
SplineSet
270 575 m 1
 147 510 l 1
 114 540 l 1
 235 604 l 1
 188 637 154 651 102 660 c 1
 144 683 l 1
 210 677 245 666 296 636 c 1
 391 686 l 1
 424 656 l 1
 333 608 l 1
 384 559 402 535 424 490 c 0
 455 427 471 355 471 285 c 0
 471 189 437 95 382 43 c 0
 345 8 300 -10 247 -10 c 0
 123 -10 29 90 29 223 c 0
 29 357 121 460 241 460 c 0
 289 460 316 447 367 400 c 1
 352 474 329 515 270 575 c 1
237 432 m 0
 167 432 119 369 119 276 c 0
 119 206 135 136 163 83 c 0
 185 42 222 18 261 18 c 0
 337 18 381 86 381 201 c 0
 381 337 322 432 237 432 c 0
EndSplineSet
EndChar
StartChar: ntilde
Encoding: 241 241 786
Width: 500
Flags: W
HStem: 0 15<18 230 18 18> 405 55<283 291.5> 532 56<325.5 337.5> 578 55<161 171>
VStem: 80 84<90 338 338 348> 340 84<99 308 308 310>
LayerCount: 2
Fore
SplineSet
16 398 m 1xcc
 16 415 l 1
 71 431 105 442 154 460 c 1
 161 458 l 1
 161 379 l 1
 229 443 260 460 306 460 c 0
 380 460 424 404 424 310 c 2
 424 81 l 2
 424 32 436 20 485 15 c 1
 485 0 l 1
 277 0 l 1
 277 15 l 1
 327 19 340 36 340 99 c 2
 340 308 l 2
 340 374 316 405 267 405 c 0
 234 405 212 393 164 348 c 1
 164 67 l 2
 164 31 179 19 230 15 c 1
 230 0 l 1
 18 0 l 1
 18 15 l 1
 69 19 80 33 80 90 c 2
 80 338 l 2
 80 387 71 402 43 402 c 0
 32 402 22 401 16 398 c 1xcc
386 638 m 1x20
 415 638 l 1
 394 562 365 532 310 532 c 0x20
 285 532 270 536 229 556 c 2
 206 567 l 2
 191 574 177 578 165 578 c 0
 142 578 125 563 114 532 c 1
 85 532 l 1
 100 597 136 633 186 633 c 0x10
 208 633 233 627 256 615 c 2
 280 603 l 2
 299 594 318 588 333 588 c 0
 356 588 369 600 386 638 c 1x20
EndSplineSet
EndChar
StartChar: ograve
Encoding: 242 242 751
Width: 480
Flags: MW
ItalicCorrection: 19
TopAccentHorizontal: 170
LayerCount: 2
Fore
SplineSet
250 460 m 0
 378 460 470 365 470 234 c 0
 470 96 374 -10 248 -10 c 0
 122 -10 29 91 29 226 c 0
 29 364 120 460 250 460 c 0
237 432 m 0
 166 432 119 370 119 275 c 0
 119 204 135 134 163 82 c 0
 184 42 221 18 260 18 c 0
 335 18 380 86 380 199 c 0
 380 336 321 432 237 432 c 0
325 507 m 1
 285 507 l 1
 131 604 l 2
 113 616 102 631 102 647 c 0
 102 666 115 678 136 678 c 0
 151 678 160 673 178 655 c 2
 325 507 l 1
EndSplineSet
EndChar
StartChar: oacute
Encoding: 243 243 788
Width: 500
Flags: W
HStem: -10 28<240.5 297.5 240.5 311> 432 28<201.5 279> 658 20<358.5 377>
VStem: 29 90<239.5 295> 380 90<165 267.5>
LayerCount: 2
Fore
SplineSet
250 460 m 0
 378 460 470 365 470 234 c 0
 470 96 374 -10 248 -10 c 0
 122 -10 29 91 29 226 c 0
 29 364 120 460 250 460 c 0
237 432 m 0
 166 432 119 370 119 275 c 0
 119 204 135 134 163 82 c 0
 184 42 221 18 260 18 c 0
 335 18 380 86 380 199 c 0
 380 336 321 432 237 432 c 0
217 507 m 1x20
 177 507 l 1
 324 655 l 2
 342 673 351 678 366 678 c 0
 388 678 401 666 401 646 c 0
 401 630 392 617 371 604 c 2
 217 507 l 1x20
EndSplineSet
EndChar
StartChar: ocircumflex
Encoding: 244 244 753
Width: 480
Flags: MW
ItalicCorrection: 19
TopAccentHorizontal: 250
LayerCount: 2
Fore
SplineSet
250 460 m 0
 378 460 470 365 470 234 c 0
 470 96 374 -10 248 -10 c 0
 122 -10 29 91 29 226 c 0
 29 364 120 460 250 460 c 0
237 432 m 0
 166 432 119 370 119 275 c 0
 119 204 135 134 163 82 c 0
 184 42 221 18 260 18 c 0
 335 18 380 86 380 199 c 0
 380 336 321 432 237 432 c 0
406 507 m 1
 372 507 l 1
 250 610 l 1
 129 507 l 1
 95 507 l 1
 219 674 l 1
 281 674 l 1
 406 507 l 1
EndSplineSet
EndChar
StartChar: otilde
Encoding: 245 245 754
Width: 480
Flags: MW
ItalicCorrection: 19
TopAccentHorizontal: 248
LayerCount: 2
Fore
SplineSet
250 460 m 0
 378 460 470 365 470 234 c 0
 470 96 374 -10 248 -10 c 0
 122 -10 29 91 29 226 c 0
 29 364 120 460 250 460 c 0
237 432 m 0
 166 432 119 370 119 275 c 0
 119 204 135 134 163 82 c 0
 184 42 221 18 260 18 c 0
 335 18 380 86 380 199 c 0
 380 336 321 432 237 432 c 0
386 638 m 1
 415 638 l 1
 394 562 365 532 310 532 c 0
 285 532 270 536 229 556 c 2
 206 567 l 2
 191 574 177 578 165 578 c 0
 142 578 125 563 114 532 c 1
 85 532 l 1
 100 597 136 633 186 633 c 0
 208 633 233 627 256 615 c 2
 280 603 l 2
 299 594 318 588 333 588 c 0
 356 588 369 600 386 638 c 1
EndSplineSet
EndChar
StartChar: odieresis
Encoding: 246 246 776
Width: 480
Flags: MW
ItalicCorrection: 19
TopAccentHorizontal: 250
LayerCount: 2
Fore
SplineSet
250 460 m 0
 378 460 470 365 470 234 c 0
 470 96 374 -10 248 -10 c 0
 122 -10 29 91 29 226 c 0
 29 364 120 460 250 460 c 0
237 432 m 0
 166 432 119 370 119 275 c 0
 119 204 135 134 163 82 c 0
 184 42 221 18 260 18 c 0
 335 18 380 86 380 199 c 0
 380 336 321 432 237 432 c 0
149 622 m 0
 177 622 200 599 200 572 c 0
 200 545 177 523 149 523 c 0
 122 523 101 545 101 573 c 0
 101 599 124 622 149 622 c 0
348 622 m 0
 376 622 399 599 399 572 c 0
 399 545 376 523 348 523 c 0
 321 523 300 545 300 573 c 0
 300 599 323 622 348 622 c 0
EndSplineSet
EndChar
StartChar: divide
Encoding: 247 247 337
Width: 636
Flags: MW
HStem: 0 110<310 340> 229 56<62 574 62 574> 404 110<310 340>
VStem: 271 110G<40 70 444 474>
LayerCount: 2
Fore
SplineSet
381 459 m 0
 381 429 355 404 325 404 c 0
 295 404 271 429 271 459 c 0
 271 489 295 514 325 514 c 0
 355 514 381 489 381 459 c 0
574 229 m 1
 62 229 l 1
 62 285 l 1
 574 285 l 1
 574 229 l 1
381 55 m 0
 381 25 355 0 325 0 c 0
 295 0 271 25 271 55 c 0
 271 85 295 110 325 110 c 0
 355 110 381 85 381 55 c 0
EndSplineSet
EndChar
StartChar: oslash
Encoding: 248 248 756
Width: 481
Flags: MW
ItalicCorrection: 18
TopAccentHorizontal: 250
LayerCount: 2
Fore
SplineSet
437 551 m 1
 372 426 l 1
 403 404 416 392 432 368 c 0
 456 330 470 282 470 234 c 0
 470 95 374 -10 247 -10 c 0
 212 -10 189 -5 154 11 c 1
 89 -112 l 1
 52 -112 l 1
 125 28 l 1
 91 55 78 70 62 97 c 0
 41 135 29 181 29 227 c 0
 29 363 120 460 249 460 c 0
 282 460 306 455 341 442 c 1
 398 551 l 1
 437 551 l 1
340 366 m 1
 179 60 l 1
 204 30 227 18 261 18 c 0
 336 18 380 87 380 203 c 0
 380 267 369 311 340 366 c 1
158 92 m 1
 317 396 l 1
 290 422 268 432 237 432 c 0
 166 432 119 370 119 276 c 0
 119 207 131 149 158 92 c 1
EndSplineSet
EndChar
StartChar: ugrave
Encoding: 249 249 778
Width: 500
Flags: MW
LayerCount: 2
Fore
SplineSet
479 50 m 1
 479 36 l 1
 428 22 392 11 342 -9 c 1
 338 -7 l 1
 338 76 l 1
 295 33 l 2
 268 6 229 -10 192 -10 c 0
 119 -10 71 41 71 120 c 2
 71 372 l 2
 71 418 57 433 9 436 c 1
 9 450 l 1
 155 450 l 1
 155 124 l 2
 155 82 187 48 226 48 c 0
 256 48 287 60 314 82 c 0
 328 93 333 107 333 135 c 2
 333 370 l 2
 333 420 321 430 259 433 c 1
 259 450 l 1
 417 450 l 1
 417 107 l 2
 417 61 428 50 474 50 c 2
 479 50 l 1
304 507 m 1
 264 507 l 1
 110 604 l 2
 92 616 81 631 81 647 c 0
 81 666 94 678 115 678 c 0
 130 678 139 673 157 655 c 2
 304 507 l 1
EndSplineSet
EndChar
StartChar: uacute
Encoding: 250 250 779
Width: 500
Flags: MW
TopAccentHorizontal: 327
LayerCount: 2
Fore
SplineSet
479 50 m 1
 479 36 l 1
 428 22 392 11 342 -9 c 1
 338 -7 l 1
 338 76 l 1
 295 33 l 2
 268 6 229 -10 192 -10 c 0
 119 -10 71 41 71 120 c 2
 71 372 l 2
 71 418 57 433 9 436 c 1
 9 450 l 1
 155 450 l 1
 155 124 l 2
 155 82 187 48 226 48 c 0
 256 48 287 60 314 82 c 0
 328 93 333 107 333 135 c 2
 333 370 l 2
 333 420 321 430 259 433 c 1
 259 450 l 1
 417 450 l 1
 417 107 l 2
 417 61 428 50 474 50 c 2
 479 50 l 1
217 507 m 1
 177 507 l 1
 324 655 l 2
 342 673 351 678 366 678 c 0
 388 678 401 666 401 646 c 0
 401 630 392 617 371 604 c 2
 217 507 l 1
EndSplineSet
EndChar
StartChar: ucircumflex
Encoding: 251 251 795
Width: 500
Flags: W
HStem: -10 58<206.5 210.5> -9 20 433 17<259 259> 436 14<9 155> 654 20<206 268 268 268>
VStem: 71 84<120 124 124 372 372 395> 333 84<135 370 370 395>
LayerCount: 2
Fore
SplineSet
479 50 m 1x16
 479 36 l 1
 428 22 392 11 342 -9 c 1x46
 338 -7 l 1
 338 76 l 1
 295 33 l 2
 268 6 229 -10 192 -10 c 0
 119 -10 71 41 71 120 c 2
 71 372 l 2
 71 418 57 433 9 436 c 1
 9 450 l 1
 155 450 l 1x96
 155 124 l 2
 155 82 187 48 226 48 c 0
 256 48 287 60 314 82 c 0
 328 93 333 107 333 135 c 2
 333 370 l 2
 333 420 321 430 259 433 c 1xa6
 259 450 l 1
 417 450 l 1
 417 107 l 2
 417 61 428 50 474 50 c 2
 479 50 l 1x16
393 507 m 1x08
 359 507 l 1
 237 610 l 1
 116 507 l 1
 82 507 l 1
 206 674 l 1
 268 674 l 1
 393 507 l 1x08
EndSplineSet
EndChar
StartChar: udieresis
Encoding: 252 252 781
Width: 500
Flags: MW
TopAccentHorizontal: 230
LayerCount: 2
Fore
SplineSet
479 50 m 1
 479 36 l 1
 428 22 392 11 342 -9 c 1
 338 -7 l 1
 338 76 l 1
 295 33 l 2
 268 6 229 -10 192 -10 c 0
 119 -10 71 41 71 120 c 2
 71 372 l 2
 71 418 57 433 9 436 c 1
 9 450 l 1
 155 450 l 1
 155 124 l 2
 155 82 187 48 226 48 c 0
 256 48 287 60 314 82 c 0
 328 93 333 107 333 135 c 2
 333 370 l 2
 333 420 321 430 259 433 c 1
 259 450 l 1
 417 450 l 1
 417 107 l 2
 417 61 428 50 474 50 c 2
 479 50 l 1
130 622 m 0
 158 622 181 599 181 572 c 0
 181 545 158 523 130 523 c 0
 103 523 82 545 82 573 c 0
 82 599 105 622 130 622 c 0
329 622 m 0
 357 622 380 599 380 572 c 0
 380 545 357 523 329 523 c 0
 302 523 281 545 281 573 c 0
 281 599 304 622 329 622 c 0
EndSplineSet
EndChar
StartChar: yacute
Encoding: 253 253 761
Width: 384
Flags: MW
ItalicCorrection: 115
TopAccentHorizontal: 334
LayerCount: 2
Fore
SplineSet
475 450 m 1
 475 435 l 1
 451 432 440 422 427 390 c 2
 273 -18 l 2
 219 -162 171 -218 104 -218 c 0
 62 -218 30 -193 30 -160 c 0
 30 -136 50 -116 73 -116 c 0
 90 -116 107 -120 126 -127 c 0
 136 -132 145 -134 151 -134 c 0
 165 -134 187 -115 201 -89 c 0
 218 -59 241 4 241 19 c 0
 241 34 225 70 197 120 c 2
 182 150 l 1
 179 158 l 1
 65 404 l 2
 57 421 40 432 14 436 c 1
 14 450 l 1
 220 450 l 1
 220 435 l 1
 177 433 162 426 162 408 c 0
 162 397 166 384 172 370 c 2
 287 117 l 1
 384 393 l 2
 387 400 388 406 388 410 c 0
 388 426 372 435 340 435 c 1
 340 450 l 1
 475 450 l 1
217 507 m 1
 177 507 l 1
 324 655 l 2
 342 673 351 678 366 678 c 0
 388 678 401 666 401 646 c 0
 401 630 392 617 371 604 c 2
 217 507 l 1
EndSplineSet
EndChar
StartChar: thorn
Encoding: 254 254 762
Width: 478
Flags: MW
ItalicCorrection: 21
TopAccentHorizontal: 108
LayerCount: 2
Fore
SplineSet
9 623 m 1
 9 639 l 1
 78 658 106 666 154 683 c 1
 159 680 l 1
 159 382 l 1
 204 436 248 460 303 460 c 0
 400 460 470 371 470 247 c 0
 470 102 378 -10 260 -10 c 0
 218 -10 194 0 159 33 c 1
 159 -124 l 2
 159 -187 172 -198 247 -199 c 1
 247 -217 l 1
 5 -217 l 1
 5 -199 l 1
 64 -194 75 -183 75 -131 c 2
 75 573 l 2
 75 615 66 624 26 624 c 0
 19 624 15 624 9 623 c 1
159 334 m 2
 159 88 l 2
 159 58 216 22 263 22 c 0
 335 22 384 97 384 208 c 0
 384 324 335 400 261 400 c 0
 215 400 159 364 159 334 c 2
EndSplineSet
EndChar
StartChar: ydieresis
Encoding: 255 255 799
Width: 500
Flags: W
HStem: -218 84<83 158> 430 20<14 220 220 220 340 475 475 475>
VStem: 14 99 213 99
LayerCount: 2
Fore
SplineSet
475 450 m 1
 475 435 l 1
 451 432 440 422 427 390 c 2
 273 -18 l 2
 219 -162 171 -218 104 -218 c 0
 62 -218 30 -193 30 -160 c 0
 30 -136 50 -116 73 -116 c 0
 90 -116 107 -120 126 -127 c 0
 136 -132 145 -134 151 -134 c 0
 165 -134 187 -115 201 -89 c 0
 218 -59 241 4 241 19 c 0
 241 34 225 70 197 120 c 2
 182 150 l 1
 179 158 l 1
 65 404 l 2
 57 421 40 432 14 436 c 1
 14 450 l 1
 220 450 l 1
 220 435 l 1
 177 433 162 426 162 408 c 0
 162 397 166 384 172 370 c 2
 287 117 l 1
 384 393 l 2
 387 400 388 406 388 410 c 0
 388 426 372 435 340 435 c 1
 340 450 l 1
 475 450 l 1
165 622 m 0x30
 193 622 216 599 216 572 c 0
 216 545 193 523 165 523 c 0
 138 523 117 545 117 573 c 0
 117 599 140 622 165 622 c 0x30
364 622 m 0
 392 622 415 599 415 572 c 0
 415 545 392 523 364 523 c 0
 337 523 316 545 316 573 c 0
 316 599 339 622 364 622 c 0
EndSplineSet
EndChar
StartChar: Amacron
Encoding: 256 256 800
Width: 722
Flags: W
HStem: 0 20 216 41<216 447 216 461 199 447> 654 20<347 367 367 367> 759 54<206 517 206 517>
LayerCount: 2
Fore
SplineSet
706 19 m 1
 706 0 l 1
 451 0 l 1
 451 19 l 1
 504 20 521 28 521 53 c 0
 521 67 514 93 502 120 c 2
 461 216 l 1
 199 216 l 1
 153 99 l 2
 148 86 145 72 145 60 c 0
 145 32 165 19 213 19 c 1
 213 0 l 1
 15 0 l 1
 15 19 l 1
 63 21 75 37 139 183 c 2
 347 674 l 1
 367 674 l 1
 616 106 l 2
 651 32 661 22 706 19 c 1
216 257 m 1
 447 257 l 1
 331 532 l 1
 216 257 l 1
206 813 m 1x10
 517 813 l 1
 517 759 l 1
 206 759 l 1
 206 813 l 1x10
EndSplineSet
EndChar
StartChar: Aogonek
Encoding: 260 260 768
Width: 722
Flags: MW
TopAccentHorizontal: 358
LayerCount: 2
Fore
SplineSet
706 19 m 1
 706 0 l 1
 684 -5 657 -44 657 -69 c 0
 657 -92 673 -109 695 -109 c 0
 716 -109 735 -99 766 -73 c 1
 786 -89 l 1
 749 -142 715 -165 674 -165 c 0
 633 -165 601 -132 601 -89 c 0
 601 -56 616 -32 655 0 c 1
 451 0 l 1
 451 19 l 1
 504 20 521 28 521 53 c 0
 521 67 514 93 502 120 c 2
 461 216 l 1
 199 216 l 1
 153 99 l 2
 148 86 145 72 145 60 c 0
 145 32 165 19 213 19 c 1
 213 0 l 1
 15 0 l 1
 15 19 l 1
 63 21 75 37 139 183 c 2
 347 674 l 1
 367 674 l 1
 616 106 l 2
 651 32 661 22 706 19 c 1
216 257 m 1
 447 257 l 1
 331 532 l 1
 216 257 l 1
EndSplineSet
EndChar
StartChar: Ccaron
Encoding: 268 268 772
Width: 667
Flags: MW
TopAccentHorizontal: 363
LayerCount: 2
Fore
SplineSet
620 450 m 1
 597 450 l 1
 578 515 563 543 531 575 c 0
 491 615 439 636 382 636 c 0
 237 636 144 519 144 338 c 0
 144 227 175 137 230 88 c 0
 273 50 329 30 392 30 c 0
 475 30 541 60 615 131 c 1
 633 113 l 1
 572 32 473 -14 360 -14 c 0
 261 -14 169 24 109 89 c 0
 58 146 28 232 28 325 c 0
 28 435 66 528 136 590 c 0
 198 645 281 676 363 676 c 0
 410 676 460 668 509 652 c 0
 524 646 539 643 548 643 c 0
 568 643 584 655 590 676 c 1
 611 676 l 1
 620 450 l 1
519 886 m 1
 394 719 l 1
 332 719 l 1
 208 886 l 1
 242 886 l 1
 363 783 l 1
 485 886 l 1
 519 886 l 1
EndSplineSet
EndChar
StartChar: Dcaron
Encoding: 270 270 795
Width: 663
Flags: MW
ItalicCorrection: 58
TopAccentHorizontal: 361
LayerCount: 2
Fore
SplineSet
104 109 m 2
 104 553 l 2
 104 627 95 636 16 643 c 1
 16 662 l 1
 286 662 l 2
 423 662 532 626 600 557 c 0
 655 502 685 424 685 334 c 0
 685 237 648 148 583 89 c 0
 521 33 416 0 300 0 c 2
 16 0 l 1
 16 19 l 1
 92 24 104 37 104 109 c 2
206 586 m 2
 206 78 l 2
 206 46 218 37 258 37 c 0
 345 37 403 49 454 78 c 0
 535 125 576 209 576 327 c 0
 576 435 535 521 457 575 c 0
 409 609 344 625 258 625 c 0
 217 625 206 617 206 586 c 2
517 886 m 1
 392 719 l 1
 330 719 l 1
 206 886 l 1
 240 886 l 1
 361 783 l 1
 483 886 l 1
 517 886 l 1
EndSplineSet
EndChar
StartChar: dcaron
Encoding: 271 271 811
Width: 600
Flags: W
HStem: -10 52<209.5 240> 42 16<491 491> 432 28<200 255 177.5 264.5> 572 104<501.5 550>
VStem: 27 86<183.5 276> 127 39 340 84<-7 114 57 114 102 114 114 332 332 358.5 417 573 573 593.5>
LayerCount: 2
Fore
SplineSet
344 -10 m 1xea
 340 -7 l 1
 340 57 l 1
 306 10 268 -10 212 -10 c 0
 102 -10 27 77 27 205 c 0
 27 347 120 460 235 460 c 0
 275 460 302 449 340 417 c 1
 340 573 l 2
 340 614 331 624 294 624 c 0
 286 624 280 624 272 623 c 1
 272 639 l 1
 336 656 371 666 419 683 c 1
 424 681 l 1
 424 114 l 2
 424 68 432 57 468 57 c 0
 471 57 473 57 491 58 c 1
 491 42 l 1
 344 -10 l 1xea
340 102 m 2
 340 332 l 2
 340 385 291 432 238 432 c 0
 162 432 113 358 113 245 c 0
 113 122 168 42 251 42 c 0
 280 42 305 52 323 72 c 0
 333 83 340 95 340 102 c 2
487 433 m 1x14
 478 452 l 1
 532 489 560 525 560 558 c 0
 560 566 554 572 546 572 c 0
 545 572 545 572 538 570 c 0
 532 569 525 568 519 568 c 0
 483 568 460 587 460 619 c 0
 460 653 484 676 519 676 c 0
 564 676 599 637 599 587 c 0
 599 527 554 466 487 433 c 1x14
EndSplineSet
EndChar
StartChar: Dcroat
Encoding: 272 272 797
Width: 663
Flags: MW
ItalicCorrection: 58
TopAccentHorizontal: 304
LayerCount: 2
Fore
SplineSet
104 315 m 1
 21 315 l 1
 21 359 l 1
 104 359 l 1
 104 553 l 2
 104 627 95 636 16 643 c 1
 16 662 l 1
 286 662 l 2
 423 662 532 626 600 557 c 0
 655 502 685 424 685 334 c 0
 685 237 648 148 583 89 c 0
 521 33 416 0 300 0 c 2
 16 0 l 1
 16 19 l 1
 92 24 104 37 104 109 c 2
 104 315 l 1
352 359 m 1
 352 315 l 1
 206 315 l 1
 206 78 l 2
 206 46 218 37 258 37 c 0
 345 37 403 49 454 78 c 0
 535 125 576 209 576 327 c 0
 576 435 535 521 457 575 c 0
 409 609 345 625 256 625 c 0
 216 625 206 617 206 586 c 2
 206 359 l 1
 352 359 l 1
EndSplineSet
EndChar
StartChar: Emacron
Encoding: 274 274 814
Width: 611
Flags: W
HStem: 0 19<12 552 12 12> 0 37<306 333 333 404.5> 327 41<201 355 201 355> 624 38<220.5 234 234 369> 643 19<12 543> 759 54<150 461 150 461>
VStem: 99 102<109 327 368 553 553 588>
LayerCount: 2
Fore
SplineSet
597 169 m 1x72
 552 0 l 1
 12 0 l 1x42
 12 19 l 1
 85 24 99 39 99 109 c 2
 99 553 l 2
 99 623 86 637 12 643 c 1x8a
 12 662 l 1
 543 662 l 1
 546 519 l 1
 521 519 l 1
 504 609 482 624 369 624 c 2
 234 624 l 2
 207 624 201 618 201 590 c 2
 201 368 l 1
 355 368 l 2
 402 368 430 376 443 393 c 0
 454 407 458 422 465 463 c 1
 488 463 l 1
 488 231 l 1
 465 231 l 1
 452 314 437 327 355 327 c 2
 201 327 l 1
 201 80 l 2
 201 63 203 52 208 49 c 0
 215 42 257 37 306 37 c 2
 333 37 l 2
 476 37 519 61 569 169 c 1
 597 169 l 1x72
150 813 m 1x04
 461 813 l 1
 461 759 l 1
 150 759 l 1
 150 813 l 1x04
EndSplineSet
EndChar
StartChar: emacron
Encoding: 275 275 800
Width: 433
Flags: MW
ItalicCorrection: 10
TopAccentHorizontal: 222
LayerCount: 2
Fore
SplineSet
408 164 m 1
 424 157 l 1
 382 49 307 -10 212 -10 c 0
 97 -10 25 76 25 214 c 0
 25 296 52 367 99 408 c 0
 137 442 184 460 234 460 c 0
 286 460 332 439 362 403 c 0
 387 371 397 342 405 277 c 1
 97 277 l 1
 99 216 106 183 124 145 c 0
 153 88 196 59 253 59 c 0
 317 59 360 88 408 164 c 1
99 309 m 1
 303 309 l 1
 290 396 266 424 205 424 c 0
 144 424 110 387 99 309 c 1
67 601 m 1
 378 601 l 1
 378 547 l 1
 67 547 l 1
 67 601 l 1
EndSplineSet
EndChar
StartChar: edotaccent
Encoding: 279 279 817
Width: 444
Flags: W
HStem: -10 69<224.5 259.5> 277 32<99 303 99 405 97 303> 424 36<209 235.5>
LayerCount: 2
Fore
SplineSet
408 164 m 1
 424 157 l 1
 382 49 307 -10 212 -10 c 0
 97 -10 25 76 25 214 c 0
 25 296 52 367 99 408 c 0
 137 442 184 460 234 460 c 0
 286 460 332 439 362 403 c 0
 387 371 397 342 405 277 c 1
 97 277 l 1
 99 216 106 183 124 145 c 0
 153 88 196 59 253 59 c 0
 317 59 360 88 408 164 c 1
99 309 m 1
 303 309 l 1
 290 396 266 424 205 424 c 0
 144 424 110 387 99 309 c 1
221 622 m 0
 249 622 272 599 272 572 c 0
 272 545 249 523 221 523 c 0
 194 523 173 545 173 573 c 0
 173 599 196 622 221 622 c 0
EndSplineSet
EndChar
StartChar: Eogonek
Encoding: 280 280 782
Width: 611
Flags: MW
TopAccentHorizontal: 304
LayerCount: 2
Fore
SplineSet
552 0 m 1
 546 0 l 2
 516 0 482 -37 482 -69 c 0
 482 -92 498 -109 520 -109 c 0
 541 -109 560 -99 591 -73 c 1
 611 -89 l 1
 574 -142 540 -165 499 -165 c 0
 458 -165 426 -132 426 -89 c 0
 426 -56 441 -31 480 0 c 1
 12 0 l 1
 12 19 l 1
 85 24 99 38 99 109 c 2
 99 553 l 2
 99 623 86 637 12 643 c 1
 12 662 l 1
 543 662 l 1
 546 519 l 1
 521 519 l 1
 504 609 482 624 369 624 c 2
 234 624 l 2
 207 624 201 618 201 590 c 2
 201 368 l 1
 355 368 l 2
 402 368 430 376 443 393 c 0
 454 407 458 422 465 463 c 1
 488 463 l 1
 488 231 l 1
 465 231 l 1
 452 314 437 327 355 327 c 2
 201 327 l 1
 201 80 l 2
 201 63 203 52 208 49 c 0
 215 42 257 37 306 37 c 2
 333 37 l 2
 476 37 519 61 569 169 c 1
 597 169 l 1
 552 0 l 1
EndSplineSet
EndChar
StartChar: eogonek
Encoding: 281 281 804
Width: 444
Flags: MW
LayerCount: 2
Fore
SplineSet
408 164 m 1
 424 157 l 1
 408 113 386 81 330 22 c 0
 288 -22 275 -44 275 -70 c 0
 275 -93 291 -109 313 -109 c 0
 335 -109 354 -99 385 -73 c 1
 405 -89 l 1
 367 -142 334 -165 292 -165 c 0
 251 -165 219 -132 219 -89 c 0
 219 -57 234 -31 272 -1 c 1
 249 -8 234 -10 213 -10 c 0
 97 -10 25 76 25 214 c 0
 25 296 52 367 99 408 c 0
 137 442 184 460 234 460 c 0
 286 460 332 439 362 403 c 0
 387 371 397 342 405 277 c 1
 97 277 l 1
 99 216 106 183 124 145 c 0
 153 88 196 59 253 59 c 0
 317 59 360 88 408 164 c 1
99 309 m 1
 303 309 l 1
 290 396 266 424 205 424 c 0
 144 424 110 387 99 309 c 1
EndSplineSet
EndChar
StartChar: Gbreve
Encoding: 286 286 807
Width: 722
Flags: MW
LayerCount: 2
Fore
SplineSet
709 354 m 1
 709 336 l 1
 651 331 639 318 639 259 c 2
 639 56 l 1
 599 21 474 -14 388 -14 c 0
 278 -14 182 24 115 93 c 0
 59 152 32 227 32 325 c 0
 32 529 175 676 375 676 c 0
 420 676 466 668 511 653 c 0
 529 646 545 643 555 643 c 0
 576 643 594 657 600 676 c 1
 622 676 l 1
 630 465 l 1
 607 465 l 1
 582 526 566 553 536 581 c 0
 497 617 448 636 392 636 c 0
 324 636 262 609 218 560 c 0
 174 511 146 420 146 326 c 0
 146 140 246 26 409 26 c 0
 481 26 542 53 542 85 c 2
 542 247 l 2
 542 290 536 313 521 322 c 0
 509 330 497 333 454 336 c 1
 454 354 l 1
 709 354 l 1
473 876 m 1
 502 876 l 1
 490 770 444 719 360 719 c 0
 313 719 273 738 248 773 c 0
 229 801 222 825 221 876 c 1
 250 876 l 1
 264 809 298 779 362 779 c 0
 420 779 445 800 473 876 c 1
EndSplineSet
EndChar
StartChar: gbreve
Encoding: 287 287 808
Width: 492
Flags: MW
ItalicCorrection: 7
TopAccentHorizontal: 248
LayerCount: 2
Fore
SplineSet
470 388 m 1
 387 388 l 1
 401 356 406 333 406 304 c 0
 406 254 391 219 358 191 c 0
 327 164 287 149 250 149 c 0
 244 149 231 150 212 152 c 0
 209 152 202 153 193 154 c 0
 166 146 133 111 133 91 c 0
 133 75 158 66 211 64 c 2
 340 58 l 2
 414 55 461 13 461 -49 c 0
 461 -87 444 -119 406 -150 c 0
 354 -192 276 -218 201 -218 c 0
 106 -218 28 -174 28 -121 c 0
 28 -84 55 -51 126 1 c 1
 85 21 73 33 73 54 c 0
 73 74 86 94 119 123 c 0
 125 128 143 145 162 163 c 1
 96 196 69 234 69 297 c 0
 69 388 143 460 236 460 c 0
 262 460 289 455 316 445 c 2
 338 437 l 2
 358 430 373 427 393 427 c 2
 470 427 l 1
 470 388 l 1
147 -2 m 1
 105 -52 98 -65 98 -88 c 0
 98 -132 156 -161 244 -161 c 0
 357 -161 433 -122 433 -64 c 0
 433 -28 400 -15 309 -15 c 0
 260 -15 180 -9 147 -2 c 1
152 338 m 2
 152 335 l 2
 152 239 194 174 254 174 c 0
 300 174 329 209 329 265 c 0
 329 304 317 350 299 385 c 0
 283 415 257 432 226 432 c 0
 180 432 152 397 152 338 c 2
362 664 m 1
 391 664 l 1
 379 558 333 507 249 507 c 0
 202 507 162 526 137 561 c 0
 118 589 111 613 110 664 c 1
 139 664 l 1
 153 597 187 567 251 567 c 0
 309 567 334 588 362 664 c 1
EndSplineSet
EndChar
StartChar: uni0122
Encoding: 290 290 788
Width: 659
Flags: MW
ItalicCorrection: 62
TopAccentHorizontal: 402
LayerCount: 2
Fore
SplineSet
709 354 m 1
 709 336 l 1
 651 331 639 318 639 259 c 2
 639 56 l 1
 599 21 474 -14 388 -14 c 0
 278 -14 182 24 115 93 c 0
 59 152 32 227 32 325 c 0
 32 529 175 676 375 676 c 0
 420 676 466 668 511 653 c 0
 529 646 545 643 555 643 c 0
 576 643 594 657 600 676 c 1
 622 676 l 1
 630 465 l 1
 607 465 l 1
 582 526 566 553 536 581 c 0
 497 617 448 636 392 636 c 0
 324 636 262 609 218 560 c 0
 174 511 146 420 146 326 c 0
 146 140 246 26 409 26 c 0
 481 26 542 53 542 85 c 2
 542 247 l 2
 542 290 536 313 521 322 c 0
 509 330 497 333 454 336 c 1
 454 354 l 1
 709 354 l 1
318 -281 m 1
 309 -262 l 1
 363 -225 391 -188 391 -156 c 0
 391 -148 385 -142 377 -142 c 0
 376 -142 376 -142 369 -144 c 0
 363 -145 356 -146 350 -146 c 0
 314 -146 291 -127 291 -95 c 0
 291 -61 315 -38 350 -38 c 0
 395 -38 430 -77 430 -127 c 0
 430 -187 385 -248 318 -281 c 1
EndSplineSet
EndChar
StartChar: uni0123
Encoding: 291 291 825
Width: 500
Flags: W
HStem: -218 57<200 238.5> -2 20 149 25<247 268.5> 388 39<393 470 393 470 387 470> 432 28<203 241.5> 493 104<229 277.5>
VStem: 28 39 28 70<-110 -102.5> 329 77<279 284.5> 433 28<-68 -46>
LayerCount: 2
Fore
SplineSet
470 388 m 1xf9c0
 387 388 l 1
 401 356 406 333 406 304 c 0
 406 254 391 219 358 191 c 0
 327 164 287 149 250 149 c 0
 244 149 231 150 212 152 c 0
 209 152 202 153 193 154 c 0
 166 146 133 111 133 91 c 0
 133 75 158 66 211 64 c 2
 340 58 l 2
 414 55 461 13 461 -49 c 0
 461 -87 444 -119 406 -150 c 0
 354 -192 276 -218 201 -218 c 0
 106 -218 28 -174 28 -121 c 0
 28 -84 55 -51 126 1 c 1
 85 21 73 33 73 54 c 0
 73 74 86 94 119 123 c 0
 125 128 143 145 162 163 c 1
 96 196 69 234 69 297 c 0
 69 388 143 460 236 460 c 0
 262 460 289 455 316 445 c 2
 338 437 l 2
 358 430 373 427 393 427 c 2
 470 427 l 1
 470 388 l 1xf9c0
147 -2 m 1
 105 -52 98 -65 98 -88 c 0
 98 -132 156 -161 244 -161 c 0
 357 -161 433 -122 433 -64 c 0
 433 -28 400 -15 309 -15 c 0
 260 -15 180 -9 147 -2 c 1
152 338 m 2
 152 335 l 2
 152 239 194 174 254 174 c 0
 300 174 329 209 329 265 c 0
 329 304 317 350 299 385 c 0
 283 415 257 432 226 432 c 0
 180 432 152 397 152 338 c 2
292 736 m 1x06
 301 717 l 1
 247 680 219 644 219 611 c 0
 219 603 225 597 233 597 c 0
 234 597 234 597 241 599 c 0
 247 600 254 601 260 601 c 0
 296 601 319 582 319 550 c 0
 319 516 295 493 260 493 c 0
 215 493 180 532 180 582 c 0
 180 642 225 703 292 736 c 1x06
EndSplineSet
EndChar
StartChar: hbar
Encoding: 295 295 826
Width: 500
Flags: W
HStem: -9 47<317 393> 390 51G<335 349>
VStem: 288 79G<23.5 67.5> 370 78G<356.5 371.5>
LayerCount: 2
Fore
SplineSet
478 105 m 1
 442 53 399 -9 333 -9 c 0
 301 -9 288 10 288 37 c 0
 288 63 370 350 370 363 c 0
 370 380 357 390 341 390 c 0
 291 390 206 277 187 249 c 0
 141 181 127 126 94 0 c 1
 19 0 l 1
 134 438 l 1
 37 403 l 1
 24 436 l 1
 145 479 l 1
 145 479 178 600 178 615 c 0
 178 627 170 642 137 641 c 2
 111 640 l 1
 111 656 l 1
 163 662 216 671 268 683 c 1
 273 678 l 1
 227 509 l 1
 391 567 l 1
 404 534 l 1
 216 467 l 1
 155 239 l 1
 157 237 l 1
 188 287 290 441 380 441 c 0
 402 441 448 434 448 369 c 0
 448 334 367 78 367 57 c 0
 367 45 375 38 383 38 c 0
 403 38 427 69 465 117 c 1
 478 105 l 1
EndSplineSet
EndChar
StartChar: Imacron
Encoding: 298 298 827
Width: 333
Flags: W
HStem: 0 19<18 315 18 18> 643 19<18 315 18 315> 759 54<11 322 11 322>
VStem: 115 102<109 553>
LayerCount: 2
Fore
SplineSet
115 109 m 2
 115 553 l 2
 115 627 103 638 18 643 c 1
 18 662 l 1
 315 662 l 1
 315 643 l 1
 231 639 217 626 217 553 c 2
 217 109 l 2
 217 36 233 22 315 19 c 1
 315 0 l 1
 18 0 l 1
 18 19 l 1
 102 22 115 34 115 109 c 2
11 813 m 1
 322 813 l 1
 322 759 l 1
 11 759 l 1
 11 813 l 1
EndSplineSet
EndChar
StartChar: imacron
Encoding: 299 299 792
Width: 241
Flags: MW
ItalicCorrection: 36
TopAccentHorizontal: 138
LayerCount: 2
Fore
SplineSet
175 460 m 1
 179 457 l 1
 179 102 l 2
 179 30 187 20 253 15 c 1
 253 0 l 1
 16 0 l 1
 16 15 l 1
 85 19 95 30 95 102 c 2
 95 334 l 2
 95 378 86 394 62 394 c 0
 53 394 40 393 28 391 c 2
 20 390 l 1
 20 405 l 1
 175 460 l 1
-16 601 m 1
 292 601 l 1
 292 547 l 1
 -16 547 l 1
 -16 601 l 1
EndSplineSet
EndChar
StartChar: Iogonek
Encoding: 302 302 829
Width: 333
Flags: W
HStem: -165 56<295 305.5> 643 19<18 315 18 315>
VStem: 115 102<109 553> 212 56<-81 -72.5>
LayerCount: 2
Fore
SplineSet
315 19 m 1xe0
 315 0 l 1
 310 -1 307 -4 296 -13 c 0
 278 -32 268 -51 268 -70 c 0
 268 -92 284 -109 306 -109 c 0
 327 -109 346 -99 377 -73 c 1
 397 -89 l 1
 360 -142 326 -165 285 -165 c 0
 244 -165 212 -132 212 -89 c 0xd0
 212 -56 227 -31 266 0 c 1
 18 0 l 1
 18 19 l 1
 102 22 115 34 115 109 c 2
 115 553 l 2
 115 627 103 638 18 643 c 1
 18 662 l 1
 315 662 l 1
 315 643 l 1
 231 639 217 626 217 553 c 2
 217 109 l 2
 217 36 233 22 315 19 c 1xe0
EndSplineSet
EndChar
StartChar: iogonek
Encoding: 303 303 794
Width: 278
Flags: MW
TopAccentHorizontal: 128
LayerCount: 2
Fore
SplineSet
179 457 m 1
 179 102 l 2
 179 30 187 20 253 15 c 1
 253 0 l 1
 220 0 l 2
 182 0 149 -33 149 -70 c 0
 149 -92 165 -109 187 -109 c 0
 208 -109 227 -99 258 -73 c 1
 278 -89 l 1
 241 -142 207 -165 166 -165 c 0
 125 -165 93 -132 93 -89 c 0
 93 -56 108 -31 147 0 c 1
 16 0 l 1
 16 15 l 1
 85 19 95 30 95 102 c 2
 95 334 l 2
 95 378 86 394 62 394 c 0
 53 394 40 393 28 391 c 2
 20 390 l 1
 20 405 l 1
 175 460 l 1
 179 457 l 1
128 683 m 0
 157 683 180 660 180 632 c 0
 180 603 157 581 128 581 c 0
 100 581 78 604 78 632 c 0
 78 660 101 683 128 683 c 0
EndSplineSet
EndChar
StartChar: Idotaccent
Encoding: 304 304 816
Width: 333
Flags: MW
TopAccentHorizontal: 166
LayerCount: 2
Fore
SplineSet
115 109 m 2
 115 553 l 2
 115 627 103 638 18 643 c 1
 18 662 l 1
 315 662 l 1
 315 643 l 1
 231 639 217 626 217 553 c 2
 217 109 l 2
 217 36 233 22 315 19 c 1
 315 0 l 1
 18 0 l 1
 18 19 l 1
 102 22 115 34 115 109 c 2
166 834 m 0
 194 834 217 811 217 784 c 0
 217 757 194 735 166 735 c 0
 139 735 118 757 118 785 c 0
 118 811 141 834 166 834 c 0
EndSplineSet
EndChar
StartChar: dotlessi
Encoding: 305 305 817
Width: 278
Flags: MW
LayerCount: 2
Fore
SplineSet
175 460 m 1
 179 457 l 1
 179 102 l 2
 179 30 187 20 253 15 c 1
 253 0 l 1
 16 0 l 1
 16 15 l 1
 85 19 95 30 95 102 c 2
 95 334 l 2
 95 378 86 394 62 394 c 0
 53 394 40 393 28 391 c 2
 20 390 l 1
 20 405 l 1
 175 460 l 1
EndSplineSet
EndChar
StartChar: uni0136
Encoding: 310 310 818
Width: 722
Flags: MW
TopAccentHorizontal: 349
LayerCount: 2
Fore
SplineSet
413 643 m 1
 413 662 l 1
 675 662 l 1
 675 643 l 1
 607 638 591 630 523 565 c 2
 333 377 l 1
 566 127 l 2
 657 30 671 20 723 19 c 1
 723 0 l 1
 418 0 l 1
 418 19 l 1
 430 20 441 20 446 20 c 0
 474 21 488 28 488 42 c 0
 488 66 434 137 358 212 c 2
 252 317 l 1
 226 296 l 1
 226 109 l 2
 226 36 238 24 316 19 c 1
 316 0 l 1
 34 0 l 1
 34 19 l 1
 113 24 124 37 124 120 c 2
 124 553 l 2
 124 624 112 637 34 643 c 1
 34 662 l 1
 318 662 l 1
 318 643 l 1
 237 637 226 626 226 553 c 2
 226 348 l 1
 403 509 l 2
 458 560 481 590 481 612 c 0
 481 632 469 640 439 642 c 0
 435 642 425 642 413 643 c 1
318 -281 m 1
 309 -262 l 1
 363 -225 391 -188 391 -156 c 0
 391 -148 385 -142 377 -142 c 0
 376 -142 376 -142 369 -144 c 0
 363 -145 356 -146 350 -146 c 0
 314 -146 291 -127 291 -95 c 0
 291 -61 315 -38 350 -38 c 0
 395 -38 430 -77 430 -127 c 0
 430 -187 385 -248 318 -281 c 1
EndSplineSet
EndChar
StartChar: uni0137
Encoding: 311 311 798
Width: 500
Flags: MW
TopAccentHorizontal: 112
LayerCount: 2
Fore
SplineSet
7 623 m 1
 7 639 l 1
 37 647 l 2
 95 663 124 671 162 683 c 1
 166 681 l 1
 166 261 l 1
 303 383 l 2
 317 395 326 409 326 417 c 0
 326 431 315 435 276 436 c 1
 276 450 l 1
 480 450 l 1
 480 435 l 1
 472 435 l 2
 455 435 441 433 426 429 c 0
 397 421 335 375 264 309 c 2
 235 282 l 1
 388 88 l 2
 430 37 461 18 505 15 c 1
 505 0 l 1
 287 0 l 1
 287 15 l 1
 306 15 l 2
 318 15 327 21 327 30 c 0
 327 35 324 41 316 51 c 0
 313 54 311 57 309 60 c 2
 306 64 l 1
 166 251 l 1
 166 67 l 2
 166 32 181 18 221 16 c 2
 241 15 l 1
 241 0 l 1
 7 0 l 1
 7 15 l 1
 79 27 82 30 82 82 c 2
 82 564 l 2
 82 612 72 625 39 625 c 0
 29 625 20 624 7 623 c 1
207 -281 m 1
 198 -262 l 1
 252 -225 280 -188 280 -156 c 0
 280 -148 274 -142 266 -142 c 0
 265 -142 265 -142 258 -144 c 0
 252 -145 245 -146 239 -146 c 0
 203 -146 180 -127 180 -95 c 0
 180 -61 204 -38 239 -38 c 0
 284 -38 319 -77 319 -127 c 0
 319 -187 274 -248 207 -281 c 1
EndSplineSet
EndChar
StartChar: Lacute
Encoding: 313 313 820
Width: 611
Flags: MW
LayerCount: 2
Fore
SplineSet
573 174 m 1
 598 174 l 1
 550 0 l 1
 12 0 l 1
 12 19 l 1
 85 24 99 39 99 109 c 2
 99 553 l 2
 99 623 86 637 12 643 c 1
 12 662 l 1
 294 662 l 1
 294 643 l 1
 215 638 201 624 201 553 c 2
 201 80 l 2
 201 45 214 39 287 39 c 2
 354 39 l 2
 437 39 492 57 527 96 c 0
 542 113 556 136 573 174 c 1
272 719 m 1
 232 719 l 1
 379 867 l 2
 397 885 406 890 421 890 c 0
 443 890 456 878 456 858 c 0
 456 842 447 829 426 816 c 2
 272 719 l 1
EndSplineSet
EndChar
StartChar: lacute
Encoding: 314 314 800
Width: 245
Flags: MW
ItalicCorrection: 32
TopAccentHorizontal: 231
LayerCount: 2
Fore
SplineSet
19 623 m 1
 19 639 l 1
 88 656 126 666 178 683 c 1
 182 681 l 1
 182 84 l 2
 182 29 194 19 257 15 c 1
 257 0 l 1
 21 0 l 1
 21 15 l 1
 84 20 98 33 98 87 c 2
 98 564 l 2
 98 611 88 625 56 625 c 0
 48 625 36 624 25 623 c 2
 19 623 l 1
106 719 m 1
 66 719 l 1
 213 867 l 2
 231 885 240 890 255 890 c 0
 277 890 290 878 290 858 c 0
 290 842 281 829 260 816 c 2
 106 719 l 1
EndSplineSet
EndChar
StartChar: uni013B
Encoding: 315 315 837
Width: 611
Flags: W
HStem: -142 104<277.5 326> 0 19<12 550 12 12> 0 39<287 354 354 395.5> 643 19<12 294 12 294>
VStem: 99 102<109 553> 112 39
LayerCount: 2
Fore
SplineSet
573 174 m 1x38
 598 174 l 1
 550 0 l 1
 12 0 l 1x28
 12 19 l 1x48
 85 24 99 39 99 109 c 2
 99 553 l 2
 99 623 86 637 12 643 c 1
 12 662 l 1
 294 662 l 1
 294 643 l 1
 215 638 201 624 201 553 c 2
 201 80 l 2
 201 45 214 39 287 39 c 2
 354 39 l 2
 437 39 492 57 527 96 c 0
 542 113 556 136 573 174 c 1x38
263 -281 m 1x84
 254 -262 l 1
 308 -225 336 -188 336 -156 c 0
 336 -148 330 -142 322 -142 c 0
 321 -142 321 -142 314 -144 c 0
 308 -145 301 -146 295 -146 c 0
 259 -146 236 -127 236 -95 c 0
 236 -61 260 -38 295 -38 c 0
 340 -38 375 -77 375 -127 c 0
 375 -187 330 -248 263 -281 c 1x84
EndSplineSet
EndChar
StartChar: uni013C
Encoding: 316 316 838
Width: 278
Flags: W
HStem: -142 104<110.5 159> 0 15<21 257 21 21>
VStem: 98 84<87 564 564 587.5> 119 39
LayerCount: 2
Fore
SplineSet
19 623 m 1x60
 19 639 l 1
 88 656 126 666 178 683 c 1
 182 681 l 1
 182 84 l 2
 182 29 194 19 257 15 c 1
 257 0 l 1
 21 0 l 1
 21 15 l 1
 84 20 98 33 98 87 c 2
 98 564 l 2
 98 611 88 625 56 625 c 0
 48 625 36 624 25 623 c 2
 19 623 l 1x60
96 -281 m 1x90
 87 -262 l 1
 141 -225 169 -188 169 -156 c 0
 169 -148 163 -142 155 -142 c 0
 154 -142 154 -142 147 -144 c 0
 141 -145 134 -146 128 -146 c 0
 92 -146 69 -127 69 -95 c 0
 69 -61 93 -38 128 -38 c 0
 173 -38 208 -77 208 -127 c 0
 208 -187 163 -248 96 -281 c 1x90
EndSplineSet
EndChar
StartChar: Lcaron
Encoding: 317 317 824
Width: 599
Flags: MW
ItalicCorrection: 11
TopAccentHorizontal: 286
LayerCount: 2
Fore
SplineSet
573 174 m 1
 598 174 l 1
 550 0 l 1
 12 0 l 1
 12 19 l 1
 85 24 99 39 99 109 c 2
 99 553 l 2
 99 623 86 637 12 643 c 1
 12 662 l 1
 294 662 l 1
 294 643 l 1
 215 638 201 624 201 553 c 2
 201 80 l 2
 201 45 214 39 287 39 c 2
 354 39 l 2
 437 39 492 57 527 96 c 0
 542 113 556 136 573 174 c 1
403 433 m 1
 394 452 l 1
 448 489 476 525 476 558 c 0
 476 566 470 572 462 572 c 0
 461 572 461 572 454 570 c 0
 448 569 441 568 435 568 c 0
 399 568 376 587 376 619 c 0
 376 653 400 676 435 676 c 0
 480 676 515 637 515 587 c 0
 515 527 470 466 403 433 c 1
EndSplineSet
EndChar
StartChar: lcaron
Encoding: 318 318 825
Width: 348
Flags: MW
LayerCount: 2
Fore
SplineSet
19 623 m 1
 19 639 l 1
 88 656 126 666 178 683 c 1
 182 681 l 1
 182 84 l 2
 182 29 194 19 257 15 c 1
 257 0 l 1
 21 0 l 1
 21 15 l 1
 84 20 98 33 98 87 c 2
 98 564 l 2
 98 611 88 625 56 625 c 0
 48 625 36 624 25 623 c 2
 19 623 l 1
236 433 m 1
 227 452 l 1
 281 489 309 525 309 558 c 0
 309 566 303 572 295 572 c 0
 294 572 294 572 287 570 c 0
 281 569 274 568 268 568 c 0
 232 568 209 587 209 619 c 0
 209 653 233 676 268 676 c 0
 313 676 348 637 348 587 c 0
 348 527 303 466 236 433 c 1
EndSplineSet
EndChar
StartChar: Lslash
Encoding: 321 321 826
Width: 611
Flags: MW
LayerCount: 2
Fore
SplineSet
99 325 m 1
 99 553 l 2
 99 623 86 637 12 643 c 1
 12 662 l 1
 294 662 l 1
 294 643 l 1
 215 638 201 624 201 553 c 2
 201 384 l 1
 356 473 l 1
 356 424 l 1
 201 335 l 1
 201 80 l 2
 201 45 214 39 287 39 c 2
 354 39 l 2
 437 39 492 57 527 96 c 0
 542 113 556 136 573 174 c 1
 598 174 l 1
 550 0 l 1
 12 0 l 1
 12 19 l 1
 85 24 99 39 99 109 c 2
 99 276 l 1
 12 226 l 1
 12 275 l 1
 99 325 l 1
EndSplineSet
EndChar
StartChar: lslash
Encoding: 322 322 827
Width: 276
Flags: MW
ItalicCorrection: 1
TopAccentHorizontal: 119
LayerCount: 2
Fore
SplineSet
98 362 m 1
 98 564 l 2
 98 611 88 625 56 625 c 0
 48 625 36 624 25 623 c 2
 19 623 l 1
 19 639 l 1
 88 656 126 666 178 683 c 1
 182 681 l 1
 182 419 l 1
 259 472 l 1
 259 428 l 1
 182 375 l 1
 182 84 l 2
 182 29 194 19 257 15 c 1
 257 0 l 1
 21 0 l 1
 21 15 l 1
 84 20 98 33 98 87 c 2
 98 318 l 1
 20 264 l 1
 20 308 l 1
 98 362 l 1
EndSplineSet
EndChar
StartChar: Nacute
Encoding: 323 323 828
Width: 722
Flags: MW
LayerCount: 2
Fore
SplineSet
612 -11 m 1
 595 -11 l 1
 153 539 l 1
 153 147 l 2
 153 46 170 23 247 19 c 1
 247 0 l 1
 12 0 l 1
 12 19 l 1
 95 25 109 44 109 147 c 2
 109 588 l 1
 69 635 55 643 12 643 c 1
 12 662 l 1
 183 662 l 1
 568 178 l 1
 568 515 l 2
 568 577 559 613 539 627 c 0
 524 636 510 640 472 643 c 1
 472 662 l 1
 707 662 l 1
 707 643 l 1
 669 639 655 635 641 625 c 0
 622 612 612 575 612 515 c 2
 612 -11 l 1
328 719 m 1
 288 719 l 1
 435 867 l 2
 453 885 462 890 477 890 c 0
 499 890 512 878 512 858 c 0
 512 842 503 829 482 816 c 2
 328 719 l 1
EndSplineSet
EndChar
StartChar: nacute
Encoding: 324 324 829
Width: 500
Flags: MW
LayerCount: 2
Fore
SplineSet
16 398 m 1
 16 415 l 1
 71 431 105 442 154 460 c 1
 161 458 l 1
 161 379 l 1
 229 443 260 460 306 460 c 0
 380 460 424 404 424 310 c 2
 424 81 l 2
 424 32 436 20 485 15 c 1
 485 0 l 1
 277 0 l 1
 277 15 l 1
 327 19 340 36 340 99 c 2
 340 308 l 2
 340 374 316 405 267 405 c 0
 234 405 212 393 164 348 c 1
 164 67 l 2
 164 31 179 19 230 15 c 1
 230 0 l 1
 18 0 l 1
 18 15 l 1
 69 19 80 33 80 90 c 2
 80 338 l 2
 80 387 71 402 43 402 c 0
 32 402 22 401 16 398 c 1
217 507 m 1
 177 507 l 1
 324 655 l 2
 342 673 351 678 366 678 c 0
 388 678 401 666 401 646 c 0
 401 630 392 617 371 604 c 2
 217 507 l 1
EndSplineSet
EndChar
StartChar: uni0145
Encoding: 325 325 830
Width: 722
Flags: MW
LayerCount: 2
Fore
SplineSet
612 -11 m 1
 595 -11 l 1
 153 539 l 1
 153 147 l 2
 153 46 170 23 247 19 c 1
 247 0 l 1
 12 0 l 1
 12 19 l 1
 95 25 109 44 109 147 c 2
 109 588 l 1
 69 635 55 643 12 643 c 1
 12 662 l 1
 183 662 l 1
 568 178 l 1
 568 515 l 2
 568 577 559 613 539 627 c 0
 524 636 510 640 472 643 c 1
 472 662 l 1
 707 662 l 1
 707 643 l 1
 669 639 655 635 641 625 c 0
 622 612 612 575 612 515 c 2
 612 -11 l 1
318 -281 m 1
 309 -262 l 1
 363 -225 391 -188 391 -156 c 0
 391 -148 385 -142 377 -142 c 0
 376 -142 376 -142 369 -144 c 0
 363 -145 356 -146 350 -146 c 0
 314 -146 291 -127 291 -95 c 0
 291 -61 315 -38 350 -38 c 0
 395 -38 430 -77 430 -127 c 0
 430 -187 385 -248 318 -281 c 1
EndSplineSet
EndChar
StartChar: uni0146
Encoding: 326 326 846
Width: 500
Flags: W
HStem: -142 104<221.5 270> 0 15<18 230 18 18> 405 55<283 291.5>
VStem: 80 84<90 338 338 348> 116 39 340 84<99 308 308 310>
LayerCount: 2
Fore
SplineSet
16 398 m 1x74
 16 415 l 1
 71 431 105 442 154 460 c 1
 161 458 l 1
 161 379 l 1
 229 443 260 460 306 460 c 0
 380 460 424 404 424 310 c 2
 424 81 l 2
 424 32 436 20 485 15 c 1
 485 0 l 1
 277 0 l 1
 277 15 l 1
 327 19 340 36 340 99 c 2
 340 308 l 2
 340 374 316 405 267 405 c 0
 234 405 212 393 164 348 c 1
 164 67 l 2
 164 31 179 19 230 15 c 1
 230 0 l 1
 18 0 l 1
 18 15 l 1
 69 19 80 33 80 90 c 2
 80 338 l 2
 80 387 71 402 43 402 c 0
 32 402 22 401 16 398 c 1x74
207 -281 m 1x88
 198 -262 l 1
 252 -225 280 -188 280 -156 c 0
 280 -148 274 -142 266 -142 c 0
 265 -142 265 -142 258 -144 c 0
 252 -145 245 -146 239 -146 c 0
 203 -146 180 -127 180 -95 c 0
 180 -61 204 -38 239 -38 c 0
 284 -38 319 -77 319 -127 c 0
 319 -187 274 -248 207 -281 c 1x88
EndSplineSet
EndChar
StartChar: Ncaron
Encoding: 327 327 811
Width: 640
Flags: MW
ItalicCorrection: 81
TopAccentHorizontal: 361
LayerCount: 2
Fore
SplineSet
612 -11 m 1
 595 -11 l 1
 153 539 l 1
 153 147 l 2
 153 46 170 23 247 19 c 1
 247 0 l 1
 12 0 l 1
 12 19 l 1
 95 25 109 44 109 147 c 2
 109 588 l 1
 69 635 55 643 12 643 c 1
 12 662 l 1
 183 662 l 1
 568 178 l 1
 568 515 l 2
 568 577 559 613 539 627 c 0
 524 636 510 640 472 643 c 1
 472 662 l 1
 707 662 l 1
 707 643 l 1
 669 639 655 635 641 625 c 0
 622 612 612 575 612 515 c 2
 612 -11 l 1
517 886 m 1
 392 719 l 1
 330 719 l 1
 206 886 l 1
 240 886 l 1
 361 783 l 1
 483 886 l 1
 517 886 l 1
EndSplineSet
EndChar
StartChar: ncaron
Encoding: 328 328 812
Width: 500
Flags: MW
TopAccentHorizontal: 250
LayerCount: 2
Fore
SplineSet
16 398 m 1
 16 415 l 1
 71 431 105 442 154 460 c 1
 161 458 l 1
 161 379 l 1
 229 443 260 460 306 460 c 0
 380 460 424 404 424 310 c 2
 424 81 l 2
 424 32 436 20 485 15 c 1
 485 0 l 1
 277 0 l 1
 277 15 l 1
 327 19 340 36 340 99 c 2
 340 308 l 2
 340 374 316 405 267 405 c 0
 234 405 212 393 164 348 c 1
 164 67 l 2
 164 31 179 19 230 15 c 1
 230 0 l 1
 18 0 l 1
 18 15 l 1
 69 19 80 33 80 90 c 2
 80 338 l 2
 80 387 71 402 43 402 c 0
 32 402 22 401 16 398 c 1
406 674 m 1
 281 507 l 1
 219 507 l 1
 95 674 l 1
 129 674 l 1
 250 571 l 1
 372 674 l 1
 406 674 l 1
EndSplineSet
EndChar
StartChar: omacron
Encoding: 333 333 835
Width: 500
Flags: MW
LayerCount: 2
Fore
SplineSet
250 460 m 0
 378 460 470 365 470 234 c 0
 470 96 374 -10 248 -10 c 0
 122 -10 29 91 29 226 c 0
 29 364 120 460 250 460 c 0
237 432 m 0
 166 432 119 370 119 275 c 0
 119 204 135 134 163 82 c 0
 184 42 221 18 260 18 c 0
 335 18 380 86 380 199 c 0
 380 336 321 432 237 432 c 0
95 601 m 1
 406 601 l 1
 406 547 l 1
 95 547 l 1
 95 601 l 1
EndSplineSet
EndChar
StartChar: Ohungarumlaut
Encoding: 336 336 836
Width: 673
Flags: MW
ItalicCorrection: 48
TopAccentHorizontal: 418
LayerCount: 2
Fore
SplineSet
361 676 m 0
 457 676 541 640 604 571 c 0
 659 511 688 426 688 327 c 0
 688 126 552 -14 355 -14 c 0
 267 -14 178 25 120 88 c 0
 66 146 34 237 34 331 c 0
 34 532 170 676 361 676 c 0
361 640 m 0
 306 640 257 618 218 575 c 0
 176 528 148 431 148 329 c 0
 148 218 181 117 233 71 c 0
 268 40 313 22 359 22 c 0
 412 22 457 40 492 75 c 0
 515 98 532 123 541 148 c 0
 561 200 574 269 574 328 c 0
 574 447 543 541 489 590 c 0
 453 622 407 640 361 640 c 0
428 719 m 1
 388 719 l 1
 535 867 l 2
 553 885 562 890 577 890 c 0
 599 890 612 878 612 858 c 0
 612 842 603 829 582 816 c 2
 428 719 l 1
272 719 m 1
 232 719 l 1
 379 867 l 2
 397 885 406 890 421 890 c 0
 443 890 456 878 456 858 c 0
 456 842 447 829 426 816 c 2
 272 719 l 1
EndSplineSet
EndChar
StartChar: ohungarumlaut
Encoding: 337 337 837
Width: 500
Flags: MW
LayerCount: 2
Fore
SplineSet
250 460 m 0
 378 460 470 365 470 234 c 0
 470 96 374 -10 248 -10 c 0
 122 -10 29 91 29 226 c 0
 29 364 120 460 250 460 c 0
237 432 m 0
 166 432 119 370 119 275 c 0
 119 204 135 134 163 82 c 0
 184 42 221 18 260 18 c 0
 335 18 380 86 380 199 c 0
 380 336 321 432 237 432 c 0
277 507 m 1
 237 507 l 1
 384 655 l 2
 402 673 411 678 426 678 c 0
 448 678 461 666 461 646 c 0
 461 630 452 617 431 604 c 2
 277 507 l 1
121 507 m 1
 81 507 l 1
 228 655 l 2
 246 673 255 678 270 678 c 0
 292 678 305 666 305 646 c 0
 305 630 296 617 275 604 c 2
 121 507 l 1
EndSplineSet
EndChar
StartChar: OE
Encoding: 338 338 817
Width: 880
Flags: MW
ItalicCorrection: 8
TopAccentHorizontal: 511
LayerCount: 2
Fore
SplineSet
838 521 m 1
 815 521 l 1
 803 610 778 626 647 626 c 2
 596 626 l 2
 540 626 531 623 531 602 c 2
 531 366 l 1
 635 366 l 2
 697 366 733 376 748 397 c 0
 759 412 764 427 767 464 c 1
 788 464 l 1
 788 230 l 1
 767 230 l 1
 758 309 738 329 669 329 c 2
 531 329 l 1
 531 84 l 2
 531 47 543 37 587 38 c 2
 711 40 l 2
 774 42 810 73 861 168 c 1
 885 168 l 1
 841 0 l 1
 491 0 l 2
 470 0 410 -2 370 -4 c 0
 347 -5 326 -6 312 -6 c 0
 238 -6 170 21 120 71 c 0
 60 130 30 214 30 322 c 0
 30 437 67 537 131 593 c 0
 186 642 259 668 342 668 c 0
 356 668 359 668 407 665 c 0
 425 664 491 662 512 662 c 2
 838 662 l 1
 838 521 l 1
431 131 m 2
 431 527 l 2
 431 600 401 632 332 632 c 0
 211 632 142 521 142 325 c 0
 142 135 209 31 331 31 c 0
 402 31 431 60 431 131 c 2
EndSplineSet
EndChar
StartChar: oe
Encoding: 339 339 818
Width: 718
Flags: MW
ItalicCorrection: 3
TopAccentHorizontal: 367
LayerCount: 2
Fore
SplineSet
679 145 m 1
 690 139 l 1
 638 31 589 -10 511 -10 c 0
 449 -10 413 17 383 85 c 1
 345 17 304 -10 236 -10 c 0
 115 -10 30 85 30 218 c 0
 30 294 59 368 105 412 c 0
 139 443 182 460 232 460 c 0
 294 460 334 440 384 384 c 1
 425 440 460 460 514 460 c 0
 564 460 612 437 640 398 c 0
 663 367 671 338 674 277 c 1
 420 277 l 1
 424 190 433 153 459 107 c 0
 477 77 512 57 549 57 c 0
 597 57 632 81 679 145 c 1
229 431 m 0
 200 431 176 420 154 398 c 0
 134 377 120 323 120 271 c 0
 120 102 161 16 240 16 c 0
 308 16 343 79 343 199 c 0
 343 348 302 431 229 431 c 0
419 307 m 1
 579 307 l 1
 579 334 l 2
 579 390 546 431 500 431 c 0
 447 431 420 390 419 307 c 1
EndSplineSet
EndChar
StartChar: Racute
Encoding: 340 340 855
Width: 667
Flags: W
HStem: 0 19<17 294 17 17> 625 37<235 293 293 317.5> 643 19<17 293>
VStem: 102 102<120 306 343 553 553 588.5> 438 109<463 507.5 462.5 535>
LayerCount: 2
Fore
SplineSet
659 19 m 1xd8
 659 0 l 1
 498 0 l 1
 260 308 l 1
 204 306 l 1
 204 109 l 2
 204 37 217 24 294 19 c 1
 294 0 l 1
 17 0 l 1
 17 19 l 1
 92 25 102 37 102 120 c 2
 102 553 l 2
 102 624 92 635 17 643 c 1xb8
 17 662 l 1
 293 662 l 2
 387 662 470 636 508 595 c 0
 534 566 547 529 547 486 c 0
 547 439 528 397 496 371 c 0
 463 344 433 332 366 319 c 1
 572 66 l 2
 601 32 621 22 659 19 c 1xd8
204 589 m 2x58
 204 343 l 1
 300 345 335 351 381 377 c 0
 417 396 438 438 438 488 c 0
 438 582 380 625 255 625 c 0
 215 625 204 617 204 589 c 2x58
300 719 m 1
 260 719 l 1
 407 867 l 2
 425 885 434 890 449 890 c 0
 471 890 484 878 484 858 c 0
 484 842 475 829 454 816 c 2
 300 719 l 1
EndSplineSet
EndChar
StartChar: racute
Encoding: 341 341 856
Width: 333
Flags: W
HStem: 0 15<5 245 5 5> 440 20<155 155 259 297> 658 20<274.5 293>
VStem: 76 84<84 90 90 315>
LayerCount: 2
Fore
SplineSet
7 390 m 1
 7 406 l 1
 66 425 102 438 155 460 c 1
 160 458 l 1
 160 366 l 1
 209 437 238 460 280 460 c 0
 314 460 335 440 335 407 c 0
 335 379 320 362 296 362 c 0
 283 362 272 368 256 382 c 0
 245 392 236 397 230 397 c 0
 203 397 160 347 160 315 c 2
 160 90 l 2
 160 33 177 18 245 15 c 1
 245 0 l 1
 5 0 l 1
 5 15 l 1
 69 27 76 34 76 84 c 2
 76 334 l 2
 76 378 67 394 42 394 c 0
 30 394 21 393 7 390 c 1
133 507 m 1x20
 93 507 l 1
 240 655 l 2
 258 673 267 678 282 678 c 0
 304 678 317 666 317 646 c 0
 317 630 308 617 287 604 c 2
 133 507 l 1x20
EndSplineSet
EndChar
StartChar: uni0156
Encoding: 342 342 857
Width: 667
Flags: W
HStem: -142 104<305.5 354> 0 19<17 294 17 17> 625 37<235 293 293 317.5> 643 19<17 293>
VStem: 102 102<120 306 343 553 553 588.5> 117 39 438 109<463 507.5 462.5 535>
LayerCount: 2
Fore
SplineSet
659 19 m 1x6a
 659 0 l 1
 498 0 l 1
 260 308 l 1
 204 306 l 1
 204 109 l 2
 204 37 217 24 294 19 c 1
 294 0 l 1
 17 0 l 1
 17 19 l 1
 92 25 102 37 102 120 c 2
 102 553 l 2
 102 624 92 635 17 643 c 1x5a
 17 662 l 1
 293 662 l 2
 387 662 470 636 508 595 c 0
 534 566 547 529 547 486 c 0
 547 439 528 397 496 371 c 0
 463 344 433 332 366 319 c 1
 572 66 l 2
 601 32 621 22 659 19 c 1x6a
204 589 m 2x2a
 204 343 l 1
 300 345 335 351 381 377 c 0
 417 396 438 438 438 488 c 0
 438 582 380 625 255 625 c 0
 215 625 204 617 204 589 c 2x2a
291 -281 m 1x84
 282 -262 l 1
 336 -225 364 -188 364 -156 c 0
 364 -148 358 -142 350 -142 c 0
 349 -142 349 -142 342 -144 c 0
 336 -145 329 -146 323 -146 c 0
 287 -146 264 -127 264 -95 c 0
 264 -61 288 -38 323 -38 c 0
 368 -38 403 -77 403 -127 c 0
 403 -187 358 -248 291 -281 c 1x84
EndSplineSet
EndChar
StartChar: uni0157
Encoding: 343 343 843
Width: 255
Flags: MW
ItalicCorrection: 77
TopAccentHorizontal: 184
LayerCount: 2
Fore
SplineSet
7 390 m 1
 7 406 l 1
 66 425 102 438 155 460 c 1
 160 458 l 1
 160 366 l 1
 209 437 238 460 280 460 c 0
 314 460 335 440 335 407 c 0
 335 379 320 362 296 362 c 0
 283 362 272 368 256 382 c 0
 245 392 236 397 230 397 c 0
 203 397 160 347 160 315 c 2
 160 90 l 2
 160 33 177 18 245 15 c 1
 245 0 l 1
 5 0 l 1
 5 15 l 1
 69 27 76 34 76 84 c 2
 76 334 l 2
 76 378 67 394 42 394 c 0
 30 394 21 393 7 390 c 1
84 -281 m 1
 75 -262 l 1
 129 -225 157 -188 157 -156 c 0
 157 -148 151 -142 143 -142 c 0
 142 -142 142 -142 135 -144 c 0
 129 -145 122 -146 116 -146 c 0
 80 -146 57 -127 57 -95 c 0
 57 -61 81 -38 116 -38 c 0
 161 -38 196 -77 196 -127 c 0
 196 -187 151 -248 84 -281 c 1
EndSplineSet
EndChar
StartChar: rcaron
Encoding: 345 345 860
Width: 333
Flags: W
HStem: 0 15<5 245 5 5> 440 20<155 155 259 297> 654 20<11 45 45 45 288 322 322 322>
VStem: 76 84<84 90 90 315>
LayerCount: 2
Fore
SplineSet
7 390 m 1
 7 406 l 1
 66 425 102 438 155 460 c 1
 160 458 l 1
 160 366 l 1
 209 437 238 460 280 460 c 0
 314 460 335 440 335 407 c 0
 335 379 320 362 296 362 c 0
 283 362 272 368 256 382 c 0
 245 392 236 397 230 397 c 0
 203 397 160 347 160 315 c 2
 160 90 l 2
 160 33 177 18 245 15 c 1
 245 0 l 1
 5 0 l 1
 5 15 l 1
 69 27 76 34 76 84 c 2
 76 334 l 2
 76 378 67 394 42 394 c 0
 30 394 21 393 7 390 c 1
322 674 m 1x20
 197 507 l 1
 135 507 l 1
 11 674 l 1
 45 674 l 1
 166 571 l 1
 288 674 l 1
 322 674 l 1x20
EndSplineSet
EndChar
StartChar: Scedilla
Encoding: 350 350 848
Width: 551
Flags: MW
ItalicCorrection: 4
TopAccentHorizontal: 280
LayerCount: 2
Fore
SplineSet
280 -14 m 1
 261 -65 l 1
 270 -63 277 -62 287 -62 c 0
 341 -62 373 -88 373 -131 c 0
 373 -183 325 -215 248 -215 c 0
 216 -215 193 -211 164 -199 c 1
 178 -168 l 1
 205 -177 222 -180 243 -180 c 0
 277 -180 298 -163 298 -136 c 0
 298 -110 283 -100 245 -100 c 0
 233 -100 225 -101 217 -104 c 1
 210 -99 l 1
 246 -11 l 1
 218 -7 195 -2 169 9 c 0
 150 16 133 20 122 20 c 0
 107 20 95 6 94 -13 c 1
 72 -13 l 1
 42 199 l 1
 65 199 l 1
 115 77 178 22 267 22 c 0
 340 22 390 68 390 135 c 0
 390 159 385 180 376 193 c 0
 351 231 299 272 227 310 c 0
 115 369 71 425 71 505 c 0
 71 557 89 599 124 630 c 0
 157 659 201 676 244 676 c 0
 276 676 313 668 350 654 c 0
 367 646 384 642 394 642 c 0
 411 642 422 653 426 676 c 1
 447 676 l 1
 469 463 l 1
 444 463 l 1
 428 522 414 548 383 580 c 0
 348 616 306 635 261 635 c 0
 199 635 157 597 157 542 c 0
 157 488 199 444 304 386 c 0
 436 315 491 250 491 168 c 0
 491 66 403 -14 289 -14 c 2
 280 -14 l 1
EndSplineSet
EndChar
StartChar: scedilla
Encoding: 351 351 828
Width: 389
Flags: MW
TopAccentHorizontal: 190
LayerCount: 2
Fore
SplineSet
198 -10 m 1
 177 -65 l 1
 187 -63 193 -62 203 -62 c 0
 257 -62 289 -88 289 -131 c 0
 289 -183 241 -215 164 -215 c 0
 132 -215 109 -211 80 -199 c 1
 94 -168 l 1
 122 -177 138 -180 159 -180 c 0
 193 -180 214 -163 214 -136 c 0
 214 -110 199 -100 161 -100 c 0
 150 -100 141 -101 133 -104 c 1
 126 -99 l 1
 165 -6 l 1
 153 -4 147 -3 134 0 c 0
 110 6 97 8 88 8 c 0
 76 8 72 6 65 -4 c 1
 52 -4 l 1
 52 152 l 1
 68 152 l 1
 81 95 90 72 111 47 c 0
 130 25 161 12 195 12 c 0
 246 12 278 40 278 84 c 0
 278 115 261 139 226 159 c 2
 168 192 l 2
 83 240 51 280 51 336 c 0
 51 408 108 459 187 459 c 0
 213 459 235 455 257 447 c 0
 268 442 278 440 284 440 c 0
 288 440 289 441 298 448 c 2
 300 450 l 1
 311 450 l 1
 315 314 l 1
 300 314 l 1
 277 403 247 437 190 437 c 0
 144 437 113 409 113 369 c 0
 113 342 128 317 156 301 c 2
 264 237 l 2
 324 201 348 168 348 118 c 0
 348 49 284 -10 209 -10 c 2
 198 -10 l 1
EndSplineSet
EndChar
StartChar: uni0162
Encoding: 354 354 852
Width: 499
Flags: MW
ItalicCorrection: 111
TopAccentHorizontal: 305
LayerCount: 2
Fore
SplineSet
254 620 m 1
 200 620 l 2
 88 620 65 601 41 492 c 1
 17 492 l 1
 23 662 l 1
 587 662 l 1
 593 492 l 1
 569 492 l 1
 546 602 524 620 410 620 c 2
 356 620 l 1
 356 109 l 2
 356 36 370 23 452 19 c 1
 452 0 l 1
 160 0 l 1
 160 19 l 1
 243 24 254 35 254 120 c 2
 254 620 l 1
263 -281 m 1
 254 -262 l 1
 308 -225 336 -188 336 -156 c 0
 336 -148 330 -142 322 -142 c 0
 321 -142 321 -142 314 -144 c 0
 308 -145 301 -146 295 -146 c 0
 259 -146 236 -127 236 -95 c 0
 236 -61 260 -38 295 -38 c 0
 340 -38 375 -77 375 -127 c 0
 375 -187 330 -248 263 -281 c 1
EndSplineSet
EndChar
StartChar: uni0163
Encoding: 355 355 868
Width: 278
Flags: W
HStem: -142 104<110.5 159> -10 52<129.5 217> 418 32<154 255 154 255>
VStem: 13 242<423.5 427.5> 70 84<117 132 132 418> 113 39
LayerCount: 2
Fore
SplineSet
255 450 m 1x70
 255 418 l 1x70
 154 418 l 1
 154 132 l 2
 154 69 169 42 206 42 c 0
 228 42 245 52 266 77 c 1
 279 66 l 1
 246 14 208 -10 159 -10 c 0
 100 -10 70 33 70 117 c 2
 70 418 l 1x68
 17 418 l 2
 14 420 13 422 13 425 c 0x70
 13 430 19 437 30 444 c 1
 46 448 89 496 127 551 c 0
 134 561 140 570 147 579 c 1
 153 579 154 576 154 566 c 2
 154 450 l 1x68
 255 450 l 1x70
96 -281 m 1x84
 87 -262 l 1
 141 -225 169 -188 169 -156 c 0
 169 -148 163 -142 155 -142 c 0
 154 -142 154 -142 147 -144 c 0
 141 -145 134 -146 128 -146 c 0
 92 -146 69 -127 69 -95 c 0
 69 -61 93 -38 128 -38 c 0
 173 -38 208 -77 208 -127 c 0
 208 -187 163 -248 96 -281 c 1x84
EndSplineSet
EndChar
StartChar: Tcaron
Encoding: 356 356 869
Width: 611
Flags: W
HStem: 0 19<160 452 160 160> 620 42<144 200 200 254 356 356 356 410>
VStem: 254 102<120 620>
LayerCount: 2
Fore
SplineSet
254 620 m 1
 200 620 l 2
 88 620 65 601 41 492 c 1
 17 492 l 1
 23 662 l 1
 587 662 l 1
 593 492 l 1
 569 492 l 1
 546 602 524 620 410 620 c 2
 356 620 l 1
 356 109 l 2
 356 36 370 23 452 19 c 1
 452 0 l 1
 160 0 l 1
 160 19 l 1
 243 24 254 35 254 120 c 2
 254 620 l 1
461 886 m 1
 336 719 l 1
 274 719 l 1
 150 886 l 1
 184 886 l 1
 305 783 l 1
 427 886 l 1
 461 886 l 1
EndSplineSet
EndChar
StartChar: tcaron
Encoding: 357 357 834
Width: 256
Flags: MW
ItalicCorrection: 21
TopAccentHorizontal: 225
LayerCount: 2
Fore
SplineSet
180 450 m 1
 179 452 l 1
 233 489 261 525 261 558 c 0
 261 566 255 572 247 572 c 0
 246 572 246 572 239 570 c 0
 233 569 226 568 220 568 c 0
 184 568 161 587 161 619 c 0
 161 653 185 676 220 676 c 0
 265 676 300 637 300 587 c 0
 300 539 270 488 218 450 c 1
 255 450 l 1
 255 418 l 1
 154 418 l 1
 154 132 l 2
 154 69 169 42 206 42 c 0
 228 42 245 52 266 77 c 1
 279 66 l 1
 246 14 208 -10 159 -10 c 0
 100 -10 70 33 70 117 c 2
 70 418 l 1
 17 418 l 2
 14 420 13 422 13 425 c 0
 13 430 19 437 30 444 c 1
 46 448 89 496 127 551 c 0
 134 561 140 570 147 579 c 1
 153 579 154 576 154 566 c 2
 154 450 l 1
 180 450 l 1
EndSplineSet
EndChar
StartChar: umacron
Encoding: 363 363 872
Width: 500
Flags: W
HStem: -10 58<206.5 210.5> -9 20 433 17<259 259> 436 14<9 155> 547 54<95 406 95 406>
VStem: 71 84<120 124 124 372 372 395> 333 84<135 370 370 395>
LayerCount: 2
Fore
SplineSet
479 50 m 1x16
 479 36 l 1
 428 22 392 11 342 -9 c 1x46
 338 -7 l 1
 338 76 l 1
 295 33 l 2
 268 6 229 -10 192 -10 c 0
 119 -10 71 41 71 120 c 2
 71 372 l 2
 71 418 57 433 9 436 c 1
 9 450 l 1
 155 450 l 1x96
 155 124 l 2
 155 82 187 48 226 48 c 0
 256 48 287 60 314 82 c 0
 328 93 333 107 333 135 c 2
 333 370 l 2
 333 420 321 430 259 433 c 1xa6
 259 450 l 1
 417 450 l 1
 417 107 l 2
 417 61 428 50 474 50 c 2
 479 50 l 1x16
95 601 m 1x08
 406 601 l 1
 406 547 l 1
 95 547 l 1
 95 601 l 1x08
EndSplineSet
EndChar
StartChar: Uring
Encoding: 366 366 873
Width: 722
Flags: W
HStem: -14 44<342.5 409.5> 643 19<14 297 14 297> 724 34<361.5 397.5 361.5 407.5> 889 34<363 398.5>
VStem: 14 34 104 102<241 553> 179 34 567 44<245 254 254 515>
LayerCount: 2
Fore
SplineSet
611 515 m 2xc5
 611 254 l 2
 611 177 602 131 578 89 c 0
 539 21 464 -14 355 -14 c 0
 185 -14 104 68 104 241 c 2
 104 553 l 2
 104 626 93 637 14 643 c 1
 14 662 l 1
 297 662 l 1
 297 643 l 1
 217 636 206 625 206 553 c 2
 206 233 l 2
 206 170 213 133 231 101 c 0
 258 54 307 30 378 30 c 0
 453 30 517 61 544 109 c 0
 560 139 567 177 567 245 c 2
 567 515 l 2
 567 615 551 637 473 643 c 1
 473 662 l 1
 705 662 l 1
 705 643 l 1
 623 633 611 617 611 515 c 2xc5
380 923 m 0x3a
 435 923 480 878 480 823 c 0
 480 768 435 724 380 724 c 0
 324 724 281 768 281 824 c 0
 281 878 326 923 380 923 c 0x3a
381 889 m 0
 345 889 315 860 315 824 c 0
 315 788 344 758 379 758 c 0
 416 758 446 787 446 823 c 0
 446 859 416 889 381 889 c 0
EndSplineSet
EndChar
StartChar: uring
Encoding: 367 367 874
Width: 500
Flags: W
HStem: -10 58<206.5 210.5> -9 20 433 17<259 259> 436 14<9 155> 512 34<230.5 266.5 230.5 276.5> 677 34<232 267.5>
VStem: 9 34 71 84<120 124 124 372 372 395> 174 34 333 84<135 370 370 395>
LayerCount: 2
Fore
SplineSet
479 50 m 1x1140
 479 36 l 1
 428 22 392 11 342 -9 c 1x4140
 338 -7 l 1
 338 76 l 1
 295 33 l 2
 268 6 229 -10 192 -10 c 0
 119 -10 71 41 71 120 c 2
 71 372 l 2
 71 418 57 433 9 436 c 1
 9 450 l 1
 155 450 l 1x9140
 155 124 l 2
 155 82 187 48 226 48 c 0
 256 48 287 60 314 82 c 0
 328 93 333 107 333 135 c 2
 333 370 l 2
 333 420 321 430 259 433 c 1xa140
 259 450 l 1
 417 450 l 1
 417 107 l 2
 417 61 428 50 474 50 c 2
 479 50 l 1x1140
249 711 m 0x0e80
 304 711 349 666 349 611 c 0
 349 556 304 512 249 512 c 0
 193 512 150 556 150 612 c 0
 150 666 195 711 249 711 c 0x0e80
250 677 m 0
 214 677 184 648 184 612 c 0
 184 576 213 546 248 546 c 0
 285 546 315 575 315 611 c 0
 315 647 285 677 250 677 c 0
EndSplineSet
EndChar
StartChar: Uhungarumlaut
Encoding: 368 368 875
Width: 722
Flags: W
HStem: -14 44<342.5 409.5> 643 19<14 297 14 297>
VStem: 104 102<241 553> 567 44<245 254 254 515>
LayerCount: 2
Fore
SplineSet
611 515 m 2
 611 254 l 2
 611 177 602 131 578 89 c 0
 539 21 464 -14 355 -14 c 0
 185 -14 104 68 104 241 c 2
 104 553 l 2
 104 626 93 637 14 643 c 1
 14 662 l 1
 297 662 l 1
 297 643 l 1
 217 636 206 625 206 553 c 2
 206 233 l 2
 206 170 213 133 231 101 c 0
 258 54 307 30 378 30 c 0
 453 30 517 61 544 109 c 0
 560 139 567 177 567 245 c 2
 567 515 l 2
 567 615 551 637 473 643 c 1
 473 662 l 1
 705 662 l 1
 705 643 l 1
 623 633 611 617 611 515 c 2
428 719 m 1
 388 719 l 1
 535 867 l 2
 553 885 562 890 577 890 c 0
 599 890 612 878 612 858 c 0
 612 842 603 829 582 816 c 2
 428 719 l 1
272 719 m 1
 232 719 l 1
 379 867 l 2
 397 885 406 890 421 890 c 0
 443 890 456 878 456 858 c 0
 456 842 447 829 426 816 c 2
 272 719 l 1
EndSplineSet
EndChar
StartChar: uhungarumlaut
Encoding: 369 369 876
Width: 500
Flags: W
HStem: -10 58<206.5 210.5> -9 20 433 17<259 259> 436 14<9 155> 658 20<262.5 281 418.5 437>
VStem: 71 84<120 124 124 372 372 395> 333 84<135 370 370 395>
LayerCount: 2
Fore
SplineSet
479 50 m 1x16
 479 36 l 1
 428 22 392 11 342 -9 c 1x46
 338 -7 l 1
 338 76 l 1
 295 33 l 2
 268 6 229 -10 192 -10 c 0
 119 -10 71 41 71 120 c 2
 71 372 l 2
 71 418 57 433 9 436 c 1
 9 450 l 1
 155 450 l 1x96
 155 124 l 2
 155 82 187 48 226 48 c 0
 256 48 287 60 314 82 c 0
 328 93 333 107 333 135 c 2
 333 370 l 2
 333 420 321 430 259 433 c 1xa6
 259 450 l 1
 417 450 l 1
 417 107 l 2
 417 61 428 50 474 50 c 2
 479 50 l 1x16
277 507 m 1x08
 237 507 l 1
 384 655 l 2
 402 673 411 678 426 678 c 0
 448 678 461 666 461 646 c 0
 461 630 452 617 431 604 c 2
 277 507 l 1x08
121 507 m 1
 81 507 l 1
 228 655 l 2
 246 673 255 678 270 678 c 0
 292 678 305 666 305 646 c 0
 305 630 296 617 275 604 c 2
 121 507 l 1
EndSplineSet
EndChar
StartChar: Uogonek
Encoding: 370 370 862
Width: 722
Flags: MW
LayerCount: 2
Fore
SplineSet
564 -73 m 1
 584 -89 l 1
 546 -142 513 -165 471 -165 c 0
 430 -165 398 -132 398 -89 c 0
 398 -58 414 -31 449 -3 c 1
 416 -10 387 -14 353 -14 c 0
 185 -14 104 69 104 241 c 2
 104 553 l 2
 104 626 93 637 14 643 c 1
 14 662 l 1
 297 662 l 1
 297 643 l 1
 217 636 206 625 206 553 c 2
 206 233 l 2
 206 170 213 133 231 101 c 0
 258 54 307 30 378 30 c 0
 453 30 517 61 544 109 c 0
 560 139 567 177 567 245 c 2
 567 515 l 2
 567 615 551 637 473 643 c 1
 473 662 l 1
 705 662 l 1
 705 643 l 1
 623 633 611 617 611 515 c 2
 611 254 l 2
 611 132 592 88 514 23 c 0
 472 -12 454 -40 454 -71 c 0
 454 -93 471 -109 492 -109 c 0
 514 -109 533 -99 564 -73 c 1
EndSplineSet
EndChar
StartChar: uogonek
Encoding: 371 371 842
Width: 500
Flags: MW
TopAccentHorizontal: 241
LayerCount: 2
Fore
SplineSet
479 50 m 1
 479 36 l 1
 449 29 435 23 415 6 c 0
 389 -16 371 -46 371 -70 c 0
 371 -93 387 -109 409 -109 c 0
 430 -109 449 -99 480 -73 c 1
 500 -89 l 1
 463 -142 429 -165 388 -165 c 0
 347 -165 315 -132 315 -89 c 0
 315 -68 321 -52 338 -29 c 1
 338 76 l 1
 295 33 l 2
 268 6 229 -10 192 -10 c 0
 119 -10 71 41 71 120 c 2
 71 372 l 2
 71 418 57 433 9 436 c 1
 9 450 l 1
 155 450 l 1
 155 124 l 2
 155 82 187 48 226 48 c 0
 256 48 287 60 314 82 c 0
 328 93 333 107 333 135 c 2
 333 370 l 2
 333 420 321 430 259 433 c 1
 259 450 l 1
 417 450 l 1
 417 107 l 2
 417 61 428 50 474 50 c 2
 479 50 l 1
EndSplineSet
EndChar
StartChar: Ydieresis
Encoding: 376 376 879
Width: 722
Flags: W
HStem: 0 19<214 520 214 214> 642 20<277 279>
VStem: 22 99 221 99 315 102<120 294 294 294>
LayerCount: 2
Fore
SplineSet
703 662 m 1xc8
 703 643 l 1
 652 639 626 617 565 529 c 2
 417 303 l 1
 417 109 l 2
 417 33 431 21 520 19 c 1
 520 0 l 1
 214 0 l 1
 214 19 l 1
 305 23 315 33 315 120 c 2
 315 294 l 1
 184 486 l 2
 84 627 70 641 22 643 c 1
 22 662 l 1
 302 662 l 1
 302 643 l 1
 291 642 281 642 277 642 c 0
 245 640 231 631 231 613 c 0
 231 602 237 585 248 569 c 2
 396 347 l 1
 539 573 l 2
 548 588 553 600 553 610 c 0
 553 634 536 642 484 643 c 1
 484 662 l 1
 703 662 l 1xc8
277 834 m 0x30
 305 834 328 811 328 784 c 0
 328 757 305 735 277 735 c 0
 250 735 229 757 229 785 c 0
 229 811 252 834 277 834 c 0x30
476 834 m 0
 504 834 527 811 527 784 c 0
 527 757 504 735 476 735 c 0
 449 735 428 757 428 785 c 0
 428 811 451 834 476 834 c 0
EndSplineSet
EndChar
StartChar: Zacute
Encoding: 377 377 865
Width: 611
Flags: MW
LayerCount: 2
Fore
SplineSet
574 176 m 1
 597 176 l 1
 573 0 l 1
 9 0 l 1
 9 15 l 1
 446 624 l 1
 225 624 l 2
 159 624 114 610 91 581 c 0
 74 560 66 540 57 491 c 1
 31 491 l 1
 51 662 l 1
 577 662 l 1
 577 647 l 1
 145 38 l 1
 402 38 l 2
 459 38 503 52 527 77 c 0
 547 99 557 120 574 176 c 1
272 719 m 1
 232 719 l 1
 379 867 l 2
 397 885 406 890 421 890 c 0
 443 890 456 878 456 858 c 0
 456 842 447 829 426 816 c 2
 272 719 l 1
EndSplineSet
EndChar
StartChar: zacute
Encoding: 378 378 866
Width: 444
Flags: MW
LayerCount: 2
Fore
SplineSet
418 135 m 1
 404 0 l 1
 27 0 l 1
 27 15 l 1
 293 420 l 1
 155 420 l 2
 95 420 80 405 71 332 c 1
 53 332 l 1
 56 450 l 1
 403 450 l 1
 403 435 l 1
 134 30 l 1
 272 30 l 2
 323 30 357 39 371 56 c 0
 384 73 390 89 400 139 c 1
 418 135 l 1
189 507 m 1
 149 507 l 1
 296 655 l 2
 314 673 323 678 338 678 c 0
 360 678 373 666 373 646 c 0
 373 630 364 617 343 604 c 2
 189 507 l 1
EndSplineSet
EndChar
StartChar: Zdotaccent
Encoding: 379 379 867
Width: 611
Flags: MW
LayerCount: 2
Fore
SplineSet
574 176 m 1
 597 176 l 1
 573 0 l 1
 9 0 l 1
 9 15 l 1
 446 624 l 1
 225 624 l 2
 159 624 114 610 91 581 c 0
 74 560 66 540 57 491 c 1
 31 491 l 1
 51 662 l 1
 577 662 l 1
 577 647 l 1
 145 38 l 1
 402 38 l 2
 459 38 503 52 527 77 c 0
 547 99 557 120 574 176 c 1
305 834 m 0
 333 834 356 811 356 784 c 0
 356 757 333 735 305 735 c 0
 278 735 257 757 257 785 c 0
 257 811 280 834 305 834 c 0
EndSplineSet
EndChar
StartChar: zdotaccent
Encoding: 380 380 868
Width: 444
Flags: MW
LayerCount: 2
Fore
SplineSet
418 135 m 1
 404 0 l 1
 27 0 l 1
 27 15 l 1
 293 420 l 1
 155 420 l 2
 95 420 80 405 71 332 c 1
 53 332 l 1
 56 450 l 1
 403 450 l 1
 403 435 l 1
 134 30 l 1
 272 30 l 2
 323 30 357 39 371 56 c 0
 384 73 390 89 400 139 c 1
 418 135 l 1
221 622 m 0
 249 622 272 599 272 572 c 0
 272 545 249 523 221 523 c 0
 194 523 173 545 173 573 c 0
 173 599 196 622 221 622 c 0
EndSplineSet
EndChar
StartChar: Zcaron
Encoding: 381 381 884
Width: 611
Flags: W
HStem: 0 38<145 402 402 430.5 145 573> 624 38<192 225 225 446>
LayerCount: 2
Fore
SplineSet
574 176 m 1
 597 176 l 1
 573 0 l 1
 9 0 l 1
 9 15 l 1
 446 624 l 1
 225 624 l 2
 159 624 114 610 91 581 c 0
 74 560 66 540 57 491 c 1
 31 491 l 1
 51 662 l 1
 577 662 l 1
 577 647 l 1
 145 38 l 1
 402 38 l 2
 459 38 503 52 527 77 c 0
 547 99 557 120 574 176 c 1
462 886 m 1
 337 719 l 1
 275 719 l 1
 151 886 l 1
 185 886 l 1
 306 783 l 1
 428 886 l 1
 462 886 l 1
EndSplineSet
EndChar
StartChar: zcaron
Encoding: 382 382 870
Width: 444
Flags: MW
LayerCount: 2
Fore
SplineSet
418 135 m 1
 404 0 l 1
 27 0 l 1
 27 15 l 1
 293 420 l 1
 155 420 l 2
 95 420 80 405 71 332 c 1
 53 332 l 1
 56 450 l 1
 403 450 l 1
 403 435 l 1
 134 30 l 1
 272 30 l 2
 323 30 357 39 371 56 c 0
 384 73 390 89 400 139 c 1
 418 135 l 1
378 674 m 1
 253 507 l 1
 191 507 l 1
 67 674 l 1
 101 674 l 1
 222 571 l 1
 344 674 l 1
 378 674 l 1
EndSplineSet
EndChar
StartChar: florin
Encoding: 402 402 871
Width: 343
Flags: MW
ItalicCorrection: 156
TopAccentHorizontal: 388
LayerCount: 2
Fore
SplineSet
432 407 m 1
 422 376 l 1
 302 376 l 1
 295 321 287 264 286 251 c 0
 262 66 245 -14 214 -84 c 0
 181 -156 142 -189 87 -189 c 0
 40 -189 7 -160 7 -120 c 0
 7 -94 26 -75 53 -75 c 0
 75 -75 89 -89 89 -111 c 0
 89 -120 86 -127 80 -138 c 0
 76 -145 74 -149 74 -152 c 0
 74 -159 83 -165 95 -165 c 0
 140 -165 167 -107 177 9 c 2
 192 181 l 2
 197 234 203 290 204 294 c 2
 215 361 l 1
 217 376 l 1
 106 376 l 1
 116 407 l 1
 223 407 l 1
 239 511 256 559 294 615 c 0
 320 653 363 676 405 676 c 0
 452 676 490 646 490 608 c 0
 490 583 469 563 444 563 c 0
 424 563 406 579 406 597 c 0
 406 603 409 612 414 621 c 0
 417 627 419 632 419 635 c 0
 419 642 411 647 399 647 c 0
 383 647 369 641 358 630 c 0
 339 610 320 546 314 483 c 0
 313 472 310 441 306 407 c 1
 432 407 l 1
EndSplineSet
EndChar
StartChar: uni019B
Encoding: 411 411 887
Width: 530
Flags: W
HStem: -10 54<391.5 434> 504 38G<207 359 207 359 438 524> 655 25G<303 314 303 314>
VStem: 359 79G<504 504 504 542>
LayerCount: 2
Fore
SplineSet
527 77 m 1
 525 64 456 -10 412 -10 c 0
 249 -10 339 313 345 367 c 1
 344 367 l 2
 344 366 148 165 119 32 c 0
 117 21 116 10 116 0 c 1
 16 0 l 1
 40 84 335 356 355 452 c 0
 356 456 357 459 356 462 c 0
 356 469 358 484 359 504 c 1
 207 504 l 1
 207 542 l 1
 359 542 l 1
 357 596 343 655 285 655 c 0
 265 655 243 645 238 641 c 0
 237 641 229 651 230 652 c 0
 243 664 285 680 303 680 c 2
 314 680 l 2
 402 680 433 622 438 542 c 1
 524 542 l 1
 524 504 l 1
 438 504 l 1
 434 316 330 44 453 44 c 0
 495 44 512 79 526 79 c 1
 527 77 l 1
EndSplineSet
EndChar
StartChar: uni0218
Encoding: 536 536 852
Width: 551
Flags: MW
ItalicCorrection: 4
TopAccentHorizontal: 281
LayerCount: 2
Fore
SplineSet
447 676 m 1
 469 463 l 1
 444 463 l 1
 428 522 414 548 383 580 c 0
 348 616 306 635 261 635 c 0
 199 635 157 597 157 542 c 0
 157 488 199 444 304 386 c 0
 436 315 491 250 491 168 c 0
 491 65 402 -14 287 -14 c 0
 247 -14 207 -6 169 9 c 0
 150 16 133 20 122 20 c 0
 107 20 95 6 94 -13 c 1
 72 -13 l 1
 42 199 l 1
 65 199 l 1
 115 77 178 22 267 22 c 0
 340 22 390 68 390 135 c 0
 390 159 385 180 376 193 c 0
 351 231 299 272 227 310 c 0
 115 369 71 425 71 505 c 0
 71 557 89 599 124 630 c 0
 157 659 201 676 244 676 c 0
 276 676 313 668 350 654 c 0
 367 646 384 642 394 642 c 0
 411 642 422 653 426 676 c 1
 447 676 l 1
235 -281 m 1
 226 -262 l 1
 280 -225 308 -188 308 -156 c 0
 308 -148 302 -142 294 -142 c 0
 293 -142 293 -142 286 -144 c 0
 280 -145 273 -146 267 -146 c 0
 231 -146 208 -127 208 -95 c 0
 208 -61 232 -38 267 -38 c 0
 312 -38 347 -77 347 -127 c 0
 347 -187 302 -248 235 -281 c 1
EndSplineSet
EndChar
StartChar: uni0219
Encoding: 537 537 874
Width: 389
Flags: MW
LayerCount: 2
Fore
SplineSet
315 314 m 1
 300 314 l 1
 277 403 247 437 190 437 c 0
 144 437 113 409 113 369 c 0
 113 342 128 317 156 301 c 2
 264 237 l 2
 324 201 348 168 348 118 c 0
 348 48 284 -10 207 -10 c 0
 189 -10 162 -6 134 0 c 0
 111 6 97 8 88 8 c 0
 76 8 72 6 65 -4 c 1
 52 -4 l 1
 52 152 l 1
 68 152 l 1
 81 95 90 72 111 47 c 0
 130 25 161 12 195 12 c 0
 246 12 278 40 278 84 c 0
 278 115 261 139 226 159 c 2
 168 192 l 2
 83 240 51 280 51 336 c 0
 51 408 108 459 187 459 c 0
 213 459 235 455 257 447 c 0
 268 442 278 440 284 440 c 0
 288 440 289 441 298 448 c 2
 300 450 l 1
 311 450 l 1
 315 314 l 1
152 -281 m 1
 143 -262 l 1
 197 -225 225 -188 225 -156 c 0
 225 -148 219 -142 211 -142 c 0
 210 -142 210 -142 203 -144 c 0
 197 -145 190 -146 184 -146 c 0
 148 -146 125 -127 125 -95 c 0
 125 -61 149 -38 184 -38 c 0
 229 -38 264 -77 264 -127 c 0
 264 -187 219 -248 152 -281 c 1
EndSplineSet
EndChar
StartChar: uni0237
Encoding: 567 567 1618
Width: 278
Flags: MW
TopAccentHorizontal: 112
LayerCount: 2
Fore
SplineSet
193 457 m 1
 193 0 l 2
 193 -142 134 -218 24 -218 c 0
 -30 -218 -70 -195 -70 -163 c 0
 -70 -141 -52 -124 -29 -124 c 0
 -13 -124 1 -133 19 -156 c 0
 36 -177 46 -184 61 -184 c 0
 75 -184 89 -176 95 -166 c 0
 106 -146 109 -121 109 -45 c 2
 109 334 l 2
 109 377 100 394 77 394 c 0
 67 394 52 393 37 391 c 2
 32 390 l 1
 32 406 l 1
 91 424 129 437 188 460 c 1
 193 457 l 1
EndSplineSet
EndChar
StartChar: circumflex
Encoding: 710 710 875
Width: 333
Flags: MW
LayerCount: 2
Fore
SplineSet
322 507 m 1
 288 507 l 1
 166 610 l 1
 45 507 l 1
 11 507 l 1
 135 674 l 1
 197 674 l 1
 322 507 l 1
EndSplineSet
EndChar
StartChar: caron
Encoding: 711 711 855
Width: 333
Flags: MW
LayerCount: 2
Fore
SplineSet
322 674 m 1
 197 507 l 1
 135 507 l 1
 11 674 l 1
 45 674 l 1
 166 571 l 1
 288 674 l 1
 322 674 l 1
EndSplineSet
EndChar
StartChar: breve
Encoding: 728 728 856
Width: 333
Flags: MW
LayerCount: 2
Fore
SplineSet
278 664 m 1
 307 664 l 1
 295 558 249 507 165 507 c 0
 118 507 78 526 53 561 c 0
 34 589 27 613 26 664 c 1
 55 664 l 1
 69 597 103 567 167 567 c 0
 225 567 250 588 278 664 c 1
EndSplineSet
EndChar
StartChar: dotaccent
Encoding: 729 729 878
Width: 333
Flags: HMW
LayerCount: 2
Fore
SplineSet
166 622 m 0
 194 622 217 599 217 572 c 0
 217 545 194 523 166 523 c 0
 139 523 118 545 118 573 c 0
 118 599 141 622 166 622 c 0
EndSplineSet
EndChar
StartChar: ring
Encoding: 730 730 858
Width: 333
Flags: MW
LayerCount: 2
Fore
SplineSet
166 711 m 0
 221 711 266 666 266 611 c 0
 266 556 221 512 166 512 c 0
 110 512 67 556 67 612 c 0
 67 666 112 711 166 711 c 0
167 677 m 0
 131 677 101 648 101 612 c 0
 101 576 130 546 165 546 c 0
 202 546 232 575 232 611 c 0
 232 647 202 677 167 677 c 0
EndSplineSet
EndChar
StartChar: ogonek
Encoding: 731 731 859
Width: 333
Flags: MW
LayerCount: 2
Fore
SplineSet
229 -73 m 1
 249 -89 l 1
 212 -142 178 -165 137 -165 c 0
 96 -165 64 -132 64 -89 c 0
 64 -57 80 -30 118 0 c 1
 164 0 l 1
 133 -25 120 -46 120 -69 c 0
 120 -92 136 -109 158 -109 c 0
 179 -109 198 -99 229 -73 c 1
EndSplineSet
EndChar
StartChar: tilde
Encoding: 732 732 896
Width: 333
Flags: W
HStem: 532 56<241.5 253.5> 578 55<77 87>
LayerCount: 2
Fore
SplineSet
302 638 m 1x80
 331 638 l 1
 310 562 281 532 226 532 c 0x80
 201 532 186 536 145 556 c 2
 122 567 l 2
 107 574 93 578 81 578 c 0
 58 578 41 563 30 532 c 1
 1 532 l 1
 16 597 52 633 102 633 c 0x40
 124 633 149 627 172 615 c 2
 196 603 l 2
 215 594 234 588 249 588 c 0
 272 588 285 600 302 638 c 1x80
EndSplineSet
EndChar
StartChar: hungarumlaut
Encoding: 733 733 861
Width: 333
Flags: MW
LayerCount: 2
Fore
SplineSet
193 507 m 1
 153 507 l 1
 300 655 l 2
 318 673 327 678 342 678 c 0
 364 678 377 666 377 646 c 0
 377 630 368 617 347 604 c 2
 193 507 l 1
37 507 m 1
 -3 507 l 1
 144 655 l 2
 162 673 171 678 186 678 c 0
 208 678 221 666 221 646 c 0
 221 630 212 617 191 604 c 2
 37 507 l 1
EndSplineSet
EndChar
StartChar: gravecomb
Encoding: 768 768 1594
Width: 333
VWidth: 1089
Flags: MW
LayerCount: 2
Fore
SplineSet
242 596 m 1
 202 596 l 5
 48 693 l 2
 30 705 19 720 19 736 c 0
 19 755 32 767 53 767 c 0
 68 767 77 762 95 744 c 2
 242 596 l 1
EndSplineSet
EndChar
StartChar: acutecomb
Encoding: 769 769 1591
Width: 333
VWidth: 1089
Flags: HMW
LayerCount: 2
Fore
SplineSet
133 596 m 1
 93 596 l 1
 240 744 l 2
 258 762 267 767 282 767 c 0
 304 767 317 755 317 735 c 0
 317 719 308 706 287 693 c 2
 133 596 l 1
EndSplineSet
EndChar
StartChar: uni0302
Encoding: 770 770 1593
Width: 0
VWidth: 1089
Flags: HMW
GlyphVariantsHorizontal: circumflex circumflex.h1 circumflex.h2 circumflex.h3
LayerCount: 2
Fore
SplineSet
156 596 m 1
 122 596 l 1
 0 699 l 1
 -121 596 l 1
 -155 596 l 1
 -31 763 l 1
 31 763 l 1
 156 596 l 1
EndSplineSet
EndChar
StartChar: tildecomb
Encoding: 771 771 1617
Width: 333
VWidth: 1089
Flags: MW
GlyphVariantsHorizontal: tildecmb.h1 tildecmb.h2 tildecmb.h3
LayerCount: 2
Fore
SplineSet
302 727 m 1
 331 727 l 1
 310 651 281 621 226 621 c 0
 201 621 186 625 145 645 c 2
 122 656 l 2
 107 663 93 667 81 667 c 0
 58 667 41 652 30 621 c 1
 1 621 l 1
 16 686 52 722 102 722 c 0
 124 722 149 716 172 704 c 2
 196 692 l 2
 215 683 234 677 249 677 c 0
 272 677 285 689 302 727 c 1
EndSplineSet
EndChar
StartChar: uni0304
Encoding: 772 772 1597
Width: 333
VWidth: 1089
Flags: MW
LayerCount: 2
Fore
SplineSet
11 690 m 1
 322 690 l 1
 322 636 l 1
 11 636 l 1
 11 690 l 1
EndSplineSet
EndChar
StartChar: uni0306
Encoding: 774 774 1619
Width: 333
VWidth: 1089
Flags: MW
LayerCount: 2
Fore
SplineSet
278 753 m 1
 307 753 l 1
 295 647 249 596 165 596 c 0
 118 596 78 615 53 650 c 0
 34 678 27 702 26 753 c 1
 55 753 l 1
 69 686 103 656 167 656 c 0
 225 656 250 677 278 753 c 1
EndSplineSet
EndChar
StartChar: uni0307
Encoding: 775 775 1599
Width: 333
VWidth: 1089
Flags: HMW
LayerCount: 2
Fore
SplineSet
166 711 m 4
 194 711 217 688 217 661 c 4
 217 634 194 612 166 612 c 4
 139 612 118 634 118 662 c 4
 118 688 141 711 166 711 c 4
EndSplineSet
EndChar
StartChar: uni0308
Encoding: 776 776 1600
Width: 333
VWidth: 1089
Flags: HMW
LayerCount: 2
Fore
SplineSet
66 711 m 4
 94 711 117 688 117 661 c 4
 117 634 94 612 66 612 c 4
 39 612 18 634 18 662 c 4
 18 688 41 711 66 711 c 4
265 711 m 4
 293 711 316 688 316 661 c 4
 316 634 293 612 265 612 c 4
 238 612 217 634 217 662 c 4
 217 688 240 711 265 711 c 4
EndSplineSet
EndChar
StartChar: uni030A
Encoding: 778 778 1622
Width: 333
VWidth: 1089
Flags: MW
LayerCount: 2
Fore
SplineSet
166 800 m 0
 221 800 266 755 266 700 c 0
 266 645 221 601 166 601 c 4
 110 601 67 645 67 701 c 0
 67 755 112 800 166 800 c 0
167 766 m 0
 131 766 101 737 101 701 c 0
 101 665 130 635 165 635 c 0
 202 635 232 664 232 700 c 0
 232 736 202 766 167 766 c 0
EndSplineSet
EndChar
StartChar: uni030B
Encoding: 779 779 1598
Width: 333
VWidth: 1089
Flags: MW
LayerCount: 2
Fore
SplineSet
193 596 m 1
 153 596 l 1
 300 744 l 2
 318 762 327 767 342 767 c 0
 364 767 377 755 377 735 c 0
 377 719 368 706 347 693 c 2
 193 596 l 1
37 596 m 1
 -3 596 l 1
 144 744 l 2
 162 762 171 767 186 767 c 0
 208 767 221 755 221 735 c 0
 221 719 212 706 191 693 c 2
 37 596 l 1
EndSplineSet
EndChar
StartChar: uni030C
Encoding: 780 780 1598
Width: 333
VWidth: 1089
Flags: MW
LayerCount: 2
Fore
SplineSet
322 763 m 1
 197 596 l 5
 135 596 l 1
 11 763 l 1
 45 763 l 1
 166 660 l 1
 288 763 l 1
 322 763 l 1
EndSplineSet
EndChar
StartChar: Alpha
Encoding: 913 913 667
Width: 701
Flags: MW
LayerCount: 2
Fore
SplineSet
697 0 m 1
 442 0 l 1
 442 19 l 1
 478 19 486 21 498 28 c 0
 506 32 512 43 512 52 c 0
 512 67 505 92 493 120 c 2
 452 216 l 1
 190 216 l 1
 144 99 l 2
 139 86 136 72 136 60 c 0
 136 32 156 19 204 19 c 1
 204 0 l 1
 6 0 l 1
 6 19 l 1
 54 22 66 37 130 183 c 2
 338 674 l 1
 358 674 l 1
 607 106 l 2
 642 32 652 22 697 19 c 1
 697 0 l 1
438 257 m 1
 322 532 l 1
 207 257 l 1
 438 257 l 1
EndSplineSet
EndChar
StartChar: Beta
Encoding: 914 914 668
Width: 599
Flags: MW
LayerCount: 2
Fore
SplineSet
602 180 m 0
 602 132 582 87 546 55 c 0
 509 21 438 0 360 0 c 2
 26 0 l 1
 26 19 l 1
 109 22 122 35 122 109 c 2
 122 553 l 2
 122 627 110 638 26 643 c 1
 26 662 l 1
 306 662 l 2
 479 662 568 604 568 492 c 0
 568 451 553 414 528 392 c 0
 504 371 483 361 431 348 c 1
 496 332 523 320 553 293 c 0
 584 264 602 224 602 180 c 0
487 179 m 0
 487 242 460 282 403 306 c 0
 367 321 321 326 224 326 c 1
 224 78 l 2
 224 46 238 37 287 37 c 0
 353 37 394 45 426 63 c 0
 466 86 487 125 487 179 c 0
466 488 m 0
 466 577 405 625 290 625 c 2
 246 625 l 2
 231 625 224 616 224 595 c 2
 224 366 l 1
 319 366 l 2
 413 366 466 410 466 488 c 0
EndSplineSet
EndChar
StartChar: Gamma
Encoding: 915 915 78
Width: 556
Flags: MW
LayerCount: 2
Fore
SplineSet
546 519 m 1
 521 519 l 1
 504 620 460 624 369 624 c 2
 233 624 l 2
 206 624 201 616 201 590 c 2
 201 109 l 2
 201 36 221 22 292 19 c 1
 292 0 l 1
 12 0 l 1
 12 19 l 1
 91 23 99 45 99 120 c 2
 99 553 l 2
 99 625 82 638 12 643 c 1
 12 662 l 1
 543 662 l 1
 546 519 l 1
EndSplineSet
EndChar
StartChar: uni0394
Encoding: 916 916 67
Width: 643
Flags: MW
TopAccentHorizontal: 328
LayerCount: 2
Fore
SplineSet
618 0 m 1
 24 0 l 1
 321 677 l 1
 338 677 l 1
 618 0 l 1
501 42 m 1
 304 528 l 1
 90 42 l 1
 501 42 l 1
EndSplineSet
EndChar
StartChar: Epsilon
Encoding: 917 917 669
Width: 593
Flags: MW
LayerCount: 2
Fore
SplineSet
615 169 m 1
 570 0 l 1
 30 0 l 1
 30 19 l 1
 103 24 117 38 117 109 c 2
 117 553 l 2
 117 624 104 637 30 643 c 1
 30 662 l 1
 561 662 l 1
 564 519 l 1
 539 519 l 1
 522 609 500 624 387 624 c 2
 252 624 l 2
 225 624 219 618 219 590 c 2
 219 368 l 1
 373 368 l 2
 454 368 470 381 483 463 c 1
 506 463 l 1
 506 231 l 1
 483 231 l 1
 470 314 455 327 373 327 c 2
 219 327 l 1
 219 80 l 2
 219 61 221 52 227 48 c 0
 236 41 276 37 324 37 c 2
 351 37 l 2
 494 37 537 61 587 169 c 1
 615 169 l 1
EndSplineSet
EndChar
StartChar: Zeta
Encoding: 918 918 670
Width: 600
Flags: MW
LayerCount: 2
Fore
SplineSet
602 176 m 1
 578 0 l 1
 14 0 l 1
 14 15 l 1
 451 624 l 1
 230 624 l 2
 164 624 119 610 96 581 c 0
 79 560 71 540 62 491 c 1
 36 491 l 1
 56 662 l 1
 582 662 l 1
 582 647 l 1
 150 38 l 1
 407 38 l 2
 464 38 508 52 532 77 c 0
 552 99 562 120 579 176 c 1
 602 176 l 1
EndSplineSet
EndChar
StartChar: Eta
Encoding: 919 919 671
Width: 740
Flags: MW
LayerCount: 2
Fore
SplineSet
712 0 m 1
 434 0 l 1
 434 19 l 1
 512 24 522 36 522 120 c 2
 522 315 l 1
 219 315 l 1
 219 109 l 2
 219 38 232 25 307 19 c 1
 307 0 l 1
 29 0 l 1
 29 19 l 1
 107 24 117 36 117 120 c 2
 117 553 l 2
 117 625 106 636 29 643 c 1
 29 662 l 1
 307 662 l 1
 307 643 l 1
 230 636 219 625 219 553 c 2
 219 359 l 1
 522 359 l 1
 522 553 l 2
 522 625 511 636 434 643 c 1
 434 662 l 1
 712 662 l 1
 712 643 l 1
 635 636 624 625 624 553 c 2
 624 109 l 2
 624 38 637 25 712 19 c 1
 712 0 l 1
EndSplineSet
EndChar
StartChar: Theta
Encoding: 920 920 68
Width: 672
Flags: MW
ItalicCorrection: 49
TopAccentHorizontal: 360
LayerCount: 2
Fore
SplineSet
688 330 m 0
 688 117 542 -14 361 -14 c 0
 180 -14 34 117 34 330 c 0
 34 560 197 676 361 676 c 0
 525 676 688 560 688 330 c 0
574 331 m 0
 574 559 463 640 361 640 c 0
 259 640 148 559 148 331 c 0
 148 111 250 22 361 22 c 0
 472 22 574 111 574 331 c 0
479 213 m 1
 460 213 l 1
 460 271 438 291 381 291 c 2
 340 291 l 2
 285 291 262 269 262 213 c 1
 244 213 l 1
 244 449 l 1
 262 449 l 1
 262 390 284 371 342 371 c 2
 382 371 l 2
 439 371 460 392 460 449 c 1
 479 449 l 1
 479 213 l 1
EndSplineSet
EndChar
StartChar: Iota
Encoding: 921 921 672
Width: 345
Flags: HMW
LayerCount: 2
Fore
SplineSet
322 0 m 1
 25 0 l 1
 25 19 l 1
 109 22 122 34 122 109 c 2
 122 553 l 2
 122 627 110 638 25 643 c 1
 25 662 l 1
 322 662 l 1
 322 643 l 1
 238 639 224 626 224 553 c 2
 224 109 l 2
 224 36 240 22 322 19 c 1
 322 0 l 1
EndSplineSet
EndChar
StartChar: Kappa
Encoding: 922 922 673
Width: 724
Flags: MW
LayerCount: 2
Fore
SplineSet
717 0 m 1
 412 0 l 1
 412 19 l 1
 424 20 435 20 440 20 c 0
 468 21 482 28 482 42 c 0
 482 66 428 137 352 212 c 2
 246 317 l 1
 220 296 l 1
 220 109 l 2
 220 36 232 24 310 19 c 1
 310 0 l 1
 28 0 l 1
 28 19 l 1
 107 24 118 37 118 120 c 2
 118 553 l 2
 118 624 106 637 28 643 c 1
 28 662 l 1
 312 662 l 1
 312 643 l 1
 231 637 220 626 220 553 c 2
 220 348 l 1
 397 509 l 2
 452 560 475 590 475 612 c 0
 475 632 463 640 433 642 c 0
 429 642 419 642 407 643 c 1
 407 662 l 1
 669 662 l 1
 669 643 l 1
 601 638 585 630 517 565 c 2
 327 377 l 1
 560 127 l 2
 651 30 665 20 717 19 c 1
 717 0 l 1
EndSplineSet
EndChar
StartChar: Lambda
Encoding: 923 923 69
Width: 722
Flags: HMW
TopAccentHorizontal: 339
LayerCount: 2
Fore
SplineSet
312 689 m 25
 364 689 l 1053
697 0 m 1
 431 0 l 1
 431 19 l 1
 487 22 506 24 506 56 c 0
 506 71 488 112 465 163 c 2
 314 501 l 1
 167 134 l 2
 165 128 148 86 148 65 c 0
 148 24 183 21 221 19 c 1
 221 0 l 1
 16 0 l 1
 16 19 l 1
 64 22 78 36 108 112 c 2
 330 673 l 1
 345 673 l 1
 591 124 l 2
 632 33 650 21 697 19 c 1
 697 0 l 1
EndSplineSet
EndChar
StartChar: Mu
Encoding: 924 924 674
Width: 904
Flags: MW
LayerCount: 2
Fore
SplineSet
876 0 m 1
 596 0 l 1
 596 19 l 1
 675 24 687 37 687 120 c 2
 687 573 l 1
 431 0 l 1
 417 0 l 1
 166 550 l 1
 166 147 l 2
 166 46 183 23 260 19 c 1
 260 0 l 1
 25 0 l 1
 25 19 l 1
 108 25 122 44 122 147 c 2
 122 553 l 2
 122 626 109 638 27 643 c 1
 27 662 l 1
 225 662 l 1
 456 157 l 1
 677 662 l 1
 876 662 l 1
 876 643 l 1
 802 637 789 624 789 553 c 2
 789 109 l 2
 789 38 803 24 876 19 c 1
 876 0 l 1
EndSplineSet
EndChar
StartChar: Nu
Encoding: 925 925 675
Width: 660
Flags: MW
LayerCount: 2
Fore
SplineSet
722 643 m 1
 684 639 670 635 656 625 c 0
 637 612 627 575 627 515 c 2
 627 -11 l 1
 610 -11 l 1
 168 539 l 1
 168 147 l 2
 168 46 185 23 262 19 c 1
 262 0 l 1
 27 0 l 1
 27 19 l 1
 110 25 124 44 124 147 c 2
 124 588 l 1
 84 635 70 643 27 643 c 1
 27 662 l 1
 198 662 l 1
 583 178 l 1
 583 515 l 2
 583 577 574 613 554 627 c 0
 539 636 525 640 487 643 c 1
 487 662 l 1
 722 662 l 1
 722 643 l 1
EndSplineSet
EndChar
StartChar: Xi
Encoding: 926 926 82
Width: 643
Flags: MW
TopAccentHorizontal: 321
LayerCount: 2
Fore
SplineSet
584 500 m 1
 565 500 l 1
 560 563 522 577 465 577 c 2
 175 577 l 2
 122 577 80 558 78 500 c 1
 59 500 l 1
 59 662 l 1
 584 662 l 1
 584 500 l 1
494 220 m 1
 476 220 l 1
 476 283 441 292 385 292 c 2
 258 292 l 2
 203 292 167 283 167 220 c 1
 149 220 l 1
 149 439 l 1
 167 439 l 1
 167 375 203 368 258 368 c 2
 385 368 l 2
 442 368 476 374 476 439 c 1
 494 439 l 1
 494 220 l 1
604 0 m 1
 39 0 l 1
 39 186 l 1
 57 186 l 1
 57 100 83 87 164 87 c 2
 485 87 l 2
 563 87 586 108 586 186 c 1
 604 186 l 1
 604 0 l 1
EndSplineSet
EndChar
StartChar: Omicron
Encoding: 927 927 676
Width: 652
Flags: MW
LayerCount: 2
Fore
SplineSet
701 327 m 0
 701 126 565 -14 368 -14 c 0
 280 -14 191 25 133 88 c 0
 79 146 47 237 47 331 c 0
 47 532 183 676 374 676 c 0
 470 676 554 640 617 571 c 0
 672 511 701 426 701 327 c 0
587 328 m 0
 587 447 556 541 502 590 c 0
 466 622 420 640 374 640 c 0
 319 640 270 618 231 575 c 0
 189 528 161 431 161 329 c 0
 161 218 194 117 246 71 c 0
 281 40 326 22 372 22 c 0
 425 22 470 40 505 75 c 0
 528 98 545 123 554 148 c 0
 574 200 587 269 587 328 c 0
EndSplineSet
EndChar
StartChar: Pi
Encoding: 928 928 83
Width: 722
Flags: MW
TopAccentHorizontal: 361
LayerCount: 2
Fore
SplineSet
704 0 m 1
 419 0 l 1
 419 18 l 1
 460 19 486 25 498 37 c 0
 510 49 515 77 515 121 c 2
 515 626 l 1
 208 626 l 1
 208 121 l 2
 208 77 213 49 224 38 c 0
 236 26 262 19 303 18 c 1
 303 0 l 1
 18 0 l 1
 18 18 l 1
 59 19 85 26 97 38 c 0
 108 49 114 77 114 121 c 2
 114 542 l 2
 114 585 109 613 97 625 c 0
 85 637 59 643 18 644 c 1
 18 662 l 1
 704 662 l 1
 704 644 l 1
 663 643 637 637 625 625 c 0
 613 613 608 585 608 542 c 2
 608 121 l 2
 608 77 614 49 625 38 c 0
 637 26 663 19 704 18 c 1
 704 0 l 1
EndSplineSet
EndChar
StartChar: Rho
Encoding: 929 929 677
Width: 417
Flags: MW
LayerCount: 2
Fore
SplineSet
557 481 m 0
 557 415 521 354 461 322 c 0
 418 298 364 288 286 288 c 0
 260 288 243 289 217 291 c 1
 217 109 l 2
 217 36 232 22 311 19 c 1
 311 0 l 1
 31 0 l 1
 31 19 l 1
 107 26 115 36 115 120 c 2
 115 553 l 2
 115 625 105 635 31 643 c 1
 31 662 l 1
 295 662 l 2
 389 662 476 634 516 590 c 0
 543 561 557 523 557 481 c 0
448 475 m 0
 448 578 386 625 251 625 c 0
 224 625 217 618 217 591 c 2
 217 331 l 1
 240 329 254 328 274 328 c 0
 389 328 448 378 448 475 c 0
EndSplineSet
EndChar
StartChar: Sigma
Encoding: 931 931 84
Width: 582
Flags: MW
LayerCount: 2
Fore
SplineSet
556 200 m 1
 528 0 l 1
 16 0 l 1
 16 18 l 1
 271 318 l 1
 16 645 l 1
 16 662 l 1
 512 662 l 1
 525 496 l 1
 507 496 l 1
 501 585 472 621 381 621 c 2
 155 621 l 1
 357 362 l 1
 127 91 l 1
 379 91 l 2
 470 91 515 114 538 205 c 1
 556 200 l 1
EndSplineSet
EndChar
StartChar: Tau
Encoding: 932 932 678
Width: 506
Flags: MW
LayerCount: 2
Fore
SplineSet
598 492 m 1
 574 492 l 1
 551 602 529 620 415 620 c 2
 361 620 l 1
 361 109 l 2
 361 36 375 23 457 19 c 1
 457 0 l 1
 165 0 l 1
 165 19 l 1
 248 24 259 35 259 120 c 2
 259 620 l 1
 205 620 l 2
 93 620 70 602 46 492 c 1
 22 492 l 1
 28 662 l 1
 592 662 l 1
 598 492 l 1
EndSplineSet
EndChar
StartChar: Upsilon
Encoding: 933 933 73
Width: 563
Flags: MW
ItalicCorrection: 132
TopAccentHorizontal: 359
LayerCount: 2
Fore
SplineSet
677 575 m 0
 677 537 656 488 612 488 c 0
 586 488 564 515 564 540 c 0
 564 574 600 586 600 609 c 0
 600 626 572 631 559 631 c 0
 534 631 512 616 494 599 c 0
 419 530 411 395 411 299 c 2
 411 82 l 2
 411 24 454 18 501 18 c 1
 501 0 l 1
 217 0 l 1
 217 18 l 1
 265 18 307 23 307 82 c 2
 307 293 l 2
 307 391 302 528 224 599 c 0
 206 615 184 631 159 631 c 0
 146 631 118 626 118 609 c 0
 118 586 154 574 154 540 c 0
 154 515 132 488 106 488 c 0
 62 488 41 537 41 575 c 0
 41 623 85 672 134 672 c 0
 259 672 333 530 360 425 c 1
 393 524 461 672 584 672 c 0
 633 672 677 623 677 575 c 0
EndSplineSet
EndChar
StartChar: Phi
Encoding: 934 934 86
Width: 731
Flags: MW
LayerCount: 2
Fore
SplineSet
696 331 m 0
 696 174 554 93 412 93 c 1
 416 38 455 18 506 18 c 1
 506 0 l 1
 225 0 l 1
 225 18 l 1
 276 18 314 38 318 93 c 1
 176 93 35 174 35 331 c 0
 35 492 175 562 318 569 c 1
 314 624 276 644 225 644 c 1
 225 662 l 1
 506 662 l 1
 506 644 l 1
 455 644 416 624 412 569 c 1
 555 564 696 492 696 331 c 0
591 339 m 0
 591 460 537 535 412 542 c 1
 412 120 l 1
 551 125 591 213 591 339 c 0
318 120 m 1
 318 542 l 1
 181 535 140 449 140 323 c 0
 140 203 194 127 318 120 c 1
EndSplineSet
EndChar
StartChar: Chi
Encoding: 935 935 679
Width: 723
Flags: MW
LayerCount: 2
Fore
SplineSet
709 0 m 1
 412 0 l 1
 412 19 l 1
 424 20 435 21 439 21 c 0
 473 22 489 32 489 50 c 0
 489 65 471 99 438 148 c 2
 343 288 l 1
 224 140 l 2
 187 94 172 69 172 54 c 0
 172 31 190 23 248 19 c 1
 248 0 l 1
 15 0 l 1
 15 19 l 1
 66 23 71 27 160 133 c 2
 317 326 l 1
 208 486 l 2
 110 625 92 640 27 643 c 1
 27 662 l 1
 329 662 l 1
 329 643 l 1
 301 642 l 2
 268 641 253 633 253 613 c 0
 253 591 277 548 338 463 c 2
 380 404 l 1
 493 542 l 2
 522 578 533 596 533 611 c 0
 533 634 517 641 463 643 c 1
 463 662 l 1
 701 662 l 1
 701 643 l 1
 637 639 617 627 552 549 c 2
 406 367 l 1
 598 93 l 2
 641 35 656 25 709 19 c 1
 709 0 l 1
EndSplineSet
EndChar
StartChar: Psi
Encoding: 936 936 87
Width: 586
Flags: MW
ItalicCorrection: 151
TopAccentHorizontal: 369
LayerCount: 2
Fore
SplineSet
727 651 m 1
 657 644 683 458 659 400 c 0
 620 306 507 287 417 284 c 1
 417 129 l 2
 417 44 425 18 517 18 c 1
 517 0 l 1
 222 0 l 1
 222 18 l 1
 314 18 322 44 322 129 c 2
 322 284 l 1
 232 287 119 306 80 400 c 0
 56 458 82 644 12 651 c 1
 12 670 l 1
 286 670 31 321 322 320 c 1
 322 533 l 2
 322 619 315 644 222 644 c 1
 222 662 l 1
 517 662 l 1
 517 644 l 1
 424 644 417 619 417 533 c 2
 417 320 l 1
 708 321 453 670 727 670 c 1
 727 651 l 1
EndSplineSet
EndChar
StartChar: alpha
Encoding: 945 945 89
Width: 587
Flags: MW
LayerCount: 2
Fore
SplineSet
558 107 m 1
 558 69 554 -10 501 -10 c 0
 438 -10 428 71 419 118 c 1
 417 118 l 1
 389 45 317 -10 238 -10 c 0
 112 -10 41 106 41 221 c 0
 41 339 120 461 248 461 c 0
 343 461 385 373 397 291 c 1
 399 291 l 1
 431 451 l 1
 515 451 l 1
 501 371 483 291 458 214 c 0
 454 200 438 163 438 151 c 0
 438 125 472 63 501 63 c 0
 525 63 539 85 539 107 c 1
 558 107 l 1
378 233 m 0
 378 310 349 432 252 432 c 0
 151 432 133 281 133 206 c 0
 133 131 159 19 253 19 c 0
 352 19 378 157 378 233 c 0
EndSplineSet
EndChar
StartChar: beta
Encoding: 946 946 78
Width: 523
Flags: HMW
ItalicCorrection: 10
TopAccentHorizontal: 268
LayerCount: 2
Fore
SplineSet
263 720 m 25
 271 698 l 1053
492 203 m 0
 492 86 419 -10 296 -10 c 0
 239 -10 180 22 171 83 c 1
 200 83 l 1
 202 42 252 14 289 14 c 0
 376 14 400 131 400 199 c 0
 400 267 368 385 283 385 c 0
 259 385 241 368 222 368 c 0
 200 368 190 381 190 402 c 0
 190 420 205 433 222 433 c 0
 245 433 264 414 285 414 c 0
 343 414 361 502 361 547 c 0
 361 610 327 676 256 676 c 0
 153 676 143 565 143 487 c 2
 143 -224 l 1
 59 -224 l 1
 59 413 l 2
 59 549 103 705 267 705 c 0
 359 705 445 658 445 556 c 0
 445 471 374 428 303 402 c 1
 303 400 l 1
 414 385 492 321 492 203 c 0
EndSplineSet
EndChar
StartChar: gamma
Encoding: 947 947 91
Width: 480
Flags: MW
LayerCount: 2
Fore
SplineSet
461 411 m 0
 461 338 273 79 273 54 c 0
 273 30 280 8 285 -15 c 0
 294 -60 298 -107 298 -153 c 0
 298 -186 285 -224 246 -224 c 0
 212 -224 199 -184 199 -156 c 0
 199 -108 209 -61 224 -16 c 0
 229 -1 249 45 249 57 c 0
 249 121 158 369 84 369 c 0
 50 369 38 333 38 305 c 1
 19 305 l 1
 19 357 21 461 94 461 c 0
 194 461 245 165 264 88 c 1
 266 88 l 1
 301 164 334 242 349 325 c 0
 354 352 355 381 362 408 c 0
 369 437 388 461 420 461 c 0
 448 461 461 436 461 411 c 0
EndSplineSet
EndChar
StartChar: delta
Encoding: 948 948 92
Width: 516
Flags: MW
ItalicCorrection: 17
TopAccentHorizontal: 228
LayerCount: 2
Fore
SplineSet
490 228 m 0
 490 96 401 -10 265 -10 c 0
 132 -10 44 90 44 220 c 0
 44 334 135 425 249 425 c 0
 269 425 289 422 309 417 c 1
 311 419 l 1
 247 460 120 507 120 598 c 0
 120 664 166 705 231 705 c 0
 304 705 368 650 391 583 c 1
 365 583 l 1
 344 635 294 681 235 681 c 0
 202 681 168 662 168 625 c 0
 168 544 490 484 490 228 c 0
397 208 m 0
 397 294 365 396 262 396 c 0
 171 396 136 322 136 241 c 0
 136 153 165 19 276 19 c 0
 379 19 397 127 397 208 c 0
EndSplineSet
EndChar
StartChar: epsilon
Encoding: 949 949 81
Width: 426
Flags: MW
TopAccentHorizontal: 222
LayerCount: 2
Fore
SplineSet
399 108 m 1
 367 20 300 -10 211 -10 c 0
 131 -10 41 31 41 123 c 0
 41 187 100 232 159 241 c 1
 159 243 l 1
 109 248 48 283 48 340 c 0
 48 428 143 461 217 461 c 0
 269 461 377 448 377 378 c 0
 377 357 364 341 342 341 c 0
 285 341 299 437 222 437 c 0
 163 437 140 390 140 337 c 0
 140 299 162 252 206 252 c 0
 241 252 261 276 286 276 c 0
 305 276 319 262 319 243 c 0
 319 223 305 210 285 210 c 0
 260 210 239 228 214 228 c 0
 164 228 133 186 133 139 c 0
 133 71 175 26 244 26 c 0
 311 26 348 60 374 119 c 1
 399 108 l 1
EndSplineSet
EndChar
StartChar: zeta
Encoding: 950 950 82
Width: 480
Flags: HMW
TopAccentHorizontal: 209
LayerCount: 2
Fore
SplineSet
208 682 m 25
 343 612 l 1053
458 -24 m 0
 458 -124 351 -173 264 -173 c 0
 239 -173 197 -169 197 -135 c 0
 197 -113 218 -107 236 -107 c 0
 271 -107 303 -125 338 -125 c 0
 377 -125 422 -96 422 -53 c 0
 422 -4 373 2 335 2 c 0
 307 2 280 -2 253 -2 c 0
 114 -2 70 70 70 201 c 0
 70 318 106 429 180 520 c 1
 129 528 41 564 41 626 c 0
 41 691 115 711 168 711 c 0
 180 711 193 710 205 708 c 1
 205 684 l 1
 196 686 186 687 177 687 c 0
 139 687 108 661 108 622 c 0
 108 578 160 545 199 540 c 1
 242 582 289 603 350 603 c 0
 371 603 405 596 405 569 c 0
 405 523 320 511 286 511 c 0
 259 511 232 511 206 516 c 1
 138 443 113 328 113 231 c 0
 113 68 209 84 334 84 c 0
 413 84 458 62 458 -24 c 0
EndSplineSet
EndChar
StartChar: eta
Encoding: 951 951 83
Width: 534
Flags: HMW
TopAccentHorizontal: 242
LayerCount: 2
Fore
SplineSet
198 371 m 25
 334 494 l 1053
475 -224 m 1
 391 -224 l 1
 391 326 l 2
 391 367 381 425 329 425 c 0
 183 425 203 94 203 0 c 1
 118 0 l 1
 118 359 l 2
 118 383 118 420 85 420 c 0
 46 420 43 347 43 320 c 1
 19 320 l 1
 19 381 32 461 110 461 c 0
 201 461 197 362 200 297 c 1
 203 297 l 1
 218 372 259 461 348 461 c 0
 455 461 475 383 475 293 c 2
 475 -224 l 1
EndSplineSet
EndChar
StartChar: theta
Encoding: 952 952 96
Width: 503
Flags: MW
ItalicCorrection: 30
TopAccentHorizontal: 266
LayerCount: 2
Fore
SplineSet
483 341 m 0
 483 199 450 -10 267 -10 c 0
 84 -10 51 199 51 341 c 0
 51 474 101 672 267 672 c 0
 433 672 483 474 483 341 c 0
391 358 m 1
 391 443 389 648 267 648 c 0
 145 648 143 443 143 358 c 1
 391 358 l 1
391 301 m 2
 391 334 l 1
 143 334 l 1
 143 301 l 2
 143 216 144 14 267 14 c 0
 390 14 391 216 391 301 c 2
EndSplineSet
EndChar
StartChar: iota
Encoding: 953 953 85
Width: 267
Flags: MW
TopAccentHorizontal: 100
LayerCount: 2
Fore
SplineSet
265 111 m 2
 265 38 241 -10 161 -10 c 0
 84 -10 59 35 59 106 c 2
 59 451 l 1
 143 451 l 1
 143 72 l 2
 143 46 160 26 187 26 c 0
 248 26 241 103 241 145 c 1
 265 145 l 1
 265 111 l 2
EndSplineSet
EndChar
StartChar: kappa
Encoding: 954 954 86
Width: 527
Flags: MW
TopAccentHorizontal: 282
LayerCount: 2
Fore
SplineSet
536 0 m 1
 310 0 l 1
 310 17 l 1
 322 17 354 17 354 35 c 0
 354 51 208 221 186 248 c 1
 186 0 l 1
 114 0 l 1
 114 337 l 2
 114 396 92 420 32 420 c 1
 32 437 l 1
 85 447 137 460 186 481 c 1
 186 273 l 1
 245 331 383 479 465 479 c 0
 495 479 534 465 534 429 c 0
 534 398 511 379 481 379 c 0
 443 379 428 418 398 418 c 0
 360 418 283 331 255 303 c 1
 434 78 l 2
 465 40 483 17 536 17 c 1
 536 0 l 1
EndSplineSet
EndChar
StartChar: lambda
Encoding: 955 955 87
Width: 480
Flags: MW
TopAccentHorizontal: 118
LayerCount: 2
Fore
SplineSet
466 96 m 2
 466 50 456 -10 398 -10 c 0
 335 -10 318 64 306 112 c 2
 246 350 l 1
 244 350 l 1
 113 0 l 1
 26 0 l 1
 208 472 l 1
 195 521 182 632 113 632 c 0
 82 632 68 603 61 577 c 1
 42 577 l 1
 42 595 l 2
 42 644 60 705 119 705 c 0
 189 705 209 592 223 540 c 2
 323 182 l 2
 334 144 350 69 400 69 c 0
 430 69 445 105 446 130 c 1
 466 130 l 1
 466 96 l 2
EndSplineSet
EndChar
StartChar: uni03BC
Encoding: 956 956 100
Width: 534
Flags: MW
LayerCount: 2
Fore
SplineSet
515 132 m 1
 515 70 502 -10 423 -10 c 0
 333 -10 337 91 334 155 c 1
 331 155 l 1
 316 81 274 -10 186 -10 c 0
 125 -10 95 36 80 89 c 1
 78 89 l 1
 78 -6 137 -90 137 -182 c 0
 137 -209 122 -224 95 -224 c 0
 62 -224 59 -196 59 -170 c 2
 59 451 l 1
 143 451 l 1
 143 125 l 2
 143 86 153 26 204 26 c 0
 351 26 331 356 331 451 c 1
 416 451 l 1
 416 92 l 2
 416 69 416 31 448 31 c 0
 488 31 491 104 491 132 c 1
 515 132 l 1
EndSplineSet
EndChar
StartChar: nu
Encoding: 957 957 101
Width: 377
Flags: MW
ItalicCorrection: 102
TopAccentHorizontal: 242
LayerCount: 2
Fore
SplineSet
455 417 m 0
 455 370 298 72 268 0 c 1
 240 0 l 1
 105 376 l 2
 99 392 90 407 71 407 c 0
 39 407 39 353 39 331 c 1
 15 331 l 1
 15 351 l 2
 15 413 35 461 105 461 c 0
 151 461 172 435 186 394 c 2
 286 111 l 1
 324 185 360 265 360 350 c 0
 360 365 356 381 356 396 c 0
 356 431 368 461 408 461 c 0
 436 461 455 446 455 417 c 0
EndSplineSet
EndChar
StartChar: xi
Encoding: 958 958 102
Width: 480
Flags: MW
TopAccentHorizontal: 226
LayerCount: 2
Fore
SplineSet
455 -27 m 0
 455 -145 342 -184 242 -184 c 0
 217 -184 168 -177 168 -144 c 0
 168 -125 185 -117 202 -117 c 0
 240 -117 273 -144 311 -144 c 0
 361 -144 420 -113 420 -57 c 0
 420 79 46 -106 46 151 c 0
 46 221 81 284 140 321 c 1
 110 347 88 375 88 416 c 0
 88 467 118 512 158 542 c 1
 115 548 25 583 25 636 c 0
 25 691 89 711 134 711 c 0
 157 711 181 708 204 704 c 1
 200 684 l 1
 187 685 175 687 162 687 c 0
 127 687 85 674 85 632 c 0
 85 588 147 561 184 558 c 1
 228 589 282 608 336 608 c 0
 362 608 416 603 416 567 c 0
 416 523 339 523 309 523 c 0
 267 523 224 525 184 539 c 1
 151 512 124 474 124 430 c 0
 124 404 151 345 181 345 c 0
 237 345 292 361 348 361 c 0
 375 361 434 360 434 322 c 0
 434 277 359 276 328 276 c 0
 270 276 217 282 163 304 c 1
 119 281 82 238 82 186 c 0
 82 67 210 84 292 84 c 0
 374 84 455 76 455 -27 c 0
EndSplineSet
EndChar
StartChar: pi
Encoding: 960 960 103
Width: 582
Flags: MW
ItalicCorrection: 4
TopAccentHorizontal: 317
LayerCount: 2
Fore
SplineSet
552 470 m 1
 550 371 507 378 427 378 c 1
 427 95 l 2
 427 66 431 26 469 26 c 0
 517 26 523 112 523 146 c 1
 547 146 l 1
 547 74 532 -10 442 -10 c 0
 372 -10 343 41 343 105 c 2
 343 378 l 1
 209 378 l 1
 209 346 210 314 210 283 c 0
 210 215 211 -10 108 -10 c 0
 31 -10 36 65 35 121 c 1
 59 121 l 1
 59 98 70 63 98 63 c 0
 181 63 180 289 180 346 c 2
 180 378 l 1
 130 378 l 2
 99 378 74 361 67 330 c 1
 43 330 l 1
 60 436 101 451 201 451 c 0
 299 451 397 444 495 444 c 0
 512 444 531 451 533 470 c 1
 552 470 l 1
EndSplineSet
EndChar
StartChar: rho
Encoding: 961 961 92
Width: 516
Flags: HMW
ItalicCorrection: 17
TopAccentHorizontal: 269
LayerCount: 2
Fore
SplineSet
262 475 m 25
 270 446 l 1053
481 233 m 0
 481 100 400 -10 260 -10 c 0
 216 -10 172 5 137 33 c 1
 137 -8 139 -49 139 -90 c 0
 139 -134 138 -178 128 -221 c 1
 44 -221 l 1
 48 -193 56 -165 56 -137 c 0
 56 -29 51 78 51 186 c 0
 51 322 110 461 266 461 c 0
 400 461 481 363 481 233 c 0
389 196 m 0
 389 279 365 432 256 432 c 0
 148 432 132 324 132 239 c 0
 132 155 171 19 275 19 c 0
 368 19 389 122 389 196 c 0
EndSplineSet
EndChar
StartChar: sigma1
Encoding: 962 962 105
Width: 473
Flags: MW
LayerCount: 2
Fore
SplineSet
447 387 m 0
 447 356 423 333 392 333 c 0
 344 333 337 418 240 418 c 0
 145 418 102 331 102 247 c 0
 102 89 390 122 390 -43 c 0
 390 -149 293 -178 205 -178 c 0
 185 -178 163 -176 144 -169 c 1
 149 -150 l 1
 166 -151 184 -153 201 -153 c 0
 247 -153 307 -136 307 -80 c 0
 307 42 24 22 24 174 c 0
 24 364 140 457 325 457 c 0
 369 457 447 445 447 387 c 0
EndSplineSet
EndChar
StartChar: sigma
Encoding: 963 963 94
Width: 476
Flags: MW
ItalicCorrection: 57
TopAccentHorizontal: 334
LayerCount: 2
Fore
SplineSet
525 479 m 1
 523 442 514 396 468 396 c 0
 441 396 414 397 387 401 c 1
 385 399 l 1
 441 357 477 290 477 220 c 0
 477 98 391 -10 264 -10 c 0
 132 -10 41 93 41 222 c 0
 41 359 131 461 271 461 c 0
 334 461 396 449 459 449 c 0
 480 449 509 452 512 479 c 1
 525 479 l 1
385 188 m 0
 385 278 365 432 246 432 c 0
 155 432 133 334 133 261 c 0
 133 173 144 19 264 19 c 0
 365 19 385 105 385 188 c 0
EndSplineSet
EndChar
StartChar: tau
Encoding: 964 964 95
Width: 394
Flags: MW
ItalicCorrection: 31
TopAccentHorizontal: 219
LayerCount: 2
Fore
SplineSet
402 468 m 1
 396 362 326 367 243 374 c 1
 243 94 l 2
 243 62 246 26 287 26 c 0
 343 26 345 105 345 145 c 1
 369 145 l 1
 369 68 358 -10 262 -10 c 0
 206 -10 158 29 158 87 c 2
 158 376 l 1
 134 377 110 378 86 378 c 0
 53 378 35 367 28 333 c 1
 9 333 l 1
 13 410 36 451 119 451 c 0
 194 451 270 444 345 444 c 0
 361 444 380 450 383 468 c 1
 402 468 l 1
EndSplineSet
EndChar
StartChar: upsilon
Encoding: 965 965 96
Width: 511
Flags: MW
ItalicCorrection: 22
TopAccentHorizontal: 243
LayerCount: 2
Fore
SplineSet
464 305 m 0
 464 175 438 -10 270 -10 c 0
 172 -10 118 56 118 151 c 0
 118 223 126 296 126 368 c 0
 126 390 120 425 91 425 c 0
 49 425 43 364 43 333 c 1
 19 333 l 1
 19 399 34 461 113 461 c 0
 184 461 210 390 210 330 c 0
 210 268 203 206 203 144 c 0
 203 84 216 26 289 26 c 0
 376 26 420 117 420 193 c 0
 420 272 359 335 359 411 c 0
 359 436 373 461 401 461 c 0
 466 461 464 349 464 305 c 0
EndSplineSet
EndChar
StartChar: phi
Encoding: 966 966 97
Width: 617
Flags: HMW
ItalicCorrection: 22
TopAccentHorizontal: 326
LayerCount: 2
Fore
SplineSet
204 494 m 25
 454 488 l 1053
600 266 m 0
 600 122 534 -2 377 -10 c 1
 377 -224 l 1
 293 -224 l 1
 293 -10 l 1
 150 -2 40 99 40 245 c 0
 40 339 85 461 197 461 c 0
 247 461 286 431 308 388 c 1
 291 374 l 1
 274 399 247 432 214 432 c 0
 130 432 132 306 132 248 c 0
 132 130 154 28 293 19 c 1
 293 56 291 92 291 129 c 0
 291 245 299 461 460 461 c 0
 567 461 600 355 600 266 c 0
571 267 m 0
 571 331 550 432 468 432 c 0
 387 432 377 353 377 290 c 2
 377 19 l 1
 517 26 571 141 571 267 c 0
EndSplineSet
EndChar
StartChar: chi
Encoding: 967 967 98
Width: 480
Flags: MW
TopAccentHorizontal: 222
LayerCount: 2
Fore
SplineSet
461 -89 m 0
 461 -139 461 -209 393 -209 c 0
 332 -209 310 -105 295 -60 c 2
 252 71 l 1
 118 -200 l 1
 29 -200 l 1
 213 177 l 1
 168 294 l 2
 155 329 144 376 97 376 c 0
 51 376 44 335 43 298 c 1
 24 298 l 1
 20 317 19 337 19 357 c 0
 19 400 31 461 85 461 c 0
 148 461 170 395 186 346 c 2
 233 206 l 1
 356 451 l 1
 443 451 l 1
 271 108 l 1
 287 61 334 -131 391 -131 c 0
 430 -131 439 -78 442 -48 c 1
 459 -48 l 1
 460 -62 461 -75 461 -89 c 0
EndSplineSet
EndChar
StartChar: psi
Encoding: 968 968 99
Width: 565
Flags: HMW
ItalicCorrection: 92
TopAccentHorizontal: 329
LayerCount: 2
Fore
SplineSet
292 482 m 25
 370 478 l 1053
646 443 m 1
 602 434 579 429 572 380 c 0
 547 198 579 54 358 -5 c 1
 358 -199 l 1
 300 -199 l 1
 300 -5 l 1
 79 54 111 198 86 380 c 0
 79 429 56 434 12 443 c 1
 12 460 l 1
 29 467 48 471 67 471 c 0
 181 471 185 352 194 267 c 2
 208 138 l 2
 214 84 247 44 300 31 c 1
 300 459 l 1
 358 459 l 1
 358 31 l 1
 411 44 444 84 450 138 c 2
 464 267 l 2
 473 352 476 471 591 471 c 0
 610 471 629 467 646 460 c 1
 646 443 l 1
EndSplineSet
EndChar
StartChar: omega
Encoding: 969 969 100
Width: 676
Flags: MW
ItalicCorrection: 16
TopAccentHorizontal: 346
LayerCount: 2
Fore
SplineSet
652 228 m 0
 652 126 593 -10 474 -10 c 0
 394 -10 357 50 348 122 c 1
 345 122 l 1
 336 50 299 -10 219 -10 c 0
 100 -10 41 126 41 228 c 0
 41 348 111 458 240 461 c 1
 240 437 l 1
 130 426 133 313 133 229 c 0
 133 161 134 19 230 19 c 0
 302 19 323 102 323 160 c 0
 323 218 300 273 300 329 c 0
 300 360 312 385 347 385 c 0
 381 385 393 359 393 329 c 0
 393 272 371 217 371 160 c 0
 371 102 390 19 463 19 c 0
 562 19 560 168 560 237 c 0
 560 320 560 426 453 437 c 1
 453 461 l 1
 582 458 652 348 652 228 c 0
EndSplineSet
EndChar
StartChar: theta1
Encoding: 977 977 102
Width: 492
Flags: MW
ItalicCorrection: 94
TopAccentHorizontal: 294
LayerCount: 2
Fore
SplineSet
569 322 m 1
 545 322 l 1
 545 364 530 407 480 407 c 1
 482 385 483 363 483 341 c 0
 483 205 463 -10 282 -10 c 0
 87 -10 122 179 122 313 c 0
 122 343 123 401 80 401 c 0
 42 401 41 341 41 315 c 1
 17 315 l 1
 17 375 21 442 98 442 c 0
 226 442 203 262 203 177 c 0
 203 118 201 14 284 14 c 0
 384 14 391 150 391 223 c 2
 391 407 l 1
 278 407 153 432 153 571 c 0
 153 649 216 705 292 705 c 0
 427 705 466 537 480 431 c 1
 551 431 569 385 569 322 c 1
389 431 m 1
 379 519 l 2
 373 574 374 676 296 676 c 0
 228 676 226 619 226 567 c 0
 226 462 295 431 389 431 c 1
EndSplineSet
EndChar
StartChar: phi1
Encoding: 981 981 117
Width: 640
Flags: MW
LayerCount: 2
Fore
SplineSet
597 226 m 0
 597 77 493 -2 352 -10 c 1
 355 -224 l 1
 285 -224 l 1
 288 -10 l 1
 147 -2 43 77 43 226 c 0
 43 370 167 454 300 461 c 1
 305 662 l 1
 335 662 l 1
 341 461 l 1
 473 454 597 369 597 226 c 0
513 226 m 0
 513 331 453 422 343 432 c 1
 351 19 l 1
 454 28 513 130 513 226 c 0
298 432 m 1
 187 422 128 331 128 226 c 0
 128 130 185 28 289 19 c 1
 298 432 l 1
EndSplineSet
EndChar
StartChar: omega1
Encoding: 982 982 115
Width: 684
Flags: MW
LayerCount: 2
Fore
SplineSet
653 437 m 1
 544 437 l 1
 619 395 652 310 652 228 c 0
 652 126 593 -10 474 -10 c 0
 394 -10 357 50 348 122 c 1
 345 122 l 1
 336 50 299 -10 219 -10 c 0
 100 -10 41 126 41 228 c 0
 41 308 72 391 143 434 c 1
 95 431 72 419 34 391 c 1
 18 391 l 1
 39 441 92 521 154 521 c 2
 653 521 l 1
 653 437 l 1
560 237 m 0
 560 313 561 437 456 437 c 2
 236 437 l 2
 129 437 133 305 133 229 c 0
 133 161 134 19 230 19 c 0
 303 19 323 102 323 160 c 0
 323 218 300 272 300 329 c 0
 300 360 312 385 347 385 c 0
 381 385 393 359 393 329 c 0
 393 272 371 217 371 160 c 0
 371 102 390 19 463 19 c 0
 562 19 560 168 560 237 c 0
EndSplineSet
EndChar
StartChar: uni03DC
Encoding: 988 988 118
Width: 525
Flags: MW
LayerCount: 2
Fore
SplineSet
511 682 m 1
 501 633 l 1
 200 633 l 1
 148 387 l 1
 448 387 l 1
 438 338 l 1
 137 338 l 1
 65 0 l 1
 -24 0 l 1
 121 682 l 1
 511 682 l 1
EndSplineSet
EndChar
StartChar: uni03F0
Encoding: 1008 1008 107
Width: 509
Flags: MW
ItalicCorrection: 24
TopAccentHorizontal: 275
LayerCount: 2
Fore
SplineSet
481 430 m 0
 481 368 395 294 348 262 c 1
 338 219 319 172 319 127 c 0
 319 97 331 75 364 75 c 0
 406 75 429 115 441 150 c 1
 460 150 l 1
 444 83 424 -10 338 -10 c 0
 291 -10 279 26 279 66 c 0
 279 125 299 183 315 239 c 1
 258 203 200 167 148 124 c 1
 128 82 91 -10 35 -10 c 0
 14 -10 5 5 5 24 c 0
 5 94 93 157 143 195 c 1
 154 237 173 287 173 330 c 0
 173 361 161 382 128 382 c 0
 85 382 59 342 50 305 c 1
 31 305 l 1
 46 366 71 461 150 461 c 0
 198 461 211 422 211 381 c 0
 211 326 193 268 177 216 c 1
 229 255 283 290 338 325 c 1
 354 366 397 461 449 461 c 0
 468 461 481 449 481 430 c 0
EndSplineSet
EndChar
StartChar: uni03F1
Encoding: 1009 1009 104
Width: 516
Flags: MW
ItalicCorrection: 17
TopAccentHorizontal: 267
LayerCount: 2
Fore
SplineSet
481 233 m 0
 481 100 400 -10 260 -10 c 0
 171 -10 93 50 72 137 c 1
 70 137 l 1
 71 108 77 79 84 51 c 0
 157 -230 400 10 397 -224 c 1
 378 -224 l 1
 386 -126 181 -253 89 -63 c 0
 57 3 41 108 41 181 c 0
 41 322 106 461 266 461 c 0
 400 461 481 363 481 233 c 0
389 196 m 0
 389 279 365 432 256 432 c 0
 148 432 132 324 132 239 c 0
 132 155 171 19 275 19 c 0
 368 19 389 122 389 196 c 0
EndSplineSet
EndChar
StartChar: uni03F5
Encoding: 1013 1013 113
Width: 390
Flags: MW
LayerCount: 2
Fore
SplineSet
387 451 m 1
 379 416 l 1
 361 419 343 419 325 419 c 0
 236 419 137 371 126 273 c 1
 352 264 l 1
 346 220 l 1
 119 213 l 1
 116 201 115 188 115 176 c 0
 115 88 173 36 260 36 c 0
 297 36 334 42 370 48 c 1
 365 11 l 1
 322 0 276 -3 232 -3 c 0
 103 -3 25 64 25 196 c 0
 25 377 149 458 319 458 c 0
 342 458 364 454 387 451 c 1
EndSplineSet
EndChar
StartChar: uni05D2
Encoding: 1490 1490 338
Width: 315
Flags: MW
TopAccentHorizontal: 169
LayerCount: 2
Fore
SplineSet
291 51 m 1
 279 51 l 1
 277 63 268 129 253 129 c 0
 247 129 222 17 218 0 c 1
 25 0 l 1
 61 130 l 1
 234 130 l 2
 251 130 252 147 252 161 c 0
 252 185 227 484 227 485 c 0
 224 522 200 546 161 546 c 0
 84 546 70 585 70 627 c 0
 70 651 75 676 75 695 c 1
 87 697 l 1
 90 682 119 667 165 667 c 2
 191 667 l 2
 229 667 274 662 274 611 c 0
 274 553 248 530 248 483 c 0
 248 479 249 475 249 471 c 2
 291 51 l 1
EndSplineSet
EndChar
StartChar: endash
Encoding: 8211 8211 862
Width: 500
Flags: MW
LayerCount: 2
Fore
SplineSet
0 250 m 1
 500 250 l 1
 500 201 l 1
 0 201 l 1
 0 250 l 1
EndSplineSet
EndChar
StartChar: emdash
Encoding: 8212 8212 899
Width: 1000
Flags: W
HStem: 201 49<0 1000 0 1000>
LayerCount: 2
Fore
SplineSet
0 250 m 1
 1000 250 l 1
 1000 201 l 1
 0 201 l 1
 0 250 l 1
EndSplineSet
EndChar
StartChar: uni2016
Encoding: 8214 8214 152
Width: 400
Flags: MW
LayerCount: 2
Fore
SplineSet
328 -163 m 1
 272 -163 l 1
 272 677 l 1
 328 677 l 1
 328 -163 l 1
128 -163 m 1
 72 -163 l 1
 72 677 l 1
 128 677 l 1
 128 -163 l 1
EndSplineSet
EndChar
StartChar: quoteleft
Encoding: 8216 8216 900
Width: 333
Flags: W
HStem: 433 104<164 212.5> 656 20<227 227>
VStem: 115 39<547 552>
LayerCount: 2
Fore
SplineSet
227 676 m 1
 236 657 l 1
 182 620 154 584 154 551 c 0
 154 543 160 537 168 537 c 0
 169 537 169 537 176 539 c 0
 182 540 189 541 195 541 c 0
 231 541 254 521 254 490 c 0
 254 456 230 433 195 433 c 0
 150 433 115 471 115 522 c 0
 115 582 160 643 227 676 c 1
EndSplineSet
EndChar
StartChar: quoteright
Encoding: 8217 8217 901
Width: 333
Flags: W
HStem: 572 104<120.5 169>
VStem: 179 39<557 562>
LayerCount: 2
Fore
SplineSet
106 433 m 1
 97 452 l 1
 151 489 179 525 179 558 c 0
 179 566 173 572 165 572 c 0
 164 572 164 572 157 570 c 0
 151 569 144 568 138 568 c 0
 102 568 79 587 79 619 c 0
 79 653 103 676 138 676 c 0
 183 676 218 637 218 587 c 0
 218 527 173 466 106 433 c 1
EndSplineSet
EndChar
StartChar: quotesinglbase
Encoding: 8218 8218 902
Width: 333
Flags: W
HStem: -6 20 -2 104<120.5 169>
VStem: 179 39<-17 -12>
LayerCount: 2
Fore
SplineSet
106 -141 m 1x60
 97 -122 l 1
 151 -85 179 -48 179 -16 c 0
 179 -8 173 -2 165 -2 c 0x60
 164 -2 164 -2 157 -4 c 0
 151 -5 144 -6 138 -6 c 0xa0
 102 -6 79 13 79 45 c 0
 79 79 103 102 138 102 c 0
 183 102 218 63 218 13 c 0
 218 -47 173 -108 106 -141 c 1x60
EndSplineSet
EndChar
StartChar: quotedblleft
Encoding: 8220 8220 888
Width: 444
Flags: MW
LayerCount: 2
Fore
SplineSet
155 676 m 1
 164 657 l 1
 110 620 82 584 82 551 c 0
 82 543 88 537 96 537 c 0
 97 537 97 537 104 539 c 0
 110 540 117 541 123 541 c 0
 159 541 182 522 182 490 c 0
 182 456 158 433 123 433 c 0
 78 433 43 471 43 522 c 0
 43 582 88 643 155 676 c 1
387 676 m 1
 396 657 l 1
 342 620 314 584 314 551 c 0
 314 543 320 537 328 537 c 0
 329 537 329 537 336 539 c 0
 342 540 349 541 355 541 c 0
 391 541 414 522 414 490 c 0
 414 456 390 433 355 433 c 0
 310 433 275 471 275 522 c 0
 275 582 320 643 387 676 c 1
EndSplineSet
EndChar
StartChar: quotedblright
Encoding: 8221 8221 904
Width: 444
Flags: W
HStem: 572 104<71.5 120>
VStem: 130 39<557 562> 362 39<557 562>
LayerCount: 2
Fore
SplineSet
57 433 m 1
 48 452 l 1
 102 489 130 526 130 558 c 0
 130 566 124 572 116 572 c 0
 115 572 115 572 108 570 c 0
 102 569 95 568 89 568 c 0
 52 568 30 587 30 619 c 0
 30 653 54 676 89 676 c 0
 134 676 169 637 169 587 c 0
 169 527 124 466 57 433 c 1
289 433 m 1
 280 452 l 1
 334 489 362 526 362 558 c 0
 362 566 356 572 348 572 c 0
 347 572 347 572 340 570 c 0
 334 569 327 568 321 568 c 0
 284 568 262 587 262 619 c 0
 262 653 286 676 321 676 c 0
 366 676 401 637 401 587 c 0
 401 527 356 466 289 433 c 1
EndSplineSet
EndChar
StartChar: quotedblbase
Encoding: 8222 8222 905
Width: 444
Flags: W
HStem: -6 20 -2 104<86.5 135>
VStem: 145 39<-17 -12> 377 39<-17 -12>
LayerCount: 2
Fore
SplineSet
72 -141 m 1x70
 63 -122 l 1
 117 -85 145 -48 145 -16 c 0
 145 -8 139 -2 131 -2 c 0x70
 130 -2 130 -2 123 -4 c 0
 117 -5 110 -6 104 -6 c 0xb0
 67 -6 45 13 45 45 c 0
 45 79 69 102 104 102 c 0
 149 102 184 63 184 13 c 0
 184 -47 139 -108 72 -141 c 1x70
304 -141 m 1
 295 -122 l 1
 349 -85 377 -48 377 -16 c 0
 377 -8 371 -2 363 -2 c 0x70
 362 -2 362 -2 355 -4 c 0
 349 -5 342 -6 336 -6 c 0xb0
 299 -6 277 13 277 45 c 0
 277 79 301 102 336 102 c 0
 381 102 416 63 416 13 c 0
 416 -47 371 -108 304 -141 c 1
EndSplineSet
EndChar
